<svg width="38" height="37" viewBox="0 0 38 37" fill="none" xmlns="http://www.w3.org/2000/svg">
<path d="M37.0267 18.676C37.0267 23.7618 37.0267 28.8476 37.0267 33.9333C37.0559 34.6258 36.8322 35.3053 36.3971 35.8448C35.962 36.3843 35.3454 36.7469 34.6624 36.865C34.4345 36.8887 34.2046 36.8887 33.9767 36.865H3.5407C3.13705 36.8902 2.7328 36.8295 2.35433 36.6869C1.97587 36.5444 1.6317 36.3232 1.34498 36.038C1.05826 35.7527 0.835346 35.41 0.690809 35.0323C0.546272 34.6545 0.483419 34.2504 0.506486 33.8467C0.506486 23.6909 0.506486 13.5324 0.506486 3.37134C0.483419 2.96757 0.546272 2.56356 0.690809 2.18584C0.835346 1.80813 1.05826 1.46528 1.34498 1.18005C1.6317 0.894825 1.97587 0.673641 2.35433 0.531074C2.7328 0.388506 3.13705 0.327835 3.5407 0.353004H33.9767C34.3831 0.327376 34.7903 0.38886 35.1711 0.533286C35.5519 0.677712 35.8975 0.901715 36.1847 1.19044C36.4719 1.47917 36.6941 1.82595 36.8366 2.20749C36.979 2.58903 37.0386 2.99657 37.0109 3.40289C37.0267 8.48868 37.0319 13.5797 37.0267 18.676ZM1.6967 28.6768L2.09074 28.4089L11.4296 21.6471C11.8946 21.3082 12.0756 21.3082 12.509 21.6471C13.8172 22.782 15.1412 23.9089 16.4495 25.0595C16.7016 25.2802 16.8594 25.3196 17.151 25.0595C18.8138 23.7513 20.5004 22.4667 22.1869 21.1743C22.7701 20.7251 22.8409 20.733 23.4557 21.1743L35.474 29.4492L35.8603 29.6934V3.59203C35.8723 3.40045 35.8723 3.20832 35.8603 3.01674C35.8325 2.70241 35.7108 2.40367 35.5113 2.1592C35.3118 1.91472 35.0437 1.73576 34.7413 1.64548C34.4469 1.56134 34.1407 1.52409 33.8347 1.53513H7.73356C6.37805 1.53513 5.02242 1.53513 3.66691 1.53513C3.26248 1.54179 2.86525 1.64444 2.50826 1.83461C2.23329 2.00324 2.0127 2.24752 1.87294 2.53823C1.73317 2.82894 1.68015 3.15373 1.72017 3.4738V28.6217L1.6967 28.6768ZM17.8128 35.7696C17.8072 35.635 17.7942 35.5009 17.7736 35.3677C17.2771 32.5306 16.7807 29.6935 16.2605 26.8563C16.2112 26.6286 16.0962 26.4203 15.9296 26.2574C15.3622 25.7373 14.7788 25.2486 14.1956 24.7442L11.9495 22.8135H11.8472C8.53194 25.2145 5.21419 27.6208 1.89372 30.0324C1.83746 30.0787 1.79162 30.1362 1.75904 30.2014C1.72645 30.2666 1.70767 30.3378 1.70439 30.4106C1.70439 31.5928 1.70439 32.7749 1.70439 33.9728C1.69239 34.4253 1.85975 34.8643 2.16963 35.1943C2.35988 35.3835 2.58813 35.53 2.83958 35.6238C3.09102 35.7176 3.35955 35.7566 3.62728 35.7381H17.8128V35.7696ZM17.7186 26.2102L18.5066 26.9036L28.4759 35.5253C28.6235 35.6599 28.8125 35.7405 29.0119 35.7539C30.6721 35.7539 32.3322 35.7539 33.9925 35.7539C34.2426 35.7743 34.4939 35.7398 34.7294 35.6531C34.9648 35.5663 35.1788 35.4293 35.3558 35.2515C35.5329 35.0737 35.6687 34.8594 35.7545 34.6236C35.8403 34.3878 35.8737 34.1361 35.8522 33.8861C35.8522 33.098 35.8522 32.373 35.8522 31.6243C35.8615 31.4989 35.8346 31.3735 35.7745 31.2631C35.7144 31.1527 35.6239 31.0619 35.5136 31.0017C32.6371 29.0315 29.7762 27.0612 26.8997 25.0753L22.8253 22.2697L17.7186 26.2102ZM26.9232 35.7696L17.7028 27.7863C17.6947 27.8965 17.6947 28.0071 17.7028 28.1173C18.1283 30.4815 18.5617 32.901 18.9557 35.3046C19.0266 35.7144 19.1843 35.7774 19.5468 35.7696H26.9232Z" fill="#B7C55E"/>
<path d="M25.1967 14.6327C24.2037 14.6327 23.2028 14.6327 22.2098 14.6327C21.4925 14.6341 20.8002 14.3695 20.2665 13.8902C19.7329 13.411 19.3957 12.7509 19.3203 12.0376C19.2448 11.3243 19.4367 10.6083 19.8582 10.028C20.2798 9.44771 20.9013 9.04419 21.603 8.89544C21.8315 8.84816 21.871 8.7221 21.9262 8.54084C22.0732 8.00362 22.3498 7.51068 22.7316 7.10522C23.1134 6.69975 23.5891 6.39418 24.1165 6.21525C24.644 6.03633 25.2072 5.98949 25.757 6.07894C26.3067 6.16838 26.8257 6.3913 27.2693 6.7282C27.8792 7.17957 28.3138 7.8286 28.4987 8.56451C28.5101 8.65039 28.5494 8.73009 28.6107 8.79135C28.672 8.85261 28.7518 8.89195 28.8377 8.90333C29.5347 9.06035 30.149 9.46913 30.5632 10.0512C30.9774 10.6333 31.1624 11.3477 31.0823 12.0576C31.0022 12.7675 30.663 13.4229 30.1295 13.8981C29.5961 14.3733 28.906 14.6349 28.1916 14.6327H25.1967ZM25.1967 13.4269H28.1916C28.4156 13.4344 28.6386 13.3964 28.8474 13.3151C29.0561 13.2338 29.2462 13.111 29.4061 12.954C29.566 12.7971 29.6923 12.6092 29.7774 12.402C29.8626 12.1948 29.905 11.9723 29.9017 11.7483C29.906 11.5215 29.8646 11.2962 29.7797 11.0859C29.6949 10.8755 29.5684 10.6843 29.408 10.5239C29.2476 10.3636 29.0566 10.2372 28.8462 10.1524C28.6358 10.0676 28.4103 10.0261 28.1836 10.0303C27.624 10.0303 27.4743 9.87268 27.3955 9.30526C27.3412 8.74835 27.0798 8.2322 26.6628 7.85915C26.2458 7.48611 25.7034 7.28343 25.144 7.29137C24.5845 7.29931 24.0487 7.51724 23.6424 7.90196C23.2361 8.28669 22.989 8.81005 22.9506 9.36827C22.9112 9.84113 22.7141 10.0146 22.1625 10.0303C21.9359 10.0262 21.7108 10.067 21.5002 10.1506C21.2896 10.2342 21.0978 10.3587 20.9357 10.5171C20.7737 10.6755 20.6447 10.8645 20.5563 11.0732C20.4679 11.2818 20.4218 11.5059 20.4208 11.7325C20.4185 11.9597 20.4624 12.1851 20.5497 12.3948C20.6371 12.6045 20.7663 12.7943 20.9292 12.9528C21.092 13.1112 21.2851 13.2349 21.4971 13.3164C21.7092 13.3979 21.9354 13.4355 22.1625 13.4269H25.1967Z" fill="#B7C55E"/>
<path d="M5.10952 10.6764C5.12196 9.74396 5.40978 8.83608 5.93686 8.06681C6.46394 7.29755 7.20673 6.70131 8.07178 6.35307C8.93682 6.00483 9.88547 5.92007 10.7985 6.10958C11.7116 6.29909 12.5482 6.75439 13.2032 7.41812C13.8582 8.08186 14.3022 8.92443 14.4796 9.83991C14.657 10.7554 14.5599 11.7028 14.2002 12.5632C13.8406 13.4236 13.2344 14.1584 12.4582 14.6752C11.682 15.1921 10.7706 15.4679 9.83804 15.468C8.5769 15.4555 7.37186 14.9447 6.48598 14.047C5.6001 13.1493 5.1053 11.9376 5.10952 10.6764ZM13.4395 10.7395C13.4499 10.0351 13.2523 9.3432 12.8711 8.75071C12.4899 8.15822 11.9422 7.69141 11.2969 7.40889C10.6515 7.12636 9.93702 7.04066 9.24313 7.16251C8.54924 7.28437 7.90655 7.60842 7.39605 8.09394C6.88555 8.57946 6.53011 9.20485 6.37362 9.89176C6.21713 10.5787 6.26657 11.2965 6.51638 11.9552C6.7662 12.6139 7.20515 13.1843 7.77778 13.5947C8.35042 14.0051 9.03123 14.2373 9.7353 14.2622C10.2113 14.2801 10.6862 14.2025 11.1318 14.0341C11.5774 13.8657 11.9849 13.6099 12.3301 13.2816C12.6752 12.9533 12.9511 12.5593 13.1416 12.1227C13.3322 11.6861 13.4335 11.2158 13.4395 10.7395Z" fill="#B7C55E"/>
<path d="M9.92388 33.515C9.80853 33.515 9.69577 33.4809 9.59987 33.4168C9.50396 33.3527 9.42928 33.2616 9.38514 33.155C9.341 33.0485 9.32955 32.9313 9.35205 32.8181C9.37455 32.705 9.4298 32.6011 9.51136 32.5195C9.59292 32.438 9.69685 32.3824 9.80997 32.3599C9.9231 32.3374 10.0405 32.349 10.1471 32.3931C10.2536 32.4372 10.3447 32.5119 10.4087 32.6078C10.4728 32.7037 10.5072 32.8165 10.5072 32.9318C10.5052 33.0859 10.443 33.233 10.3341 33.3419C10.2252 33.4509 10.0779 33.513 9.92388 33.515Z" fill="#B7C55E"/>
<path d="M6.27503 32.9637C6.2684 33.0794 6.22734 33.1905 6.15728 33.2828C6.08723 33.3751 5.99141 33.4445 5.88176 33.4821C5.77211 33.5196 5.65353 33.5236 5.54159 33.4936C5.42965 33.4636 5.32914 33.401 5.25298 33.3136C5.17682 33.2262 5.12854 33.1182 5.11407 33.0032C5.0996 32.8882 5.11965 32.7715 5.17179 32.668C5.22393 32.5645 5.30589 32.4788 5.40691 32.422C5.50792 32.3652 5.62347 32.3398 5.739 32.349C5.81498 32.3529 5.88954 32.3722 5.95795 32.4055C6.02636 32.4387 6.08728 32.4855 6.13727 32.5428C6.18727 32.6002 6.22522 32.667 6.24887 32.7393C6.27252 32.8116 6.28148 32.8879 6.27503 32.9637Z" fill="#B7C55E"/>
<path d="M14.6524 32.9241C14.6556 33.0419 14.6234 33.1581 14.5601 33.2575C14.4967 33.3569 14.405 33.4351 14.2969 33.482C14.1887 33.529 14.0691 33.5424 13.9532 33.5208C13.8373 33.4992 13.7305 33.4434 13.6465 33.3606C13.5626 33.2778 13.5054 33.1718 13.4822 33.0562C13.459 32.9406 13.4706 32.8207 13.5161 32.7119C13.5615 32.6031 13.6384 32.5104 13.737 32.4457C13.8355 32.381 13.9512 32.3472 14.0691 32.3488C14.1453 32.3477 14.2211 32.3619 14.2919 32.3903C14.3626 32.4188 14.4269 32.461 14.4812 32.5145C14.5354 32.568 14.5784 32.6318 14.6078 32.7021C14.6372 32.7724 14.6524 32.8478 14.6524 32.9241Z" fill="#B7C55E"/>
</svg>
