<svg xmlns="http://www.w3.org/2000/svg" viewBox="0 0 306.51 306.49"><defs><style>.cls-1{fill:#e8e8e8;}</style></defs><g id="Слой_2" data-name="Слой 2"><g id="Layer_1" data-name="Layer 1"><path class="cls-1" d="M306.5,153.39q0,64.05,0,128.09c0,12.65-7.65,22.15-19.7,24.62a29.11,29.11,0,0,1-5.76.37q-127.75,0-255.52,0C10.2,306.47,0,296.39,0,281.17Q0,153.25,0,25.32C0,10.1,10.19,0,25.48,0H281c15.43,0,25.47,10.09,25.48,25.62Q306.53,89.52,306.5,153.39Zm-296.6,84c1.54-1.05,2.42-1.63,3.28-2.25l78.41-56.76c3.93-2.85,5.4-2.82,9,.31,11,9.53,22.11,19,33,28.68,2.11,1.86,3.43,2.18,5.86.28,14-11,28.16-21.78,42.27-32.62,4.9-3.76,5.54-3.75,10.68-.21l100.88,69.46c.9.62,1.85,1.17,3.25,2v-4.18q0-107.48,0-214.95a36.64,36.64,0,0,0-.26-4.81c-.77-5.74-3.94-9.72-9.39-11.51a24.81,24.81,0,0,0-7.6-.93q-109.56-.08-219.14,0c-11.37,0-22.74-.18-34.1.12a21.85,21.85,0,0,0-9.74,2.48c-5.2,2.88-6.5,8.09-6.49,13.79q0,103.62,0,207.24Zm135.28,59.26c-.14-1.47-.16-2.43-.32-3.36-4.2-23.82-8.36-47.64-12.69-71.43a9.71,9.71,0,0,0-2.83-5c-4.71-4.39-9.66-8.5-14.53-12.71-6.31-5.46-12.63-10.91-18.84-16.27a4.83,4.83,0,0,0-.88.32q-41.81,30.26-83.57,60.58A4.47,4.47,0,0,0,10,251.9c-.11,10-.09,20-.05,29.93a14.47,14.47,0,0,0,3.92,10.25c3.34,3.53,7.58,4.55,12.27,4.55q57.92,0,115.85,0Zm-.82-80.19,6.67,5.8q41.82,36.22,83.69,72.4a7.72,7.72,0,0,0,4.48,1.9q20.91.21,41.83.06c9.8-.06,15.48-5.87,15.56-15.72.06-6.32-.11-12.65.08-19,.08-2.48-.84-3.84-2.82-5.19q-36.19-24.8-72.3-49.74c-11.37-7.84-22.75-15.67-34.25-23.58Zm77.29,80.19-77.39-67a18.43,18.43,0,0,0,0,2.76c3.53,20.1,7.2,40.19,10.51,60.33.57,3.45,1.91,4,4.93,3.95,19.29-.11,38.57-.05,57.86-.05Z"/><path class="cls-1" d="M207.19,119.73c-8.37,0-16.73,0-25.1,0-12.38-.07-23.06-9.33-24.28-21-1.39-13.27,6.34-24.36,19.18-27.14,1.95-.43,2.27-1.5,2.69-3a28.6,28.6,0,0,1,44.89-15.26,27.55,27.55,0,0,1,10.35,15.45,3.21,3.21,0,0,0,2.82,2.82,24.4,24.4,0,0,1,19.07,26.72c-1.26,12.19-11.69,21.3-24.53,21.37C223.91,119.77,215.55,119.73,207.19,119.73Zm.2-10.1c8.36,0,16.73.05,25.09,0s14.31-6,14.35-14.07-6-14.26-14.41-14.46c-4.65-.11-6-1.32-6.49-6-1.17-10.39-8.86-17.42-18.89-17.3s-17.56,7.47-18.39,17.82c-.32,3.94-2,5.4-6.35,5.51-8.38.2-14.59,6.28-14.62,14.33s6.14,14.14,14.62,14.2S199,109.63,207.39,109.63Z"/><path class="cls-1" d="M38.55,86.52c.2-22.27,18.21-40.18,40.18-39.94,22.46.25,39.92,18.27,39.74,41-.16,21.51-18.48,39.28-40.34,39.15A40.14,40.14,0,0,1,38.55,86.52Zm69.91.55c.28-16.36-12.88-30.17-29-30.41a30.17,30.17,0,0,0-31,29.78c-.35,15.9,13.1,29.92,28.95,30.18C94.71,116.91,108.17,104.11,108.46,87.07Z"/><path class="cls-1" d="M78.6,278.25a5,5,0,0,1-5.09-4.72,4.91,4.91,0,0,1,4.73-5.06,4.9,4.9,0,1,1,.36,9.78Z"/><path class="cls-1" d="M48.34,273.63a4.88,4.88,0,1,1-4.5-5.16A4.77,4.77,0,0,1,48.34,273.63Z"/><path class="cls-1" d="M118.47,273.3a4.94,4.94,0,1,1-4.89-4.83A4.79,4.79,0,0,1,118.47,273.3Z"/></g></g></svg>