<svg xmlns="http://www.w3.org/2000/svg" viewBox="0 0 40.08 30.28"><defs><style>.cls-1{fill:#f4c239;}</style></defs><g id="Слой_2" data-name="Слой 2"><g id="Layer_1" data-name="Layer 1"><path class="cls-1" d="M20.1,13.54l9.75-9.71C30.9,2.78,32,1.72,33,.68a1.59,1.59,0,0,1,2.58,0q1.94,1.92,3.86,3.87a1.57,1.57,0,0,1,0,2.52q-9.63,9.65-19.28,19.28s-.11.08-.16.12c0-.43,0-.86,0-1.28l0-11.37Z"/><path class="cls-1" d="M20,13.78l0,11.37c0,.42,0,.85,0,1.28a.16.16,0,0,1,0,.09l-3.12,3.06a1.61,1.61,0,0,1-2.66,0Q7.44,22.83.71,16.07a1.58,1.58,0,0,1,0-2.65c1.22-1.17,2.44-2.32,3.67-3.48a1.64,1.64,0,0,1,2.68,0L14,16.87c1.06,1.05,1.82,1,2.88,0Z"/></g></g></svg>