<svg xmlns="http://www.w3.org/2000/svg" viewBox="0 0 372.88 372.85"><defs><style>.cls-1{fill:#e8e8e8;}</style></defs><g id="Слой_2" data-name="Слой 2"><g id="Layer_1" data-name="Layer 1"><path class="cls-1" d="M372.87,186.61q0,77.91,0,155.82c0,15.4-9.31,26.95-24,29.95a35.52,35.52,0,0,1-7,.45q-155.43,0-310.86,0c-18.61,0-31-12.27-31-30.78Q0,186.44,0,30.81C0,12.28,12.4,0,31,0H341.86c18.78,0,31,12.28,31,31.17Q372.91,108.89,372.87,186.61ZM12,288.76c1.87-1.28,3-2,4-2.74l95.39-69c4.79-3.46,6.58-3.43,11,.38,13.44,11.59,26.9,23.15,40.21,34.89,2.57,2.26,4.17,2.66,7.12.34,17-13.38,34.26-26.49,51.43-39.68,6-4.58,6.74-4.57,13-.26l122.73,84.5c1.1.76,2.25,1.42,3.95,2.48v-5.08q0-130.76,0-261.5a43.93,43.93,0,0,0-.31-5.85c-.93-7-4.79-11.83-11.43-14a30,30,0,0,0-9.23-1.13Q206.54,12,73.25,12c-13.83,0-27.67-.22-41.49.14a26.67,26.67,0,0,0-11.85,3C13.59,18.68,12,25,12,32Q12.09,158,12,284.06Zm164.57,72.09c-.16-1.78-.19-3-.39-4.09-5.1-29-10.17-57.95-15.43-86.9a11.89,11.89,0,0,0-3.44-6.08c-5.73-5.33-11.76-10.34-17.68-15.46l-22.91-19.79a5.86,5.86,0,0,0-1.08.39Q64.82,265.73,14,302.62a5.41,5.41,0,0,0-1.89,3.83c-.14,12.13-.11,24.27-.06,36.4a17.59,17.59,0,0,0,4.76,12.48c4.07,4.3,9.23,5.53,14.93,5.53q70.47,0,140.94,0Zm-1-97.55,8.12,7.06q50.88,44.07,101.81,88.07a9.37,9.37,0,0,0,5.45,2.31q25.44.27,50.88.08c11.92-.08,18.84-7.14,18.94-19.12.07-7.7-.14-15.4.09-23.09.1-3-1-4.68-3.42-6.32q-44.06-30.17-88-60.52l-41.68-28.69Zm94,97.55L175.5,279.36a23.62,23.62,0,0,0,0,3.35c4.29,24.46,8.76,48.89,12.79,73.4.69,4.19,2.32,4.83,6,4.81,23.46-.14,46.92-.07,70.39-.07Z"/><path class="cls-1" d="M252.05,145.66c-10.18,0-20.35.05-30.53,0-15.06-.09-28.05-11.35-29.54-25.51-1.69-16.15,7.72-29.64,23.33-33,2.38-.51,2.77-1.82,3.28-3.62A34.79,34.79,0,0,1,273.2,64.93a33.51,33.51,0,0,1,12.59,18.79c.52,2,1.22,2.94,3.44,3.43a29.68,29.68,0,0,1,23.19,32.5c-1.53,14.84-14.22,25.92-29.84,26C272.4,145.7,262.23,145.66,252.05,145.66Zm.25-12.3c10.17,0,20.35.07,30.52,0s17.42-7.31,17.46-17.11c.05-10-7.3-17.35-17.53-17.59-5.66-.14-7.25-1.61-7.89-7.34-1.43-12.63-10.78-21.19-23-21s-21.36,9.09-22.37,21.68c-.38,4.79-2.44,6.58-7.73,6.7-10.19.25-17.74,7.65-17.78,17.44s7.48,17.21,17.78,17.28S242.12,133.36,252.3,133.36Z"/><path class="cls-1" d="M72.38,149.35c-6.15,0-12.3,0-18.45,0-9.11-.06-17-6.86-17.86-15.42-1-9.77,4.66-17.92,14.1-20,1.44-.31,1.68-1.1,2-2.19a21,21,0,0,1,33-11.22,20.2,20.2,0,0,1,7.61,11.36A2.37,2.37,0,0,0,94.86,114a18,18,0,0,1,14,19.65c-.93,9-8.59,15.67-18,15.72C84.69,149.37,78.53,149.35,72.38,149.35Zm.15-7.44c6.15,0,12.31,0,18.46,0s10.52-4.42,10.55-10.35-4.41-10.49-10.6-10.63c-3.42-.08-4.38-1-4.77-4.44-.86-7.64-6.52-12.81-13.9-12.72s-12.91,5.49-13.52,13.1c-.23,2.9-1.48,4-4.67,4-6.17.15-10.73,4.62-10.75,10.54s4.52,10.41,10.75,10.45S66.38,141.91,72.53,141.91Z"/><path class="cls-1" d="M95.62,338.51a6.06,6.06,0,0,1-6.2-5.75,6.1,6.1,0,0,1,12.19-.24A6.08,6.08,0,0,1,95.62,338.51Z"/><path class="cls-1" d="M58.8,332.89a5.94,5.94,0,1,1-5.47-6.28A5.79,5.79,0,0,1,58.8,332.89Z"/><path class="cls-1" d="M144.12,332.48a6,6,0,1,1-5.94-5.87A5.82,5.82,0,0,1,144.12,332.48Z"/><path class="cls-1" d="M302.31,223.44c-6.16,0-12.31,0-18.46,0-9.11-.06-17-6.87-17.86-15.43-1-9.76,4.67-17.91,14.11-20,1.43-.31,1.67-1.1,2-2.19a21,21,0,0,1,33-11.22A20.2,20.2,0,0,1,322.7,186a2.37,2.37,0,0,0,2.08,2.07,17.94,17.94,0,0,1,14,19.65c-.92,9-8.59,15.67-18,15.72C314.61,223.46,308.46,223.43,302.31,223.44Zm.15-7.44c6.15,0,12.3,0,18.45,0s10.53-4.42,10.56-10.35-4.42-10.49-10.6-10.64c-3.42-.08-4.38-1-4.78-4.43-.86-7.64-6.51-12.81-13.89-12.72s-12.92,5.49-13.53,13.1c-.23,2.9-1.47,4-4.67,4.05-6.16.15-10.73,4.62-10.75,10.54S277.77,216,284,216,296.3,216,302.46,216Z"/></g></g></svg>