<svg width="44" height="49" viewBox="0 0 44 49" fill="none" xmlns="http://www.w3.org/2000/svg">
<path d="M11.9841 0.443054H43.0772V37.3206H37.447V42.9508H31.8168V48.6655H0.766357V11.7316H6.39653V6.1014H12.0267L11.9841 0.443054ZM28.8746 45.8645V23.034H20.4293V14.5888H3.53883V45.8363L28.8746 45.8645ZM34.5048 8.95858H9.0989V11.7737H24.7929C24.9303 11.7669 25.0675 11.7914 25.1942 11.845C25.321 11.8986 25.4339 11.9801 25.5248 12.0835C27.4531 14.0259 29.4098 15.9824 31.3522 17.9107C31.4665 18.0124 31.5563 18.1387 31.6148 18.2801C31.6733 18.4215 31.6987 18.5743 31.6897 18.727V40.1216H34.5048V8.95858ZM37.3199 6.1435V34.4773H40.1349V3.3425H14.7992V6.15759L37.3199 6.1435ZM28.7901 20.2189C28.8494 19.9998 28.8457 19.7684 28.7784 19.5516C28.7111 19.3347 28.583 19.1414 28.41 18.9944C27.0306 17.6713 25.6795 16.32 24.3564 14.9406C24.2121 14.7862 24.028 14.6744 23.8245 14.6173C23.621 14.5602 23.4061 14.56 23.2025 14.6169V20.2471L28.7901 20.2189Z" fill="#73C17B"/>
</svg>
