<svg width="23" height="26" viewBox="0 0 23 26" fill="none" xmlns="http://www.w3.org/2000/svg">
<path d="M1.50404 1.34023V4.30422H19.3074L19.6282 1.34023H1.50404ZM4.90733 22.5683L5.15637 25.1991H15.8738L16.1686 22.5683H4.90733Z" fill="#D0CFCE"/>
<path d="M14.9617 25.3022H18.609L18.8655 22.4478H15.2605L14.9617 25.3022ZM22.1503 1.44977H18.37L18.0572 4.24542H22.1503V1.44977Z" fill="#9B9B9A"/>
<path d="M4.64405 20.4286L2.84752 6.29297M21.022 6.27852L19.1508 20.4211M14.2049 6.33132L18.2757 11.322M9.14508 6.35174L17.6879 16.6328M5.12817 7.40914L16.0179 20.4445M5.90018 13.756L11.8899 20.5467M6.60494 19.932L7.28381 20.6079M5.56448 10.8861L9.84039 6.33829M6.25281 16.1896L15.339 6.35174M7.38591 20.5467L18.5909 8.63538M12.2117 20.5467L17.9609 14.5967M16.0179 20.6079L17.0773 19.7149M1.41907 1.32027H22.3603V4.28177H1.41907V1.32027Z" stroke="black" stroke-width="0.996134" stroke-miterlimit="10" stroke-linecap="round" stroke-linejoin="round"/>
<path d="M15.3388 22.4263H18.9603" stroke="black" stroke-width="0.498067" stroke-miterlimit="10"/>
<path d="M18.9603 22.4263L18.6077 25.1966H5.16687L4.82768 22.4263H18.9603Z" stroke="black" stroke-width="0.996134" stroke-miterlimit="10" stroke-linecap="round" stroke-linejoin="round"/>
</svg>
