<svg width="28" height="29" viewBox="0 0 28 29" fill="none" xmlns="http://www.w3.org/2000/svg">
<path d="M27.8001 27.3501C27.7701 27.4001 27.74 27.4498 27.71 27.5098C27.39 28.1998 26.58 28.3801 26 27.8901C25.92 27.8201 25.84 27.7399 25.77 27.6699C21.93 23.8299 18.09 19.9899 14.26 16.1499C14.19 16.0799 14.1301 15.9801 14.0601 15.8701C13.9301 16.0001 13.85 16.0701 13.77 16.1401C9.91003 20.0001 6.05996 23.85 2.19996 27.71C1.85996 28.05 1.49001 28.2501 1.00001 28.1001C0.280006 27.8801 -0.0100527 27.0402 0.439947 26.4302C0.519947 26.3202 0.619967 26.2299 0.709967 26.1299C4.54997 22.2899 8.38998 18.4501 12.22 14.6201C12.3 14.5401 12.38 14.4801 12.49 14.3901C12.39 14.2901 12.32 14.2101 12.25 14.1401C8.39001 10.2801 4.52004 6.4098 0.66004 2.5498C0.22004 2.1098 0.120065 1.68021 0.310065 1.22021C0.450065 0.890215 0.730035 0.730078 1.03004 0.580078C1.21004 0.580078 1.38995 0.580078 1.56995 0.580078C1.84995 0.800078 2.15003 0.98998 2.40003 1.22998C6.19003 5.00998 9.98002 8.79984 13.76 12.5898C13.83 12.6598 13.8799 12.7699 13.9399 12.8599C13.9799 12.8599 14.0201 12.8599 14.0601 12.8599C14.1201 12.7699 14.17 12.6701 14.24 12.6001C18.03 8.8101 21.81 5.02023 25.6 1.24023C25.85 0.990234 26.1501 0.799844 26.4301 0.589844C26.6101 0.589844 26.79 0.589844 26.97 0.589844C27.35 0.749844 27.62 1.0199 27.78 1.3999V1.93994C27.56 2.21994 27.37 2.52002 27.13 2.77002C23.35 6.56002 19.56 10.3499 15.77 14.1299C15.7 14.1999 15.59 14.2501 15.45 14.3501C15.61 14.4801 15.7 14.5399 15.77 14.6099C19.56 18.3999 23.35 22.18 27.13 25.98C27.38 26.23 27.57 26.5301 27.78 26.8101V27.3501H27.8001Z" fill="white"/>
</svg>
