<svg width="100" height="102" viewBox="0 0 100 102" fill="none" xmlns="http://www.w3.org/2000/svg">
<path d="M70.502 64.0568L74.8474 68.4023C82.5823 76.1371 90.2773 83.8724 98.0556 91.5638C98.8653 92.281 99.4543 93.2108 99.7616 94.2479C100.069 95.2849 100.08 96.3881 99.7913 97.4306C99.5391 98.2951 99.0814 99.0853 98.4588 99.7359C97.8361 100.387 97.0665 100.878 96.2139 101.168C95.3613 101.458 94.4518 101.538 93.5617 101.402C92.6715 101.265 91.8272 100.917 91.1004 100.385C90.6202 99.9997 90.1718 99.5783 89.7552 99.1248C81.0643 90.434 72.3734 81.7431 63.6825 73.0522C63.3033 72.6593 62.9537 72.2378 62.6386 71.7918C57.7375 75.4816 52.0384 77.9668 45.9994 79.0463C39.9604 80.1257 33.7509 79.7699 27.875 78.0066C18.9919 75.4325 11.3549 69.6976 6.40667 61.8841C1.27939 54.0666 -0.878138 44.6709 0.325592 35.3998C1.52932 26.1287 6.01789 17.5961 12.9715 11.3471C20.1003 4.27407 29.6745 0.213688 39.7147 0.00819754C49.7548 -0.197293 59.4912 3.46728 66.9034 10.2427C74.3156 17.0181 78.8376 26.3852 79.5323 36.4034C80.2271 46.4216 77.0395 56.3231 70.6335 64.0568H70.502ZM39.129 68.4023C44.662 68.3937 50.0685 66.7456 54.6649 63.6653C59.2612 60.5851 62.8399 56.2111 64.9513 51.0969C67.0628 45.9826 67.6104 40.3576 66.5257 34.9319C65.441 29.5063 62.773 24.5234 58.8575 20.614C54.9421 16.7047 49.9584 14.0444 44.5311 12.9681C39.1038 11.8919 33.4783 12.4486 28.3673 14.568C23.2563 16.6873 18.8878 20.2735 15.8147 24.8746C12.7416 29.4757 11.1001 34.8849 11.1001 40.4179C11.0769 44.103 11.787 47.7562 13.1879 51.1648C14.5888 54.5733 16.6527 57.6698 19.2605 60.2736C21.8684 62.8775 24.9693 64.9368 28.38 66.3324C31.7907 67.728 35.444 68.4311 39.129 68.4023V68.4023Z" fill="#707071"/>
</svg>
