<svg width="65" height="62" viewBox="0 0 65 62" fill="none" xmlns="http://www.w3.org/2000/svg">
<path d="M64.0229 8.54546C63.4724 10.534 62.3233 12.3051 60.7318 13.6183C52.8165 21.4731 44.9375 29.3521 37.0948 37.2553C36.0489 38.3616 34.6306 39.0417 33.113 39.1644C31.7675 39.2917 30.4039 39.5099 29.0584 39.7281C28.5415 39.8334 28.0073 39.8158 27.4985 39.6765C26.9897 39.5372 26.5207 39.2802 26.1295 38.9262C25.7384 38.5723 25.4363 38.1312 25.2471 37.6388C25.0578 37.1464 24.9868 36.6164 25.0402 36.0916C25.2402 34.1825 25.5315 32.2734 25.8952 30.3824C26.0295 29.6982 26.3577 29.0671 26.8407 28.5642C35.3864 19.9579 43.9556 11.3819 52.5498 2.83625C53.3459 1.9589 54.3806 1.33195 55.5266 1.03172C56.6726 0.731497 57.881 0.770913 59.005 1.14525C60.2099 1.48777 61.2996 2.15058 62.1576 3.06308C63.0157 3.97558 63.6103 5.10362 63.8782 6.32721C63.9157 6.4643 63.9636 6.59809 64.0229 6.72723V8.54546ZM28.4041 36.4189C30.0041 36.2008 31.5129 35.9462 33.0402 35.7826C33.6303 35.7126 34.1746 35.4278 34.5681 34.9825L59.0592 10.4728C59.3379 10.2244 59.5994 9.95706 59.8414 9.67275C60.1667 9.33577 60.4048 8.92438 60.5347 8.47438C60.6647 8.02437 60.6827 7.54942 60.5871 7.0909C60.4607 6.44316 60.16 5.84203 59.7179 5.35196C59.2759 4.86189 58.7086 4.50137 58.0773 4.30901C57.4871 4.12904 56.8568 4.12982 56.267 4.31128C55.6773 4.49274 55.1554 4.84658 54.7684 5.32721L29.4952 30.6006C29.3216 30.7457 29.2004 30.9437 29.1499 31.1642C28.8771 32.9825 28.6587 34.6189 28.4041 36.4189Z" fill="#484848"/>
<path d="M3.60213 7.52696V57.7282H60.5496V29.7821C60.5412 29.4514 60.578 29.1211 60.6588 28.8003C60.7749 28.4364 61.0113 28.1231 61.33 27.9126C61.6487 27.7021 62.0302 27.607 62.4105 27.6431C62.7907 27.6792 63.1474 27.8444 63.4208 28.1111C63.6942 28.3779 63.8672 28.7301 63.9127 29.1093C63.9127 29.2548 63.9127 29.4002 63.9127 29.5457V57.6374C63.9583 58.4135 63.7278 59.1807 63.2619 59.8031C62.796 60.4254 62.1249 60.8627 61.3673 61.0374C61.0457 61.1122 60.7153 61.1428 60.3854 61.1284H3.74773C3.25756 61.1798 2.76253 61.1211 2.29795 60.9565C1.83336 60.792 1.41152 60.5257 1.06301 60.1772C0.714495 59.8287 0.448073 59.4067 0.283511 58.9422C0.118949 58.4776 0.0598397 57.9821 0.111276 57.4919V7.7088C0.0623131 7.22856 0.118919 6.74342 0.277296 6.28742C0.435674 5.83142 0.692281 5.41556 1.02838 5.06907C1.36448 4.72257 1.7724 4.45383 2.22337 4.28164C2.67434 4.10945 3.15703 4.03802 3.63853 4.07234H31.6755C32.8573 4.07234 33.4943 4.65418 33.6216 5.61784C33.6796 6.03392 33.5736 6.45626 33.3259 6.79558C33.0782 7.13489 32.7083 7.36458 32.2943 7.43607C32.0101 7.4638 31.7235 7.4638 31.4393 7.43607H3.49293L3.60213 7.52696Z" fill="#484848"/>
</svg>
