<svg width="70" height="70" viewBox="0 0 70 70" fill="none" xmlns="http://www.w3.org/2000/svg">
<path d="M36.931 69.1862H32.3127C32.1234 69.1246 31.9288 69.082 31.7312 69.0589C30.5129 68.8953 29.2766 68.8044 28.0947 68.568C19.8436 67.0236 12.4503 62.4923 7.32978 55.8404C3.84614 51.4419 1.53757 46.2301 0.620619 40.6946C0.420614 39.4582 0.275085 38.2218 0.0932617 37.0581V32.2762C0.202355 31.4398 0.27583 30.6034 0.403106 29.7488C1.27788 23.1845 4.08058 17.0274 8.45729 12.0575C12.181 7.63065 16.978 4.23297 22.3897 2.18927C27.8013 0.145569 33.6468 -0.475838 39.3672 0.384443C45.9312 1.15342 52.0945 3.94264 57.0044 8.36647C61.7025 12.2699 65.2505 17.3776 67.2683 23.1428C69.2861 28.908 69.6973 35.1134 68.4589 41.0946C67.1384 47.9614 63.7654 54.2658 58.7853 59.1745C53.8052 64.0832 47.4527 67.365 40.5675 68.5862C39.4038 68.7862 38.1674 68.9317 36.931 69.1862ZM57.6773 54.4768C61.4907 50.0647 63.9562 44.65 64.7807 38.8769C65.6052 33.1037 64.7536 27.2153 62.3277 21.9121C59.9018 16.609 56.0038 12.1143 51.0969 8.96302C46.19 5.81171 40.4811 4.1364 34.6494 4.1364C28.8177 4.1364 23.1088 5.81171 18.2019 8.96302C13.2949 12.1143 9.39612 16.609 6.97022 21.9121C4.54432 27.2153 3.69359 33.1037 4.51809 38.8769C5.34259 44.65 7.80803 50.0647 11.6214 54.4768C12.5579 50.7507 14.3932 47.3108 16.9669 44.4583C19.5605 41.5859 22.8106 39.3837 26.4398 38.04C24.7862 36.9139 23.3826 35.4588 22.3169 33.7657C21.2511 32.0725 20.5458 30.1777 20.2456 28.1997C19.9454 26.2217 20.0561 24.2031 20.5714 22.2699C21.0868 20.3368 21.996 18.5307 23.2411 16.9647C24.4861 15.3987 26.0407 14.1063 27.8079 13.1684C29.5751 12.2305 31.5164 11.6673 33.5112 11.5139C35.506 11.3605 37.5111 11.6202 39.4009 12.2769C41.2907 12.9336 43.0253 13.973 44.4952 15.3303C45.9396 16.6235 47.0986 18.2029 47.8999 19.9683C48.7012 21.7337 49.1265 23.6465 49.1491 25.5851C49.2202 28.0176 48.6799 30.4291 47.5776 32.5987C46.4754 34.7683 44.8468 36.6267 42.8403 38.0036C46.4594 39.3431 49.7041 41.5317 52.3017 44.3856C54.8993 47.2395 56.7738 50.6752 57.7679 54.404L57.6773 54.4768ZM35.4582 65.1316C36.3673 65.0225 38.1313 64.9316 39.8404 64.6407C44.9567 63.7867 49.7586 61.6048 53.7674 58.3132C53.8684 58.2108 53.9472 58.0882 53.9974 57.9535C54.0475 57.8187 54.0681 57.6748 54.0586 57.5314C53.5949 53.9522 52.1115 50.5818 49.7856 47.822C48.1521 45.7963 46.1229 44.1244 43.8222 42.9084C41.5215 41.6924 38.9976 40.9577 36.4037 40.7491C31.6618 40.2407 26.9024 41.5392 23.0759 44.3856C20.9325 45.9175 19.1259 47.873 17.7686 50.131C16.4113 52.389 15.5323 54.9016 15.1851 57.5132C15.1825 57.645 15.207 57.776 15.257 57.8979C15.307 58.0199 15.3819 58.1303 15.4763 58.2223C21.1278 62.7766 28.2013 65.1968 35.4582 65.0588V65.1316ZM45.0403 25.9124C45.0475 23.8343 44.4378 21.801 43.2877 20.0702C42.1377 18.3393 40.4991 16.989 38.5806 16.1904C36.6621 15.3919 34.55 15.1811 32.5115 15.5847C30.4731 15.9883 28.5999 16.9883 27.1305 18.4577C25.6611 19.9271 24.6612 21.7998 24.2576 23.8383C23.854 25.8767 24.0654 27.9891 24.864 29.9076C25.6625 31.8261 27.012 33.4642 28.7428 34.6143C30.4736 35.7643 32.5074 36.3744 34.5855 36.3672C37.3494 36.3388 39.9926 35.2282 41.9472 33.2736C43.9017 31.3191 45.0119 28.6764 45.0403 25.9124Z" fill="#484848"/>
</svg>
