<svg width="27" height="39" viewBox="0 0 27 39" fill="none" xmlns="http://www.w3.org/2000/svg">
<path d="M5.4134 20.9606H2.0872C1.85107 20.9793 1.61372 20.949 1.38989 20.8715C1.16607 20.7941 0.960871 20.6712 0.78689 20.5106C0.61291 20.35 0.474254 20.1551 0.3793 19.9383C0.284347 19.7215 0.235229 19.4873 0.235229 19.2507C0.235229 19.014 0.284347 18.7799 0.3793 18.5631C0.474254 18.3463 0.61291 18.1514 0.78689 17.9908C0.960871 17.8302 1.16607 17.7074 1.38989 17.6299C1.61372 17.5525 1.85107 17.5221 2.0872 17.5408H5.43488V2.33952C5.39908 2.07677 5.4247 1.80932 5.5098 1.55815C5.5949 1.30698 5.73706 1.07892 5.92525 0.891933C6.11344 0.704944 6.34293 0.564142 6.59479 0.480504C6.84664 0.396865 7.11418 0.372741 7.37696 0.409969H15.7457C18.362 0.39475 20.8859 1.377 22.8025 3.15649C24.7192 4.93598 25.8846 7.37874 26.0611 9.98695C26.2376 12.5952 25.4118 15.1724 23.7523 17.1935C22.0929 19.2146 19.7244 20.5273 17.1298 20.864C16.6173 20.9282 16.1013 20.9605 15.5848 20.9606H8.90045V26.0848H9.41543H13.8575C14.094 26.0656 14.3319 26.0954 14.5564 26.1722C14.7809 26.249 14.9874 26.3711 15.1626 26.531C15.3377 26.6909 15.4776 26.8852 15.5743 27.1017C15.671 27.3182 15.7225 27.5523 15.7247 27.7894C15.7267 28.0258 15.6798 28.26 15.5869 28.4774C15.494 28.6949 15.3568 28.8909 15.1846 29.053C15.0123 29.215 14.8086 29.3397 14.5857 29.4193C14.3629 29.4988 14.1256 29.5316 13.8895 29.5153H8.85749V30.1907C8.85749 32.2275 8.85749 34.2536 8.85749 36.2904C8.8762 36.5263 8.84594 36.7636 8.76842 36.9873C8.69091 37.2109 8.5682 37.416 8.40746 37.5899C8.24672 37.7637 8.05132 37.9024 7.83432 37.9972C7.61732 38.0921 7.38331 38.1412 7.14645 38.1412C6.90958 38.1412 6.67505 38.0921 6.45805 37.9972C6.24105 37.9024 6.04617 37.7637 5.88543 37.5899C5.72469 37.416 5.60146 37.2109 5.52394 36.9873C5.44643 36.7636 5.41617 36.5263 5.43488 36.2904V29.526H1.94784C1.72569 29.5219 1.50642 29.4737 1.30293 29.3846C1.09944 29.2954 0.915849 29.1671 0.762267 29.0067C0.608686 28.8462 0.488205 28.6569 0.408115 28.4498C0.328025 28.2428 0.289777 28.0219 0.295477 27.8C0.292643 27.5809 0.33329 27.3634 0.414925 27.1601C0.496561 26.9567 0.617599 26.7715 0.771174 26.615C0.924748 26.4586 1.1078 26.3341 1.30974 26.2486C1.51168 26.1631 1.72853 26.1184 1.94784 26.117C3.08515 26.117 4.23343 26.117 5.40293 26.117L5.4134 20.9606ZM8.87897 17.4551C8.94334 17.4551 8.95443 17.5301 8.97589 17.5301C11.5617 17.5301 14.1581 17.6159 16.7332 17.4122C18.4402 17.1845 19.9958 16.3144 21.0826 14.9796C22.1693 13.6447 22.7049 11.9459 22.5804 10.2297C22.4673 8.45823 21.6728 6.79922 20.3627 5.60021C19.0527 4.4012 17.3289 3.75521 15.5529 3.79759H8.87897V17.4551Z" fill="#73C17B"/>
</svg>
