<svg xmlns="http://www.w3.org/2000/svg" viewBox="0 0 103.94 109.49"><defs><style>.cls-1{fill:#0b0808;}.cls-2{fill:#94bae2;}.cls-3{fill:#6ba0d5;}.cls-4{fill:#db9e82;}.cls-5{fill:#5d5970;}.cls-6{fill:#504c60;}.cls-7{fill:#5d596f;}.cls-8{fill:#d6d6d6;}.cls-9{fill:#c6856a;}.cls-10{fill:#c5846a;}.cls-11{fill:#130c08;}.cls-12{fill:#020505;}.cls-13{fill:#6dc8bf;}.cls-14{fill:#44bdaa;}</style></defs><g id="Слой_2" data-name="Слой 2"><g id="Layer_1" data-name="Layer 1"><path class="cls-1" d="M21,92.23c-1-.93-1.1-1.39-.43-2.59a34.23,34.23,0,0,1,7.06-8.78c.42-.38.85-.75,1.35-1.18a42.68,42.68,0,0,1-5.06-3.54,35,35,0,0,1-9.59-12.38c-.35-.75-.84-.72-1.44-.67A11.49,11.49,0,0,1,1,54.08a11,11,0,0,1,.68-7,2.1,2.1,0,0,0,.11-1.42A50.8,50.8,0,0,1,0,31.22c.21-4.74,1.32-9.2,4.33-13s7-5.75,11.69-6.62A4.76,4.76,0,0,0,19.75,8.7,14.15,14.15,0,0,1,30.59.19c.08,0,.15-.12.22-.19H59c1.37.41,2.81.49,4.18.94,5.94,1.92,9.46,6.16,11.42,11.88a45.14,45.14,0,0,1,2.13,14.27,4.57,4.57,0,0,0,.78,2.68,23.17,23.17,0,0,1,2.57,5.12c.32.93.79,1.12,1.69,1.12,3.56,0,7.12-.19,10.68.12a13,13,0,0,1,4.6,24.36c-.5.28-.71.49-.55,1.13a9.58,9.58,0,0,1-.78,6.73,61.77,61.77,0,0,1-8.16,12.58,1.76,1.76,0,0,1-2.45.46c-.82-1.18-.79-1.61.11-2.74s1.6-2.1,2.44-3.11c.44-.54.39-.81-.23-1.18-3.21-2-6.41-4-9.58-6-.75-.48-1-.28-1.46.36a35,35,0,0,1-6.82,7.46,44.23,44.23,0,0,1-5.29,3.65,34.73,34.73,0,0,1,4.49,4.41,32.12,32.12,0,0,1,3.61,5.14c.32.56.57.31.9.08a59.76,59.76,0,0,0,7-5.59A1.78,1.78,0,0,1,83,83.64a1.75,1.75,0,0,1-.42,2.54,61.36,61.36,0,0,1-7.61,6,1,1,0,0,0-.48,1.5,36.1,36.1,0,0,1,2.67,13.82c0,1.39-.55,2-1.91,2H17.78c-1.29,0-1.92-.6-1.9-1.88a39,39,0,0,1,1.71-11.24,1.68,1.68,0,0,1,2-1.3,1.72,1.72,0,0,1,1,2.43,34.11,34.11,0,0,0-1.42,8c0,.62,0,.88.76.86,1.71-.06,3.42,0,5.13,0,.65,0,.85-.15.83-.82,0-2.21,0-4.42,0-6.62a2.16,2.16,0,0,1,.46-1.6A1.47,1.47,0,0,1,28,96.76a1.59,1.59,0,0,1,1.15,1.62c0,2.28,0,4.56,0,6.84,0,.79.13,1.14,1,1.08a28.93,28.93,0,0,1,3.95,0c.86,0,1-.26,1-1,0-7,0-14,0-21,0-1.76,0-1.69-1.63-2.46a1.94,1.94,0,0,0-2.36.35,32.62,32.62,0,0,0-7.72,9C22.67,92.39,22.28,92.55,21,92.23Zm3-64.46a23.24,23.24,0,0,1,3.91-.39H71.72c1.82,0,1.82,0,1.69-1.86a4.61,4.61,0,0,1,0-.53,36.89,36.89,0,0,0-1.34-9.47,17.35,17.35,0,0,0-5-8.78,14.57,14.57,0,0,0-9.74-3.49c-5.56-.14-11.12,0-16.67,0-3.17,0-6.34-.3-9.49.18a10.18,10.18,0,0,0-8.13,6A9,9,0,0,1,15.92,15a14.28,14.28,0,0,0-9.27,5.6c-2.48,3.34-3.18,7.22-3.41,11.24a34.27,34.27,0,0,0,.46,6.79A22.72,22.72,0,0,0,4.56,43a10.46,10.46,0,0,1,5.69-2.67c1.27-.12,1.63-.64,2-1.7A15.6,15.6,0,0,1,24,27.77Zm-1.3,3.87a11.72,11.72,0,0,0-7.46,8.3,31.93,31.93,0,0,0,2.29,23A31,31,0,0,0,29.76,76.28a10.29,10.29,0,0,0,1,.64,31.79,31.79,0,0,0,19.74,3.93C62,79.37,70.49,73.43,76,63.18c.6-1.13.58-1.14-.7-1.14-9.19,0-18.39.06-27.58,0A12.92,12.92,0,0,1,36.12,43.69C38.52,38.53,42.76,36,48.4,36c9.12,0,18.24,0,27.36,0h1.29a32.43,32.43,0,0,0-2.27-4.57,1.27,1.27,0,0,0-1.27-.73q-23.09,0-46.18,0A9.73,9.73,0,0,0,22.68,31.64Zm55,27.16c4.35,0,8.7,0,13,0a9.45,9.45,0,0,0,7.48-3.27A9.26,9.26,0,0,0,99.91,45.3a9,9,0,0,0-8.61-5.94c-9.15-.1-18.31-.06-27.46,0a9.64,9.64,0,0,0-9.3,9.34,9.75,9.75,0,0,0,10,10.11Q71.08,58.82,77.65,58.8ZM54.77,83.51c-.39,0-.71.06-1,.13a35.63,35.63,0,0,1-14.4-.09c-1-.22-1.08.06-1.07.91q0,10.37,0,20.72c0,.86.16,1.13,1.08,1.12q7.16-.08,14.32,0c.86,0,1.12-.16,1.11-1.08,0-6.59,0-13.18,0-19.76ZM66,106.28c2.42,0,4.84,0,7.26,0,.55,0,.75-.12.65-.72-.15-.91-.19-1.84-.31-2.75A31.85,31.85,0,0,0,63.2,83.09c-1.4-1.28-2.64-1.91-4.43-.83-.51.31-.8.48-.8,1.13q0,11,0,22c0,.81.29.91,1,.9C61.3,106.25,63.65,106.28,66,106.28ZM55.51,58.84c-5.67-6.54-5.67-13-.16-19.51H48.28a12.29,12.29,0,0,0-1.92.08,9.74,9.74,0,0,0-.23,19.18C49.2,59.11,52.3,58.65,55.51,58.84ZM86.72,62V62a28.77,28.77,0,0,1-4,0c-2-.29-3.15.37-3.63,2.3a.69.69,0,0,1-.1.19c-.27.41-.17.66.26.92q5.11,3.16,10.21,6.38c.44.28.63.22.9-.23.94-1.59,1.84-3.2,2.63-4.87a7.38,7.38,0,0,0,.52-4c-.06-.53-.23-.78-.87-.76C90.63,62,88.67,62,86.72,62ZM11.17,43.45A8.28,8.28,0,0,0,4.1,53.1c.67,4,4.82,7.25,8.55,6.66A37.42,37.42,0,0,1,11.17,43.45Z"/><path class="cls-2" d="M21,92.23c1.33.32,1.72.16,2.43-1.08a32.62,32.62,0,0,1,7.72-9,1.94,1.94,0,0,1,2.36-.35c1.59.77,1.63.7,1.63,2.46,0,7,0,14,0,21,0,.76-.1,1.07-1,1a28.93,28.93,0,0,0-3.95,0c-.9.06-1-.29-1-1.08.05-2.28,0-4.56,0-6.84A1.59,1.59,0,0,0,28,96.76a1.47,1.47,0,0,0-1.63.49,2.16,2.16,0,0,0-.46,1.6c0,2.2,0,4.41,0,6.62,0,.67-.18.84-.83.82-1.71,0-3.42-.05-5.13,0-.72,0-.8-.24-.76-.86a34.11,34.11,0,0,1,1.42-8,1.72,1.72,0,0,0-1-2.43A16.24,16.24,0,0,0,21,92.23Z"/><path class="cls-3" d="M83,83.64a1.78,1.78,0,0,0-2.73.23,59.76,59.76,0,0,1-7,5.59c-.33.23-.58.48-.9-.08a32.12,32.12,0,0,0-3.61-5.14,34.73,34.73,0,0,0-4.49-4.41,44.23,44.23,0,0,0,5.29-3.65,35,35,0,0,0,6.82-7.46c.43-.64.71-.84,1.46-.36,3.17,2,6.37,4,9.58,6,.62.37.67.64.23,1.18-.84,1-1.62,2.08-2.44,3.11s-.93,1.56-.11,2.74A12.46,12.46,0,0,0,83,83.64Z"/><path class="cls-4" d="M22.68,31.64a9.73,9.73,0,0,1,4.65-.93q23.1,0,46.18,0a1.27,1.27,0,0,1,1.27.73A32.43,32.43,0,0,1,77.05,36H75.76c-9.12,0-18.24,0-27.36,0-5.64,0-9.88,2.52-12.28,7.68A12.92,12.92,0,0,0,47.68,62c9.19.09,18.39,0,27.58,0,1.28,0,1.3,0,.7,1.14C70.49,73.43,62,79.37,50.48,80.85a31.79,31.79,0,0,1-19.74-3.93,10.29,10.29,0,0,1-1-.64A18.6,18.6,0,0,0,27.93,73a58.31,58.31,0,0,1-7-27.54c0-1.25.21-2.47.25-3.71a41.14,41.14,0,0,1,.53-5C22,35,22.37,33.35,22.68,31.64ZM50.5,70.75a7.38,7.38,0,0,0,5.29-2.27A1.59,1.59,0,0,0,56,66a1.63,1.63,0,0,0-2.45.14,4,4,0,0,1-5.89,0A1.65,1.65,0,0,0,45.16,66a1.69,1.69,0,0,0,.23,2.53A7.48,7.48,0,0,0,50.5,70.75Z"/><path class="cls-5" d="M40.66,3.25c5.55,0,11.11-.13,16.67,0a14.57,14.57,0,0,1,9.74,3.49,17.35,17.35,0,0,1,5,8.78A36.89,36.89,0,0,1,73.39,25a4.61,4.61,0,0,0,0,.53c.13,1.86.13,1.86-1.69,1.86H27.89a23.24,23.24,0,0,0-3.91.39,3.09,3.09,0,0,1,.1-.62A51.06,51.06,0,0,1,31.45,13,44.28,44.28,0,0,1,38,5.73,11,11,0,0,0,40.66,3.25Z"/><path class="cls-6" d="M40.66,3.25A11,11,0,0,1,38,5.73,44.28,44.28,0,0,0,31.45,13a51.06,51.06,0,0,0-7.37,14.18,3.09,3.09,0,0,0-.1.62A15.6,15.6,0,0,0,12.24,38.59c-.36,1.06-.72,1.58-2,1.7A10.46,10.46,0,0,0,4.56,43a22.72,22.72,0,0,1-.86-4.33,34.27,34.27,0,0,1-.46-6.79c.23-4,.93-7.9,3.41-11.24A14.28,14.28,0,0,1,15.92,15,9,9,0,0,0,23,9.45a10.18,10.18,0,0,1,8.13-6C34.32,3,37.49,3.25,40.66,3.25Z"/><path class="cls-7" d="M77.65,58.81H64.51a9.75,9.75,0,0,1-10-10.11,9.64,9.64,0,0,1,9.3-9.34c9.15-.05,18.31-.09,27.46,0a9,9,0,0,1,8.61,5.94,9.26,9.26,0,0,1-1.74,10.23,9.45,9.45,0,0,1-7.48,3.27C86.35,58.82,82,58.8,77.65,58.81Zm-.1-4.28H90.8A5.53,5.53,0,0,0,96.44,49a5.42,5.42,0,0,0-5.55-5.42q-13.31,0-26.62,0a5.23,5.23,0,0,0-1.37.14,5.53,5.53,0,0,0-4.06,6.1,5.63,5.63,0,0,0,5.45,4.67C68.71,54.54,73.13,54.53,77.55,54.53Z"/><path class="cls-8" d="M54.77,83.51v1.95c0,6.58,0,13.17,0,19.76,0,.92-.25,1.09-1.11,1.08q-7.16-.08-14.32,0c-.92,0-1.08-.26-1.08-1.12q.06-10.37,0-20.72c0-.85,0-1.13,1.07-.91a35.63,35.63,0,0,0,14.4.09C54.06,83.57,54.38,83.56,54.77,83.51Z"/><path class="cls-2" d="M66,106.28c-2.35,0-4.7,0-7,0-.69,0-1-.09-1-.9q0-11,0-22c0-.65.29-.82.8-1.13,1.79-1.08,3-.45,4.43.83a31.85,31.85,0,0,1,10.4,19.73c.12.91.16,1.84.31,2.75.1.6-.1.72-.65.72C70.84,106.26,68.42,106.28,66,106.28Z"/><path class="cls-9" d="M22.68,31.64c-.31,1.71-.68,3.4-.93,5.11a41.14,41.14,0,0,0-.53,5c0,1.24-.27,2.46-.25,3.71a58.31,58.31,0,0,0,7,27.54,18.6,18.6,0,0,1,1.83,3.33A31,31,0,0,1,17.51,63a31.93,31.93,0,0,1-2.29-23A11.72,11.72,0,0,1,22.68,31.64Z"/><path class="cls-6" d="M55.51,58.84c-3.21-.19-6.31.27-9.38-.25a9.74,9.74,0,0,1,.23-19.18,12.29,12.29,0,0,1,1.92-.08h7.07C49.84,45.87,49.84,52.3,55.51,58.84Z"/><path class="cls-10" d="M86.72,62c2,0,3.91,0,5.87,0,.64,0,.81.23.87.76a7.38,7.38,0,0,1-.52,4c-.79,1.67-1.69,3.28-2.63,4.87-.27.45-.46.51-.9.23q-5.09-3.21-10.21-6.38c-.43-.26-.53-.51-.26-.92a.69.69,0,0,0,.1-.19c.48-1.93,1.66-2.59,3.63-2.3a28.77,28.77,0,0,0,4,0Z"/><path class="cls-10" d="M11.17,43.45a37.42,37.42,0,0,0,1.48,16.31c-3.73.59-7.88-2.67-8.55-6.66A8.28,8.28,0,0,1,11.17,43.45Z"/><path class="cls-11" d="M50.5,70.75a7.48,7.48,0,0,1-5.11-2.2A1.69,1.69,0,0,1,45.16,66a1.65,1.65,0,0,1,2.45.16,4,4,0,0,0,5.89,0A1.63,1.63,0,0,1,56,66a1.59,1.59,0,0,1-.16,2.44A7.38,7.38,0,0,1,50.5,70.75Z"/><path class="cls-12" d="M77.55,54.53c-4.42,0-8.84,0-13.26,0a5.63,5.63,0,0,1-5.45-4.67,5.53,5.53,0,0,1,4.06-6.1,5.23,5.23,0,0,1,1.37-.14q13.31,0,26.62,0A5.42,5.42,0,0,1,96.44,49a5.53,5.53,0,0,1-5.64,5.49ZM67.38,46.86l-2.66,0a2.44,2.44,0,0,0-1.63.34,2.19,2.19,0,0,0-1,2.41,2.31,2.31,0,0,0,2.49,1.74H90.66c.31,0,.64.07.9-.2a2.14,2.14,0,0,0,1.6-2.39A2.2,2.2,0,0,0,91,46.83c-2.1,0-4.2,0-6.29,0Z"/><path class="cls-13" d="M67.38,46.86l17.28,0c2.09,0,4.19,0,6.29,0a2.2,2.2,0,0,1,2.21,1.9,2.14,2.14,0,0,1-1.6,2.39H69.32c-2.19,0-2.87-.93-2.29-3.13C67.12,47.6,67.26,47.23,67.38,46.86Z"/><path class="cls-14" d="M67.38,46.86c-.12.37-.26.74-.35,1.12-.58,2.2.1,3.13,2.29,3.13H91.56c-.26.27-.59.2-.9.2h-26a2.31,2.31,0,0,1-2.49-1.74,2.19,2.19,0,0,1,1-2.41,2.44,2.44,0,0,1,1.63-.34Z"/></g></g></svg>