<svg width="94" height="95" viewBox="0 0 94 95" fill="none" xmlns="http://www.w3.org/2000/svg">
<path d="M93.9187 44.0233V50.6163C93.9187 51.6987 93.9195 52.7313 93.4767 53.7645C92.079 63.5757 87.6333 72.6992 80.7639 79.8423C73.8945 86.9854 64.9481 91.7867 55.1989 93.5664L50.2791 94.3039H43.6872L40.5403 93.9112C28.471 92.2988 17.5242 85.9863 10.0843 76.347C2.8381 67.161 -0.715045 55.5998 0.119707 43.9296C0.954459 32.2594 6.12071 21.3221 14.6006 13.261C23.0805 5.19991 34.2623 0.595598 45.9598 0.352432C57.6573 0.109267 69.0255 4.24403 77.8331 11.9458C85.9619 18.9166 91.4066 28.5025 93.2316 39.0542C93.4776 40.6777 93.6727 42.3505 93.9187 44.0233ZM46.9351 6.18994C38.7962 6.18021 30.8368 8.5856 24.0655 13.1013C17.2942 17.6169 12.0167 24.0392 8.8976 31.5567C5.77847 39.0742 4.95794 47.3489 6.54337 55.3319C8.12881 63.315 12.0501 70.6484 17.8052 76.4034C23.5603 82.1585 30.8901 86.0762 38.8731 87.6617C46.8561 89.2471 55.1332 88.429 62.6508 85.3099C70.1683 82.1907 76.5893 76.9108 81.105 70.1395C85.6207 63.3682 88.0284 55.4088 88.0187 47.2699C87.967 36.3906 83.6186 25.9723 75.9257 18.2794C68.2328 10.5864 57.8145 6.24169 46.9351 6.18994V6.18994Z" fill="black"/>
<path d="M49.8917 36.8388V38.0196C49.8917 46.9737 49.8917 55.9276 49.8917 64.8817C49.928 65.5154 49.744 66.1435 49.3776 66.6618C49.0112 67.1801 48.4833 67.5585 47.8738 67.7356C47.2979 67.9538 46.665 67.9655 46.0817 67.7681C45.4984 67.5706 44.9989 67.1765 44.674 66.6534C44.2858 66.0525 44.0801 65.3509 44.083 64.6355C44.083 55.7306 44.083 46.8753 44.083 38.0196V36.8881L43.295 37.5763C40.3923 40.5282 37.4931 43.4311 34.5412 46.3338C34.2046 46.714 33.7733 46.9995 33.292 47.1614C32.8107 47.3233 32.2957 47.3559 31.7978 47.2563C31.2999 47.1567 30.8345 46.929 30.4525 46.5945C30.0705 46.2599 29.7858 45.8305 29.6213 45.3501C29.4116 44.8439 29.3582 44.2861 29.4724 43.7502C29.5866 43.2143 29.8624 42.7251 30.2603 42.3484C35.1802 37.4286 40.1 32.5088 45.0199 27.5889C45.2821 27.3104 45.596 27.0896 45.9472 26.9379C46.2983 26.7862 46.6793 26.7073 47.0618 26.7073C47.4443 26.7073 47.8205 26.7862 48.1717 26.9379C48.5228 27.0896 48.8415 27.3104 49.1037 27.5889C54.0236 32.476 58.9434 37.3958 63.8633 42.3484C64.1588 42.616 64.3935 42.9426 64.5551 43.307C64.7168 43.6713 64.8002 44.0662 64.8002 44.4648C64.8002 44.8635 64.7168 45.2572 64.5551 45.6215C64.3935 45.9859 64.1588 46.3125 63.8633 46.58C63.5918 46.869 63.2614 47.0989 62.8976 47.2563C62.5337 47.4137 62.1409 47.4953 61.7445 47.4953C61.348 47.4953 60.96 47.4137 60.5962 47.2563C60.2323 47.0989 59.9019 46.869 59.6305 46.58L50.8238 37.8226L49.8917 36.8388Z" fill="black"/>
</svg>
