<svg xmlns="http://www.w3.org/2000/svg" viewBox="0 0 159.74 161.89"><defs><style>.cls-3{fill:#181503}</style></defs><g id="Слой_2" data-name="Слой 2"><g id="Layer_1" data-name="Layer 1"><path d="M158.92 81.47c-.53-3-.94-6.09-1.61-9.12a77.55 77.55 0 00-3.18-10.68 96.94 96.94 0 00-35.36-45.46C104.46 6.13 88.61.33 71 0a65.74 65.74 0 00-31.86 7.23 61.32 61.32 0 00-26.35 26h-.17.08c0 .16-.11.33-.17.49a3.27 3.27 0 00-.55.5A69.33 69.33 0 00.33 66.86a78.65 78.65 0 005.24 36.28c9.16 23.32 25 40.57 47.76 51.22 15 7 30.82 9.34 47.26 6 6.63-1.32 12.73-4.06 18.86-6.76a66.39 66.39 0 0016.29-9.53l.78-.66 2.64-2.33c.16-.08.32-.17.3-.39.2 0 .31-.09.3-.29.22 0 .34-.08.32-.31.22 0 .33-.08.31-.31.23 0 .33-.08.31-.31.22 0 .32-.08.3-.3.22 0 .32-.1.31-.31.22 0 .31-.11.3-.32a.27.27 0 00.31-.3c.21 0 .3-.12.31-.33l.38-.28 5.16-6.43c.4-1.33 1.39-2.29 2.07-3.45l1-1.48c-.07-.55.36-.87.6-1.28l1.87-3.73v.05l.28-.63a12.24 12.24 0 001.6-3.71q1.05-3.39 2.08-6.8a29.53 29.53 0 001.61-7 69.24 69.24 0 00.04-21.7z" fill="#fff"/><path d="M141.23 110.39a10.14 10.14 0 01-1.31 3l-.23.51c-.51 1-1 2-1.52 3-.19.34-.54.6-.49 1.05l-.82 1.21a13.32 13.32 0 00-1.68 2.81l-4.18 5.22c-.16 0-.31.06-.34.25l-.28.28-.28.28-.28.28-.28.28-.28.28-.28.28-.28.28-.28.28a.29.29 0 00-.28.28c-.19 0-.24.17-.25.33l-2.15 1.9c-.34 0-.63.12-.64.54-.53 0-.81.39-1.16.66a49.83 49.83 0 01-6.52 4.14c-11.39 6-23.49 7.49-36.05 5.38a72.09 72.09 0 01-38.12-19.35c-12.74-12.68-20.98-27.69-23.58-45.63a61.09 61.09 0 012.38-28.15c.82-2.49 2-4.82 2.93-7.27l.16-.45h.07l-.06.07a50 50 0 0121.52-21.27 53.6 53.6 0 0126-5.89c14.38.26 27.3 5 39 13.21a79 79 0 0128.83 37.06 62.12 62.12 0 012.58 8.7c.55 2.47.88 5 1.31 7.43a56 56 0 01-.07 17.77 23.93 23.93 0 01-1.31 5.7c-.65 1.85-1.22 3.7-1.78 5.55zM29 93a64 64 0 01-4-32.43A43.19 43.19 0 0141.24 32.1c12.2-9.75 26.23-12.16 41.3-9.43a62.54 62.54 0 0129 13.58c17.89 14.82 27.53 33.63 26.57 57.19a48.15 48.15 0 01-9.54 27 62.72 62.72 0 01-4.41 5.21c.83.17 1.2-.33 1.61-.73a45.82 45.82 0 0011.89-18.42c4.35-12.44 4.07-25 0-37.33-6.47-19.55-19-34-37.39-43.33-12-6.07-24.79-8.31-38.12-5.53-14.52 3-25.42 11.15-32.37 24.3a51 51 0 00-5.68 23.21A63.15 63.15 0 0029 93zm37.3-12.26c-1.89 1.22-2.35 2.94-2.37 4.9 0 1.16-.59 2.54-.13 3.43s2.1.62 3.18 1a.27.27 0 00.13 0c.67 0 .82.38.76 1-.14 1.37-.15 2.75-.38 4.11-.15.9.08 1.25 1 1.42a87.13 87.13 0 018.66 1.86c2 .63 3.16-.28 4.44-1.57-.37-.11-.64-.21-.93-.27-3.21-.69-6.42-1.4-9.65-2-.92-.18-1.22-.56-1.09-1.49.19-1.36.24-2.74.41-4.11.08-.62-.09-.91-.72-1-.94-.17-1.86-.45-2.81-.61-.59-.09-.76-.34-.71-.91.16-1.66.3-3.32.42-5 0-.62.29-.77.87-.62.93.24 1.86.44 2.8.65.26.06.53.23.73-.18a1.72 1.72 0 00-1.17-2.65l-.62-.12C66.66 78 66.7 78 67 75.62s.43-5 .67-7.82c-1.36 1.31-2.53 2.24-2.54 4.1a49.15 49.15 0 01-.57 6.73c-.23 1.37.05 2.07 1.69 2.13zM91.43 73a2.9 2.9 0 002.46-2.29 5.08 5.08 0 00-3.41-6.24c-1.81-.59-3.69-.94-5.55-1.4-.32-.08-.64-.21-.89.16a2 2 0 001 2.87l.61.13c4.79 1.16 5.44 1.92 5.78 6.77zm-18-23.4C72.09 51 70.81 52 71 54a21.24 21.24 0 01-.27 3.36c-.29 3.35-.54 6.71-.88 10.07-.13 1.29.82 1.09 1.51 1.27 1 .25.64-.6.67-1 .47-5.92.97-11.85 1.45-18.15zm25.3 33.12a16.33 16.33 0 01-8.64.65c-2.13-.41-4.22-.95-6.34-1.39-.4-.09-1.14-.5-1.13.37 0 .71-.7 1.8.48 2.11 3.09.82 6.2 1.68 9.47 1.19a10.48 10.48 0 006.21-2.98zm-3.41 11c-4.19-.92-8.12-1.79-12.06-2.63-.42-.09-1.15-.68-1.21.28 0 .77-.89 1.91.74 2.24 3 .62 6.09 1.31 9.13 2a1.33 1.33 0 001.17-.22c.7-.55 1.37-1.03 2.28-1.7z" fill="#fcce0e"/><path class="cls-3" d="M25 42.51c-.89 2.45-2.11 4.78-2.93 7.27a61.09 61.09 0 00-2.38 28.15c2.6 17.94 10.84 32.95 23.92 45.32a72.09 72.09 0 0038.1 19.35c12.56 2.11 24.66.61 36.05-5.38a49.83 49.83 0 006.52-4.14c.35-.27.63-.7 1.16-.66a54 54 0 01-13.31 7.79c-5 2.2-10 4.43-15.37 5.51a60.76 60.76 0 01-38.52-4.93C39.71 132.11 26.77 118.05 19.31 99A64 64 0 0115 69.47a56.42 56.42 0 019.49-26.56 2.47 2.47 0 01.51-.4z"/><path class="cls-3" d="M125.41 132.44c0-.42.3-.51.64-.54zM25.15 42.12l.06-.07h-.16zm105.52 85.32c0-.19.18-.24.34-.25z"/><path class="cls-3" d="M130.42 127.69l.28-.28c0 .19-.08.3-.28.28z"/><path class="cls-3" d="M130.17 127.94l.28-.28c.01.2-.08.34-.28.28z"/><path class="cls-3" d="M129.92 128.19l.28-.28c.01.2-.06.31-.28.28z"/><path class="cls-3" d="M129.67 128.44l.28-.28c.05.21-.06.32-.28.28z"/><path class="cls-3" d="M129.42 128.69l.28-.28c.03.22-.06.32-.28.28zm-.25.31l.28-.28c.04.17-.06.28-.28.28z"/><path class="cls-3" d="M128.92 129.2l.28-.28c.04.22-.06.31-.28.28z"/><path class="cls-3" d="M128.67 129.45l.28-.28c.05.22-.08.29-.28.28z"/><path class="cls-3" d="M128.42 129.7a.29.29 0 01.28-.28c.02.2-.08.29-.28.28z"/><path class="cls-3" d="M128.2 130c0-.16.06-.3.25-.33.03.19-.11.26-.25.33zM29 93a63.15 63.15 0 01-4.86-25.24 51 51 0 015.68-23.21c7-13.15 17.85-21.27 32.37-24.3 13.33-2.78 26.09-.54 38.12 5.53 18.37 9.28 30.92 23.78 37.39 43.33 4.1 12.37 4.38 24.89 0 37.33a45.82 45.82 0 01-11.89 18.42c-.41.4-.78.9-1.61.73a62.72 62.72 0 004.41-5.21 48.15 48.15 0 009.54-27c1-23.56-8.68-42.37-26.57-57.19a62.54 62.54 0 00-29-13.58c-15.07-2.73-29.1-.32-41.3 9.43A43.19 43.19 0 0025 60.59 64 64 0 0029 93z"/><path class="cls-3" d="M66.25 80.76c-1.64-.06-1.92-.78-1.73-2.13a49.15 49.15 0 00.57-6.73c0-1.86 1.18-2.79 2.54-4.1-.24 2.8-.41 5.32-.67 7.82s-.3 2.4 2.09 2.93l.62.12a1.72 1.72 0 011.17 2.65c-.2.41-.47.24-.73.18-.94-.21-1.87-.41-2.8-.65-.58-.15-.83 0-.87.62-.12 1.67-.26 3.33-.42 5 0 .57.12.82.71.91 1 .16 1.87.44 2.81.61.63.11.8.4.72 1-.17 1.37-.22 2.75-.41 4.11-.13.93.17 1.31 1.09 1.49 3.23.64 6.44 1.35 9.65 2 .29.06.56.16.93.27-1.28 1.29-2.4 2.2-4.44 1.57a87.13 87.13 0 00-8.66-1.86c-.9-.17-1.13-.52-1-1.42.23-1.36.24-2.74.38-4.11.06-.61-.09-1-.76-1a.27.27 0 01-.13 0c-1.08-.37-2.7 0-3.18-1s.12-2.27.13-3.43c.04-1.91.5-3.61 2.39-4.85zM91.43 73c-.34-4.8-1-5.56-5.76-6.77l-.61-.13a2 2 0 01-1-2.87c.25-.37.57-.24.89-.16 1.86.46 3.74.81 5.55 1.4a5.08 5.08 0 013.41 6.24A2.9 2.9 0 0191.43 73zM73.48 49.55C73 55.85 72.5 61.78 72 67.7c0 .35.28 1.2-.67 1-.69-.18-1.64 0-1.51-1.27.34-3.36.59-6.72.88-10.07A21.24 21.24 0 0071 54c-.19-2 1.09-3 2.48-4.45zm25.3 33.12a10.48 10.48 0 01-6.16 2.93c-3.27.49-6.38-.37-9.47-1.19-1.18-.31-.47-1.4-.48-2.11 0-.87.73-.46 1.13-.37 2.12.44 4.21 1 6.34 1.39a16.33 16.33 0 008.64-.65zm-3.41 11.02c-.91.67-1.58 1.15-2.23 1.66a1.33 1.33 0 01-1.17.22c-3-.68-6.08-1.37-9.13-2-1.63-.33-.79-1.47-.74-2.24.06-1 .79-.37 1.21-.28 3.94.85 7.87 1.72 12.06 2.64z"/></g></g></svg>