<svg xmlns="http://www.w3.org/2000/svg" viewBox="0 0 58.16 57.44"><defs><style>.cls-2{fill:#191604}</style></defs><g id="Слой_2" data-name="Слой 2"><g id="Layer_1" data-name="Layer 1"><path d="M50.07 49.9a26.08 26.08 0 01-2.89 2.15l-1.18.67a1.75 1.75 0 00-.69.29 25.85 25.85 0 01-12.12 2.9 29.76 29.76 0 01-13.52-3.2A32.71 32.71 0 012.61 33.17 27.41 27.41 0 011.43 21.1a32.67 32.67 0 011.32-5.61 20.57 20.57 0 014-6.81A24.07 24.07 0 0123.1.17a30.31 30.31 0 0120.5 5.34A32.78 32.78 0 0156.51 22a33.78 33.78 0 011.3 5.54A21.91 21.91 0 0158.1 33a25.07 25.07 0 01-2.1 8.89 31.51 31.51 0 01-3.27 5.29 6.32 6.32 0 01-.56.6l-.1.08L52 48l-.12.12-.12.12-.12.12-.12.12-.78.78-.23.24-.13.13-.13.13-.12.13zM4.51 31.53v-.26a24 24 0 01-.91-6.13A20.84 20.84 0 016 14.43a21.25 21.25 0 018.8-8.76 23.73 23.73 0 0117-2.16C41.94 5.88 49.12 12 53.23 21.59A24.69 24.69 0 0155 35a21.82 21.82 0 01-5.9 12.29c-.1.1-.28.18-.17.43.19-.16.36-.3.52-.45a21 21 0 005-7.19 24.23 24.23 0 00.35-17.65A30.93 30.93 0 0029.45 2a24.74 24.74 0 00-11.6 1.35A21.25 21.25 0 005.32 15.13a23.62 23.62 0 00-.81 16.4zm18.23-1.63a1.61 1.61 0 00-.84 1.58 7.37 7.37 0 010 1.41c0 .52.07.84.69.77.27 0 .54.07.81.06s.48.1.47.46c0 .64.05 1.27.05 1.91 0 .27.07.37.36.39 1.42.08 2.84.16 4.25.32.75.09 1.1-.33 1.52-.86-1.66-.12-3.25-.25-4.85-.34-.38 0-.49-.14-.48-.51v-1.8c0-.38-.14-.52-.5-.52s-.69-.05-1-.06-.48-.13-.47-.49c.01-.77-.01-1.55-.01-2.32zm10.65-5.11a1.51 1.51 0 00.91-1.12 2.22 2.22 0 00-1.86-2.62c-.72-.1-1.45-.16-2.17-.22s-.72 0-.7.67c0 .33.11.45.43.45s.69.07 1 .1a2.55 2.55 0 011.93.87 2.5 2.5 0 01.46 1.87zm-9-9h-.23c-.22.42-.66.71-.65 1.27.05 2.26.11 4.52.13 6.78 0 .49.35.37.6.4s.23-.25.23-.42c0-1.26-.07-2.51-.08-3.77s.01-2.88.01-4.3zm-1.73 8.41c-.81.62-.87.76-.85 1.57 0 1.13.06 2.25.07 3.38 0 .3.06.43.41.47a6.17 6.17 0 011.75.25c.42.18.63 0 .61-.52s-.14-.7-.65-.66c-.25 0-.51-.08-.75-.06-.54.05-.61-.23-.6-.67.02-1.26.01-2.51.01-3.76zm14.21 4.5h-.21a7.08 7.08 0 01-4.29.69c-.69-.08-1.38-.11-2.07-.16-.21 0-.49-.1-.41.28s-.26.7.33.74 1.45.15 2.18.16a6.45 6.45 0 003.75-1c.28-.15.61-.3.72-.71zm-.88 5l-5.66-.41c-.12 0-.24-.06-.31.12a.61.61 0 00.58.88c1.22.09 2.45.09 3.65.28.83.11 1.22-.31 1.75-.9zm12.7 14l-.6.51a.63.63 0 00.6-.51z" fill="#fff"/><path class="cls-2" d="M2.75 15.49a32.67 32.67 0 00-1.32 5.61 27.41 27.41 0 001.18 12.07 32.71 32.71 0 0017.1 19.54 29.76 29.76 0 0013.52 3.2A25.85 25.85 0 0045.35 53a1.75 1.75 0 01.69-.29.41.41 0 01-.11.12A32.1 32.1 0 0136 57a27.09 27.09 0 01-12.44-.5C12.82 53.38 5.43 46.63 1.62 36.17a25.74 25.74 0 01.67-19.59zm48.02 33.67l.78-.78a1.64 1.64 0 01-.78.78zm-.7.74l.16-.21zm2.11-2.15z"/><path class="cls-2" d="M50.55 49.38l.23-.24a.21.21 0 01-.23.24zM52 48l.11-.13c-.02.04-.05.13-.11.13zm-.13.06l.12-.12c.01.06.01.13-.12.12z"/><path class="cls-2" d="M51.76 48.17l.12-.12q0 .14-.12.12z"/><path class="cls-2" d="M51.65 48.28l.12-.12c0 .08-.03.13-.12.12z"/><path class="cls-2" d="M51.54 48.39l.12-.12q.02.14-.12.12zm-1.1 1.1l.13-.13c.01.1-.04.13-.13.13z"/><path class="cls-2" d="M50.33 49.6l.13-.13c0 .09-.04.13-.13.13z"/><path class="cls-2" d="M50.23 49.71l.12-.13c0 .09-.05.12-.12.13zM4.51 31.53a23.62 23.62 0 01.81-16.4A21.25 21.25 0 0117.85 3.34 24.74 24.74 0 0129.45 2a30.93 30.93 0 0125.29 20.4 24.23 24.23 0 01-.35 17.6 21 21 0 01-5 7.19c-.16.15-.33.29-.52.45-.11-.25.07-.33.17-.43A21.82 21.82 0 0055 35a24.69 24.69 0 00-1.76-13.37C49.12 12 41.94 5.88 31.76 3.51a23.73 23.73 0 00-17 2.16A21.25 21.25 0 006 14.43a20.84 20.84 0 00-2.44 10.71 24 24 0 00.91 6.13c.02.08.02.18.04.26z"/><path class="cls-2" d="M22.74 29.9v2.32c0 .36.13.49.47.49s.69.06 1 .06.52.14.5.52v1.8c0 .37.1.49.48.51 1.6.09 3.19.22 4.85.34-.42.53-.77 1-1.52.86-1.41-.16-2.83-.24-4.25-.32-.29 0-.36-.12-.36-.39 0-.64-.06-1.27-.05-1.91 0-.36-.12-.47-.47-.46s-.54-.09-.81-.06c-.62.07-.72-.25-.69-.77a7.37 7.37 0 000-1.41 1.61 1.61 0 01.85-1.58zm10.65-5.11a2.5 2.5 0 00-.39-1.87 2.55 2.55 0 00-2-.87c-.34 0-.68-.09-1-.1s-.43-.12-.43-.45c0-.72 0-.73.7-.67s1.45.12 2.17.22a2.22 2.22 0 011.86 2.62 1.51 1.51 0 01-.91 1.12zm-8.99-9.04v4.24c0 1.41.06 2.51.08 3.77 0 .17.12.46-.23.42s-.59.09-.6-.4c0-2.26-.08-4.52-.13-6.78 0-.56.43-.85.65-1.27zm-1.74 8.45v3.76c0 .44.06.72.6.67.24 0 .5.08.75.06.51 0 .63.17.65.66s-.19.7-.61.52a6.17 6.17 0 00-1.75-.25c-.35 0-.41-.17-.41-.47 0-1.13-.05-2.25-.07-3.38-.03-.77.03-.95.84-1.57zm14.21 4.5c-.11.41-.44.56-.72.74a6.45 6.45 0 01-3.75 1c-.73 0-1.45-.11-2.18-.16s-.27-.48-.33-.74.2-.29.41-.28c.69.05 1.38.08 2.07.16a7.08 7.08 0 004.29-.69s.1-.03.21-.03zM36 33.67c-.52.59-.91 1-1.74.87-1.2-.19-2.43-.19-3.65-.28a.61.61 0 01-.58-.88c.07-.18.19-.13.31-.12zM48.69 47.7a.63.63 0 01-.6.51z"/></g></g></svg>