<svg xmlns="http://www.w3.org/2000/svg" viewBox="0 0 180.88 187.09"><defs><style>.cls-3{fill:#1d1a05}</style></defs><g id="Слой_2" data-name="Слой 2"><g id="Layer_1" data-name="Layer 1"><path d="M179.12 74a85.39 85.39 0 00-17.57-38.21c-.42-.51-.74-1.22-1.61-1.09-.9-2.21-2.72-3.73-4.23-5.47a81.71 81.71 0 00-26.21-20.6c-23-11.13-46.43-11.34-69.85-1.5-20.72 8.7-36.24 23.41-46.94 43.07C.2 73.19-3.27 97.57 3.17 123c4.83 19.3 15.06 35.32 30.95 47.52a71 71 0 0022 11.85 60.64 60.64 0 0010.66 3c8.66 1.9 17.41 1.91 26.2 1.34a88.42 88.42 0 0020.84-3.39c28.7-9 48.32-27.84 59.79-55.32a92.57 92.57 0 005.51-54z" fill="#fff"/><path d="M60.14 170.11a61.2 61.2 0 01-19-10.21A72.62 72.62 0 0114.47 119c-5.55-22-2.55-43 8.23-62.82 9.22-16.94 22.6-29.62 40.46-37.13 20.19-8.48 40.36-8.3 60.21 1.3A70.32 70.32 0 01146 38.14c1.3 1.5 2.87 2.81 3.65 4.72.24.42.46.85.73 1.25a78.78 78.78 0 0113.15 40.07 85.42 85.42 0 01-7.79 40.82 84.85 84.85 0 01-28.44 34.52 76.38 76.38 0 01-33.75 13.6 71.16 71.16 0 01-22.28-.26c-3.79-.65-7.44-1.75-11.13-2.75zm78.09-130.44l.26.26s.1-.09.09-.1l-.24-.27c0-.53-.4-.78-.7-1.08a60.58 60.58 0 00-17.46-12.9C98.13 15 76.56 16.68 55.63 28.69a73.27 73.27 0 00-27.49 27.92C16.42 77.28 13.52 99 21.05 121.82a3.42 3.42 0 00.37 1 1.71 1.71 0 001.83.66c.71-.22.06-.86-.06-1.23a75.85 75.85 0 01-2-40.22c5.59-24.85 19.35-43.75 42.54-54.57 24.15-11.27 47.43-8.87 68.88 7.45 1.96 1.46 3.75 3.16 5.62 4.76zm-34.45 31.11a.69.69 0 000 .75 19.25 19.25 0 012.08 11.76 19.07 19.07 0 01-17.62 17.62 49.91 49.91 0 01-9.47-.45c-1.6-.16-2.16.27-2.07 1.8 0 .66-.46 1.57.87 1.53 1 0 2.23.49 2.1-1.28-.07-1 .4-1.16 1.26-1.07 1.72.2 3.45.28 5.17.48 10.51 1.21 19.22-4.54 21.66-14.42 1.23-5 1.13-9.81-1.43-14.4-.54-1.05-1.16-2.1-2.55-2.32zm-40.2 47.89c4.33.43 8.66.83 13 1.32.93.1 1.07-.22 1.14-1 .1-1.28.32-2.56.49-3.83.34-2.66.33-2.6 3-2.32 3.93.41 7.88.75 11.82 1.11.53 0 1.11.21 1.2-.64.23-2.27.59-4.52.71-6.79.07-1.36-1.34-1.1-2.1-1.34s-.52.65-.58 1c-.24 1.92-.47 3.83-.64 5.75-.08.93-.39 1.24-1.39 1.13-4.43-.47-8.87-.82-13.3-1.28-1-.1-1.4.12-1.49 1.17-.14 1.77-.48 3.53-.63 5.3-.07.89-.45 1-1.22.94-1.43-.18-2.85-.37-4.28-.45-1.92-.07-3.8-.54-5.73-.07zM90.44 77.9a4.8 4.8 0 00-3.06-1.4c-2-.16-4-.2-6.07-.37-1-.09-1.42.32-1.53 1.29-.31 2.9-.63 5.79-1 8.68-.13 1 .2 1.41 1.15 1.41.76 0 1.65.48 1.77-1 .22-2.61.67-5.19.94-7.8.11-1 .57-1.3 1.55-1.22 1.94.21 3.92.28 6.25.41zm-31.09 21a8.55 8.55 0 003 1c.38 0 1 .3 1.12-.28s-.6-.48-1-.51c-.91-.11-1.87-.11-3.12-.17zM58 110.11c1.52.59 2.74 1.13 4.12.41z" fill="#fcce0e"/><path class="cls-3" d="M60.14 170.11c3.69 1 7.34 2.1 11.13 2.75a71.16 71.16 0 0022.28.26 76.38 76.38 0 0033.75-13.6A84.85 84.85 0 00155.74 125a85.42 85.42 0 007.75-40.82 78.78 78.78 0 00-13.15-40.07c-.27-.4-.49-.83-.73-1.25.75-.12 1 .49 1.39.94a73.58 73.58 0 0115.15 32.93 79.82 79.82 0 01-4.73 46.56c-9.88 23.68-26.8 40-51.54 47.69a76.3 76.3 0 01-18 2.92c-7.58.48-15.12.48-22.59-1.16a51.56 51.56 0 01-9.15-2.63zm78.09-130.44c-1.87-1.6-3.66-3.3-5.62-4.79-21.45-16.32-44.73-18.72-68.88-7.45C40.54 38.25 26.78 57.15 21.19 82a75.85 75.85 0 002 40.22c.12.37.77 1 .06 1.23a1.71 1.71 0 01-1.83-.66 3.42 3.42 0 01-.37-1C13.52 99 16.42 77.28 28.14 56.61a73.27 73.27 0 0127.49-27.92c20.93-12 42.5-13.68 64.55-3.11a60.58 60.58 0 0117.46 12.9c.3.3.72.55.7 1.08zm-34.45 31.11c1.39.18 2 1.27 2.6 2.32 2.56 4.59 2.66 9.45 1.43 14.4-2.44 9.88-11.15 15.63-21.66 14.42-1.72-.2-3.45-.28-5.17-.48-.86-.09-1.33.11-1.26 1.07.13 1.77-1.13 1.26-2.1 1.28-1.33 0-.82-.87-.87-1.53-.09-1.53.47-2 2.07-1.8a49.91 49.91 0 009.47.45 19.07 19.07 0 0017.62-17.62 19.25 19.25 0 00-2.08-11.76.69.69 0 01-.05-.75zm-40.2 47.89c1.93-.47 3.81 0 5.71.12 1.43.08 2.85.27 4.28.45.77.11 1.15 0 1.22-.94.15-1.77.49-3.53.63-5.3.09-1 .51-1.27 1.49-1.17 4.43.46 8.87.81 13.3 1.28 1 .11 1.31-.2 1.39-1.13.17-1.92.4-3.83.64-5.75.06-.4-.16-1.28.58-1s2.17 0 2.1 1.34c-.12 2.27-.48 4.52-.71 6.79-.09.85-.67.69-1.2.64-3.94-.36-7.89-.7-11.82-1.11-2.66-.28-2.65-.34-3 2.32-.17 1.27-.39 2.55-.49 3.83-.07.78-.21 1.1-1.14 1-4.32-.54-8.65-.94-12.98-1.37z"/><path class="cls-3" d="M90.44 77.9c-2.33-.13-4.31-.2-6.27-.38-1-.08-1.44.17-1.55 1.22-.27 2.61-.72 5.19-.94 7.8-.12 1.45-1 1-1.77 1-1 0-1.28-.42-1.15-1.41.39-2.89.71-5.78 1-8.68.11-1 .5-1.38 1.53-1.29 2 .17 4 .21 6.07.37a4.8 4.8 0 013.08 1.37zM59.35 98.94c1.25.07 2.21.1 3.16.19.38 0 1.07-.1 1 .51s-.74.31-1.12.28a8.55 8.55 0 01-3.04-.98zM58 110.11l4.12.41c-1.36.72-2.58.18-4.12-.41zm80.34-70.55c.08.09.17.18.24.27s-.06.07-.09.1l-.26-.26z"/></g></g></svg>