<svg xmlns="http://www.w3.org/2000/svg" viewBox="0 0 492.95 502.94"><defs><style>.cls-1{fill:#f8c31b}.cls-2{fill:#090806}.cls-3{fill:#fff}</style></defs><g id="Слой_2" data-name="Слой 2"><g id="Layer_1" data-name="Layer 1"><path class="cls-1" d="M226.46 439.18c5.07-2 4.7-6.81 4.95-10.85 1-15.55.7-31.14.71-46.72q0-121.33.06-242.67c0-6.53.31-13 .48-19.58 5.91 2.7 12 3.83 18.47 2.3 1.08-.26 1.59.09 1.55 1.23v200.14c0 29.86-.1 59.71.19 89.57.08 8.86-.84 18 4.28 26.48-10.16.94-19.95.49-29.73.47a3.23 3.23 0 01-.96-.37zM1.45 277.68c-1.57-1.66-2.17-3.11-.23-5.18C15.53 257.28 29.72 242 44 226.66q15.25-16.38 30.54-32.72c1.07-1.14 1.46-1.95.68-3.58A9 9 0 0188 179a3 3 0 003.5-.06q64-35.37 128.05-70.68c.74-.4 1.42-.89 2.13-1.33 1.81 2.16 1.32 3.38-1.22 4.77q-38.73 21.17-77.32 42.59-24.82 13.71-49.63 27.44c-.65.36-2.38.35-1.41 2a12 12 0 01-1.1 8.41c-.36.76.32.89.73 1.17l-.07-.07.63.63-.07-.07.63.63-.07-.07.63.63-.07-.07.63.63-.07-.07.63.63-.07-.07.63.63-.09-.07.63.63-.07-.07.63.63-.07-.07a.64.64 0 00.63.63l-.07-.07a.63.63 0 00.63.63l-.07-.07a.62.62 0 00.63.63l-.07-.07a.6.6 0 00.63.63l-.07-.07a.59.59 0 00.63.63l-.07-.07a.57.57 0 00.63.63l-.07-.07a.56.56 0 00.63.63l-.07-.07.58.84 1.47 1.48 19.3 19.59-.08-.08.64.63-.08-.07.63.63-.07-.07.63.63-.07-.07.63.63-.07-.07.63.63-.07-.07.63.63-.07-.07.63.63-.07-.07.63.63-.07-.06.63.62-.07-.06.63.62-.07-.06.63.62-.06-.06a.62.62 0 00.62.62l-.07-.06a.62.62 0 00.63.62l-.07-.06c1.09 2 3.19 3 4.62 4.64 6.14 7.06 12.94 13.45 19.53 20.06l-.07-.08.63.64-.07-.08.63.64-.07-.07.63.63-.07-.07.63.63-.07-.07.63.63-.07-.07.63.63-.07-.07.63.63-.07-.07.62.63-.06-.07.62.62-.06-.06.62.62-.06-.06.62.63-.06-.07a.62.62 0 00.62.62l-.06-.06a.61.61 0 00.62.62l-.06-.06c1.81 2.7 4.52 4.52 6.77 6.79l-.06-.07a.55.55 0 00.62.63l-.06-.07a.55.55 0 00.62.63l-.06-.07a.55.55 0 00.62.63l-.07-.06c1.15 3.73-1.45 1.53-2.59 1.64-3.44-3.52-6.86-7.07-10.33-10.56q-10.59-10.68-21.22-21.3h.05l-.64-.6.05.05c-.79-1.52-2.18-2.51-3.34-3.69q-19.94-20.34-39.94-40.6c-.7-.71-1.23-2.1-2.69-1.36-3.19 1.62-6.3 1.11-9.39-.3-1.44-1.31-1.74.44-2.25 1Q45.36 228.15 14.79 261q-5.47 5.86-10.92 11.77c1.74-.18 3.22-.5 4.74 0 8.16.94 16.35.2 24.53.42 1.43 0 1.34-.95 1.34-1.9 0-3.44.1-6.9-.12-10.33-.13-2.14.6-2.76 2.65-2.71 4.51.11 9 0 13.52 0v-.89c-4.59-.27-9.21.05-13.77-.67-1-.17-2.16-.22-2.14-1.67 0-3.61-.51-7.23 0-10.84a7.37 7.37 0 003.23.69c10 1.05 20.11.09 30.15.46.34 0 1 .27.92-.54h-3.87c-1.48-.07-3.76 1.06-3.32-2.13.09-.67-.7-.71-1.26-.81-.9-.17-1.86.19-2.71-.37 8.43-.69 16.87-1.2 25.34-1.11-2.88.87-5.84.07-8.74.46-.86.11-2.43-.62-2.33 1 .08 1.26 1.48.82 2.3.79 5.56-.2 11.12-.42 16.67-.78 1.44-.1 2.37-.13 2.19 1.67-.11 1.08.63 1.16 1.45 1.11l12.44-.66a26.81 26.81 0 00-4.17-.37c-1.72-.17-4.31 1.16-4.25-2.44 0-.83-1.35-.79-2.16-.82-2.5-.1-5-.14-7.51-.2 9.76-.66 19.54-.41 29.31-.38 3.72 0 7.46-.27 11.15.42.22.63.8 1.11-.42 1.63-2.7 1.14-5.58.91-8.34 1.14s-5.8.15-8.57.83c-3.21.79-4.13 1-3.45 4.72.24 1.27 0 2.62.21 3.9.31 2.05 0 3.47-1.6 3.32 2.21-.82 2.17 1.17 2.12 3.3s0 4.11.14 6.15c.11 1.48-.32 2.26-1.87 2.35-1.2.07-2.4.32-3.61.36-2.88.1-5.77.09-8.66.2-.62 0-1.73-.34-1.64.87s1.09.83 1.78.8a25.92 25.92 0 003.79-.39c2.64-.5 5.46-.9 8 .58h2.49c-1.29 2.87-1.06 3.29 1.82 3.32h19.75c-5.83 1-11.64 1.7-17.38 2.92-11.51 2.45-21.32 7.53-28.16 17.56a86.87 86.87 0 01-8.71 10.88c-5 5.29-11.61 7-18.68 7.62-11.41 1-21.87-.91-30.76-8.75-4.77-4.2-9.19-8.72-13.62-13.26C10 286 6.12 281.43 1.45 277.68zM323.34 97.46c-.77-1.65-.95-2.77 1-4.11 2.34-1.59 4.1-4 6.1-6.12q33.31-34.73 66.59-69.48c.67-.69 2.21-1.17 1.33-2.7v.12c.91.86 1.08-.07 1.42-.59-.06-2.44-1.24-1.22-2.22-.68q-63.2 34.88-126.42 69.83c-2.54 1.4-3.73 1.27-4.44-1.51L374 23l22.54-12.4c1.07-.59 2-1.1 2.19-2.59a8.52 8.52 0 016.74-7.69 8.53 8.53 0 019.09 2.87c2.69 3.21 2.91 6.74 1 10.44a7.69 7.69 0 00-.37 1c.24 1.38 1.4 2 2.3 2.84l-.07-.07.63.63L418 18l.63.63-.07-.07.63.63-.07-.07.63.63-.07-.07a.61.61 0 00.63.63l-.07-.07c0 .39.21.62.62.63l-.06-.07a.57.57 0 00.58.64v-.06a69.65 69.65 0 007.93 8.45l-.07-.08.63.63-.07-.07.62.63-.06-.06.62.63-.06-.07a112 112 0 009.58 10.14l-.07-.07.63.63-.07-.07.63.63-.07-.07.63.63-.07-.07a108.26 108.26 0 009.59 10.15l-.07-.07.63.63-.07-.07.63.63-.07-.07.63.63-.07-.07a110.79 110.79 0 009.59 10.15l-.07-.08.63.64-.07-.08.63.63-.07-.06.63.63-.07-.07.63.63-.07-.07a94 94 0 009 9.58l-.07-.07.63.63-.07-.07.62.63-.06-.07.62.63-.06-.07.62.63-.06-.07a102.32 102.32 0 009 9.59l-.08-.07.64.63-.08-.07.63.63-.07-.07.63.63-.07-.07.63.63-.07-.07c.18 1.18 1.82 1.42 1.88 2.75a5.72 5.72 0 01-3.33 0q-15.19-16-30.4-32-20.7-21.73-41.44-43.44c-.69-.73-1.24-1.58-2.56-.92-3.1 1.56-6.14 1-9.1-.53-1.59-1.28-1.91.59-2.48 1.18q-35.6 36.94-71.07 74c-.52.54-1.34 1-1.3 2.21 1.79-1 3.55-.78 5.28-.79h28c2.5 0 5-.24 7.49.36 2.23.58 3-.55 2.64-2.51-.52-3 .94-3.46 3.57-3.51 7.8-.16 15.58.21 23.4-.49s15.78 0 23.65.76c-.28-.07-.27-.2 0-.21s.33.12.07.21a7.91 7.91 0 013.25 0 2.25 2.25 0 00-.47 1.56c-.24 4.56-.23 4.38 4.23 4.63 8 .44 15.89-1.08 23.86-.75 1 0 2.28-.43 3.17 1.12-3.67.52-7.21 1-10.76 1.5-9.3 1.19-18.26 3.38-26.21 8.68-5.62 3.75-9.77 9-13.46 14.43-5.44 8-12.48 12.84-22.21 13.59-9.49.72-18.85.77-27.33-4.52a64.67 64.67 0 01-11.37-9.44q-10.52-10.59-21.06-21.19z"/><path class="cls-2" d="M266.7 82.22c.71 2.78 1.9 2.91 4.44 1.51q63.18-35 126.47-69.83c1-.54 2.16-1.76 2.22.68-.82-.63-1.15-.09-1.42.59v-.12c-4.86 1.9-9.22 4.78-13.77 7.29Q327.95 53.53 271.3 84.77c-1.84 1-2.41 1.8-1.67 4a25.38 25.38 0 01-9.87 29.08 3.5 3.5 0 00-1.9 3.29c1.14 97.31.14 194.63.63 292 0 7.14-.1 14.33 1.51 21.42a5.47 5.47 0 005.3 4.72c5.18.59 10.39 1 15.58 1.55a51.41 51.41 0 017.43 1.23 11.29 11.29 0 018.25 8c1.31 4.08 2.74 8.11 4.12 12.16 3.33 9.81 9.79 15.5 20.48 16.06 4.7.24 5 .82 5 5.45v13.44c0 3.74-.67 4.64-4.46 5-4.18.39-8.38.58-12.58.61-44.13.28-88.27.44-132.4-.11a55.61 55.61 0 01-8.37-.56c-1.62-.26-4-.16-3.89-3a23.43 23.43 0 008.7 1.69c25.92.5 51.84.09 77.76-.12 11.74-.1 23.49-.42 35.18-1.68 4.26-.46 5.62-1.95 5.66-6.27 0-2.42.12-4.84.17-7.26.05-2.62 1.46-4 3.92-4.64 1.47-.35 3.07-.42 4.31-1.83-3.63-.16-7.05-.43-10.48-.44-38.23-.17-76.46-.7-114.69-.19-1.32 0-2.78.55-4-.49 2.3.06 4.42-.93 6.66-1.2 1 1.43 2.52 1 3.86 1 26.76.59 53.52.23 80.29 0 7.54-.06 15.09-.55 22.63-.81 1.75-.06 4-.57 4.48-1.67s-1.06-2.92-2.07-4.26c-5.26-6.92-8.5-14.56-8.14-23.45.09-2.19-.66-3.48-3.14-4-8.63-2-17.37-2-26.13-2.08-15-.19-30-.4-45 .18a1.12 1.12 0 00-.24-.13H204c-.32.56.26.32.34.3 7.26-1.67 14.73-1.51 22.06-2.52a3.23 3.23 0 001 .37c9.78 0 19.57.47 29.73-.47-5.12-8.43-4.2-17.62-4.28-26.48-.29-29.86-.18-59.71-.19-89.57V125.75c0-.93-.05-1.87 0-2.8 0-1.14-.47-1.49-1.55-1.23-6.44 1.53-12.56.4-18.47-2.3-1.35-1.47-3.71-1.75-4.48-3.88.7.43 1.4.86 2.09 1.31 8.44 5.47 17.26 6.32 26.18 1.53s13.17-12.38 13.2-22.36c0-12.42-8.82-22.09-22.31-24.61 7.34-.07 12.85 3.55 17.59 8.72.64.63 1.2 1.37 1.79 2.09z"/><path class="cls-2" d="M323.34 97.46q10.55 10.59 21.1 21.19a64.67 64.67 0 0011.37 9.44c8.48 5.29 17.84 5.24 27.33 4.52 9.73-.75 16.77-5.56 22.21-13.59 3.69-5.44 7.84-10.68 13.46-14.43 7.95-5.3 16.91-7.49 26.21-8.68 3.55-.46 7.09-1 10.76-1.5-.89-1.55-2.13-1.07-3.17-1.12-8-.33-15.88 1.19-23.86.75-4.46-.25-4.47-.07-4.23-4.63a2.25 2.25 0 01.47-1.56c4.55-.4 9.12-.23 13.68-.19 3.91 0 4 0 3.88 3.87-.1 2.31.61 3.06 2.95 3 12.29-.42 24.57-1.11 36.87-.79 1.21 0 2.42-.11 3.62-.17a5.72 5.72 0 003.33 0c-.06-1.33-1.7-1.57-1.88-2.75 1.81.75 2.46 3 4.79 3.33 1.3.19.51 2 .15 2.93-1.58 4.32-4.17 8.1-6.77 11.84a212 212 0 01-20.14 25 15.44 15.44 0 01-12.22 5.27c-31.21-.27-62.44-.16-93.66-.08a8.59 8.59 0 01-6.36-2.24 162.38 162.38 0 01-29.48-38 6.43 6.43 0 01-.41-1.41zM1.45 277.68c4.67 3.75 8.55 8.32 12.71 12.55 4.43 4.54 8.85 9.06 13.62 13.26 8.89 7.84 19.35 9.76 30.76 8.75 7.07-.62 13.68-2.33 18.68-7.62a86.87 86.87 0 008.71-10.88c6.84-10 16.65-15.11 28.16-17.56 5.74-1.22 11.55-1.89 17.38-2.92h-19.75c-2.88 0-3.11-.45-1.83-3.32 7.43-.42 14.87-.23 22.31-.11 1.31 0 2.48 0 2.25 1.86-.15 1.22.42 1.47 1.66 1.45 7.27-.12 14.54-.06 21.82-.14 2.59 0 5.2.37 7.78-.27 1.14-.11 3.74 2.09 2.59-1.64 2.06 2.72 1.59 5.36 0 8.12a171.86 171.86 0 01-28.3 36.27 9.4 9.4 0 01-7 2.71q-48-.13-96 0a9.75 9.75 0 01-7-2.67c-7.42-6.77-13.47-14.7-19.44-22.7a100.21 100.21 0 01-8.82-13.58c-.33-.4-1.35-.94-.29-1.56z"/><path class="cls-1" d="M204.49 441.5c15-.58 30-.37 45-.18 8.76.1 17.5.1 26.13 2.08 2.48.56 3.23 1.85 3.14 4-.36 8.89 2.88 16.53 8.14 23.45 1 1.34 2.62 3.06 2.07 4.26s-2.73 1.61-4.48 1.67c-7.54.26-15.09.75-22.63.81-26.77.21-53.53.57-80.29 0-1.34 0-2.86.43-3.86-1 6.33-2.55 9.47-7.89 11.82-13.81a106.48 106.48 0 003.88-11.37c1.53-5.82 5.25-8.98 11.08-9.91zM171 477.81c1.21 1 2.67.51 4 .49 38.23-.51 76.46 0 114.69.19 3.43 0 6.85.28 10.48.44-1.24 1.41-2.84 1.48-4.31 1.83-2.46.6-3.87 2-3.92 4.64-.05 2.42-.15 4.84-.17 7.26 0 4.32-1.4 5.81-5.66 6.27-11.69 1.26-23.44 1.58-35.18 1.68-25.92.21-51.84.62-77.76.12a23.43 23.43 0 01-8.7-1.69c0-5.74-.05-11.48-.13-17.21a3.13 3.13 0 012.89-3.45c1.25-.24 2.52-.38 3.77-.57zm76.34-406.46c13.49 2.52 22.34 12.19 22.31 24.61 0 10-4.39 17.64-13.2 22.36s-17.74 3.94-26.18-1.53c-.69-.45-1.39-.88-2.09-1.31l.07.06-2.86-2.88.06.07c-.06-.48-.31-.7-.8-.59l-.78-1.15c-.11-1.73-2.63-2.23-2.16-4.26C216.8 97.77 220 84 228.66 77a23.76 23.76 0 0118.68-5.65zm8.88 15.87a8.93 8.93 0 00-5.22-4.75c-5.72-2.43-11.19-1.78-16 2.19a14.46 14.46 0 00-5.17 15c1.33 6.15 5.4 9.76 11.23 11.63.48.16.9.39 1.06-.26s-.42-.72-.83-.93a13.9 13.9 0 01-5.56-5.13 13.46 13.46 0 018.42-20.16c4.48-1.01 8.3.07 12.07 2.41z"/><path class="cls-2" d="M221.71 106.73c-.47 2 2 2.53 2.16 4.26Q158 147.37 92.1 183.73c-1-1.65.76-1.64 1.41-2q24.8-13.77 49.64-27.43 38.64-21.33 77.32-42.59c2.54-1.39 3-2.61 1.22-4.77zm-69 148.73c-6.59-6.61-13.39-13-19.53-20.06-1.43-1.63-3.53-2.64-4.62-4.64 5 4.93 10 9.79 14.9 14.82 3.13 3.24 6.72 6.07 9.25 9.88zm-31.35-31.91L102.06 204c.86-.23 1.09.57 1.51 1q8.33 8.42 16.61 16.88c.48.44 1.33.73 1.18 1.67zM440.48 41.59a112 112 0 01-9.58-10.14 63 63 0 019.58 10.14zm11.2 11.76a108.26 108.26 0 01-9.59-10.15 60.25 60.25 0 019.59 10.15zm11.2 11.76A110.79 110.79 0 01453.29 55a59.48 59.48 0 019.59 10.11zm22.4 23.51a102.32 102.32 0 01-9-9.59c3.21 2.97 6.49 5.97 9 9.59zm-11.2-11.76a94 94 0 01-9-9.58 56.13 56.13 0 019 9.58zm-44.79-47.02a69.65 69.65 0 01-7.93-8.45c2.87 2.61 5.79 5.16 7.93 8.45zm-262.6 239.62c-2.25-2.27-5-4.09-6.77-6.79 2.77 1.75 4.39 4.65 6.77 6.79zM417.53 17.52c-.9-.84-2.06-1.46-2.3-2.84.77.92 2.08 1.45 2.3 2.84zm-192.14 95.14l2.86 2.88a4.13 4.13 0 01-2.86-2.88z"/><path class="cls-2" d="M224.65 112.14c.49-.11.74.11.8.59-.58.27-.51-.43-.8-.59zM91.68 193.31c-.41-.28-1.09-.41-.73-1.17.33.33.9.52.73 1.17zM420.33 20.32a.61.61 0 01-.63-.63c.45-.03.64.19.63.63z"/><path class="cls-2" d="M420.88 20.88c-.41 0-.59-.24-.62-.63.43-.02.64.19.62.63z"/><path class="cls-2" d="M421.4 21.45a.57.57 0 01-.58-.64c.44-.01.61.19.58.64zm8.45 8.94l-.63-.63c.51-.09.71.13.63.63z"/><path class="cls-2" d="M430.4 31l-.62-.63c.52-.15.67.12.62.63z"/><path class="cls-2" d="M431 31.52l-.62-.63c.43-.06.62.2.62.63zm10 10.63l-.63-.63q.81-.13.63.63z"/><path class="cls-2" d="M441.6 42.71l-.63-.63c.53-.08.67.17.63.63z"/><path class="cls-2" d="M442.16 43.27l-.63-.63c.47-.05.65.2.63.63zm10.08 10.64l-.63-.63c.54-.12.71.13.63.63z"/><path class="cls-2" d="M452.8 54.47l-.63-.63c.52-.1.67.16.63.63z"/><path class="cls-2" d="M453.36 55l-.63-.63c.48-.03.65.22.63.63zm10.08 10.67l-.63-.64c.52-.1.73.11.63.64z"/><path class="cls-2" d="M464 66.22l-.63-.63c.53-.11.69.15.63.63z"/><path class="cls-2" d="M464.56 66.79l-.63-.63c.51-.1.65.19.63.63z"/><path class="cls-2" d="M465.12 67.35l-.63-.63c.45-.04.65.18.63.63zm9.52 10.07l-.63-.63q.78-.15.63.63z"/><path class="cls-2" d="M475.19 78l-.62-.63c.53-.13.69.13.62.63z"/><path class="cls-2" d="M475.75 78.54l-.62-.63c.51-.09.65.19.62.63z"/><path class="cls-2" d="M476.31 79.1l-.62-.63c.45-.03.65.19.62.63zM93.92 195.55l-.63-.63c.52-.1.71.16.63.63z"/><path class="cls-2" d="M94.48 196.11l-.63-.63c.49-.07.67.17.63.63z"/><path class="cls-2" d="M95 196.67l-.63-.63q.73-.04.63.63z"/><path class="cls-2" d="M95.6 197.23l-.6-.63c.43-.04.63.18.6.63z"/><path class="cls-2" d="M96.16 197.79l-.63-.63c.47-.03.65.19.63.63z"/><path class="cls-2" d="M96.72 198.35a.64.64 0 01-.63-.63q.68-.03.63.63z"/><path class="cls-2" d="M97.28 198.91a.63.63 0 01-.63-.63c.45-.02.65.19.63.63z"/><path class="cls-2" d="M97.84 199.47a.62.62 0 01-.63-.63c.45-.02.64.16.63.63z"/><path class="cls-2" d="M98.4 200a.6.6 0 01-.63-.63c.44.01.64.23.63.63z"/><path class="cls-2" d="M99 200.59a.59.59 0 01-.63-.63.54.54 0 01.63.63z"/><path class="cls-2" d="M99.52 201.15a.57.57 0 01-.63-.63.55.55 0 01.63.63z"/><path class="cls-2" d="M100.08 201.71a.56.56 0 01-.63-.63.54.54 0 01.63.63z"/><path class="cls-2" d="M100.59 202.48l-.58-.84c.54.04.66.36.58.84zm-7.79-8.05l-.63-.63c.52-.09.71.13.63.63zm29.12 29.67l-.64-.63c.54-.11.72.11.64.63z"/><path class="cls-2" d="M122.47 224.66l-.63-.63c.54-.11.72.13.63.63z"/><path class="cls-2" d="M123 225.22l-.63-.63q.81-.13.63.63z"/><path class="cls-2" d="M123.59 225.78l-.63-.63c.52-.09.72.12.63.63z"/><path class="cls-2" d="M124.15 226.34l-.63-.63c.48-.09.72.13.63.63z"/><path class="cls-2" d="M124.71 226.9l-.63-.63q.77-.12.63.63z"/><path class="cls-2" d="M125.27 227.46l-.63-.63c.52-.09.69.17.63.63z"/><path class="cls-2" d="M125.83 228l-.63-.63c.5-.05.67.19.63.63z"/><path class="cls-2" d="M126.39 228.58l-.63-.62c.46-.05.67.16.63.62z"/><path class="cls-2" d="M127 229.14l-.63-.62c.41-.05.63.17.63.62z"/><path class="cls-2" d="M127.51 229.7l-.63-.62c.46-.08.65.18.63.62z"/><path class="cls-2" d="M128.07 230.26a.62.62 0 01-.62-.62c.44-.03.65.18.62.62z"/><path class="cls-2" d="M128.63 230.82a.62.62 0 01-.63-.62c.45-.03.66.18.63.62zm-36.39-36.95l-.63-.63c.52-.09.72.12.63.63zM418.09 18.08l-.63-.63q.78-.15.63.63z"/><path class="cls-2" d="M418.65 18.64L418 18c.55-.1.71.15.65.64z"/><path class="cls-2" d="M419.21 19.2l-.63-.63c.51-.1.65.19.63.63zm68.3 71.66l-.63-.63c.46-.03.66.19.63.63z"/><path class="cls-2" d="M487 90.3l-.63-.63c.47-.09.63.19.63.63zM153.27 256l-.63-.64c.53-.09.73.13.63.64z"/><path class="cls-2" d="M153.83 256.58l-.63-.64c.53-.11.72.13.63.64z"/><path class="cls-2" d="M154.39 257.14l-.63-.63q.77-.15.63.63z"/><path class="cls-2" d="M155 257.7l-.63-.63c.46-.07.63.12.63.63z"/><path class="cls-2" d="M155.51 258.26l-.63-.63c.51-.1.71.12.63.63z"/><path class="cls-2" d="M156.07 258.82l-.63-.63q.75-.13.63.63zM93.36 195l-.63-.63q.76-.13.63.63zm63.82 64.94l-.62-.63c.49-.08.67.17.62.63z"/><path class="cls-2" d="M157.74 260.49l-.62-.62c.46-.04.67.13.62.62z"/><path class="cls-2" d="M158.3 261.05l-.62-.62c.46-.05.65.18.62.62z"/><path class="cls-2" d="M158.86 261.62l-.62-.63c.45.01.65.18.62.63z"/><path class="cls-2" d="M159.42 262.17a.62.62 0 01-.62-.62c.44-.03.65.18.62.62z"/><path class="cls-2" d="M160 262.73a.61.61 0 01-.62-.62c.42-.03.62.18.62.62zM419.77 19.76l-.63-.63c.45-.03.65.19.63.63zM167.25 270a.55.55 0 01-.62-.63z"/><path class="cls-2" d="M167.81 270.58a.55.55 0 01-.62-.63z"/><path class="cls-2" d="M168.37 271.14a.55.55 0 01-.62-.63zm318.02-181.4l-.63-.63c.54-.11.7.15.63.63z"/><path class="cls-2" d="M485.84 89.18l-.64-.63c.53-.1.74.11.64.63zm-329.21 170.2l-.63-.63c.51-.1.68.15.63.63zm-27.14-19.18l4.13.16-.05-.05c-.12.56.34.49.64.6h-.05c.14 3.35.19 6.7.46 10 .16 1.93-.62 2.64-2.42 2.92-4.11.64-8.22 1.11-11.84 1.34 3.45.53 7.45.23 11.42.06 2-.09 2.59.53 2.51 2.47a34.74 34.74 0 00.32 6.69c.41 2.59-.68 3.29-3 3.23-2-.05-4.09.1-6.14.16-7.82.2-15.64.39-23.46.63-.94 0-2.6-.34-2.58.89 0 1.52 1.73 1 2.73 1a16.06 16.06 0 005.26-.31c-2.58-1.48-5.4-1.08-8-.58a25.92 25.92 0 01-3.79.39c-.69 0-1.7.27-1.78-.8s1-.84 1.64-.87c2.89-.11 5.78-.1 8.66-.2 1.21 0 2.41-.29 3.61-.36 1.55-.09 2-.87 1.87-2.35-.16-2-.18-4.1-.14-6.15s.09-4.12-2.12-3.3c1.55.15 1.91-1.27 1.6-3.32-.19-1.28 0-2.63-.21-3.9-.68-3.72.24-3.93 3.45-4.72 2.77-.68 5.71-.59 8.57-.83s5.64 0 8.34-1.14c1.17-.55.59-1.03.37-1.66zm-51.23-45.79l-58.54 62.87C15.46 261.85 11.19 266.42 7 271c-.52.57-2 1.14-.94 2.13a2.84 2.84 0 003.55 0c.35-.25-.64-.18-.95-.43-1.54-.51-3-.19-4.76 0q5.43-5.84 10.89-11.7Q45.38 228.16 76 195.39c.52-.54.82-2.29 2.26-.98z"/><path class="cls-2" d="M34.66 244.19c3.82-1.93 8.05-1.54 12.1-2.05 3.65-.46 7.36-.46 11-.67.85.56 1.81.2 2.71.37.56.1 1.35.14 1.26.81-.44 3.19 1.84 2.06 3.32 2.13 1.28.07 2.57 0 3.87 0 0 .81-.58.56-.92.54-10-.37-20.11.59-30.15-.46a7.37 7.37 0 01-3.19-.67zm48.48-3.83l5.89-.2c2.5.06 5 .1 7.51.2.81 0 2.17 0 2.16.82-.06 3.6 2.53 2.27 4.25 2.44a26.81 26.81 0 014.17.37l-12.44.66c-.82 0-1.56 0-1.45-1.11.18-1.8-.75-1.77-2.19-1.67-5.55.36-11.11.58-16.67.78-.82 0-2.22.47-2.3-.79-.1-1.66 1.47-.93 2.33-1 2.9-.43 5.86.37 8.74-.5z"/><path class="cls-3" d="M134.21 240.91c-.3-.11-.76 0-.64-.6z"/><path class="cls-2" d="M402.49 16.69l-71.79 74.9c-.32.33-.67.65-1 1s-1 .77-.67 1.38 1 .46 1.52.49h35.84a20.8 20.8 0 002.22-.2c.07 0 .15-.09.18-.16.2-.4-.16-.38-.39-.47-2.49-.61-5-.36-7.51-.37h-28c-1.73 0-3.49-.17-5.28.79 0-1.26.78-1.67 1.3-2.21q35.51-37 71.07-74c.6-.56.92-2.43 2.51-1.15zm19.14 71.2h.11c.26-.09.24-.21-.07-.21s-.32.14-.04.21z"/><path class="cls-3" d="M398.41 15.17c.27-.68.6-1.22 1.42-.59-.34.52-.51 1.42-1.42.59z"/><path class="cls-2" d="M256.22 87.22c-3.77-2.34-7.59-3.42-12-2.39a13.46 13.46 0 00-8.46 20.17 13.9 13.9 0 005.56 5.13c.41.21 1 .33.83.93s-.58.42-1.06.26c-5.83-1.87-9.9-5.48-11.23-11.63a14.46 14.46 0 015.17-15c4.78-4 10.25-4.62 16-2.19a8.93 8.93 0 015.19 4.72z"/></g></g></svg>