<svg xmlns="http://www.w3.org/2000/svg" viewBox="0 0 311.27 303.57"><defs><style>.cls-1{fill:#fff;}.cls-2{fill:#fcce0e;}.cls-3{fill:#2a2b2d;}.cls-4{fill:#2a2d35;}</style></defs><g id="Слой_2" data-name="Слой 2"><g id="Layer_1" data-name="Layer 1"><path class="cls-1" d="M311.14,173.57c-.92-21.29-6.44-41.38-15.63-60.45-18.63-38.64-47.1-68.2-84.31-89.19C179.12,5.83,144.77-3.42,107.69,1.17c-32.57,4-59.42,18.42-78.59,45.69A101.77,101.77,0,0,0,18.26,66.43c-1.57,2.88-3.16,5.75-4.7,8.66C2,96.87-1.79,120.1.75,144.47c2.81,26.9,12.4,51.36,27.42,73.67,24.54,36.45,57.49,62.27,99.12,76.65,23.1,8,46.85,10.75,71.17,7.36C220.89,299,240.73,290,258.3,275.77c11.11-7.54,21.62-15.77,29.92-26.49C305.51,227,312.34,201.53,311.14,173.57Z"/><path class="cls-2" d="M39.25,72.09A87.67,87.67,0,0,1,48.6,55.21c16.52-23.5,39.67-35.91,67.74-39.39,32-4,61.58,4,89.25,19.63,32.07,18.09,56.62,43.58,72.67,76.89a132.05,132.05,0,0,1,13.48,52.11c1,24.1-4.85,46-19.76,65.27-7.15,9.24-16.22,16.33-25.79,22.84-1.16-.74-1.91.3-2.71.72-13.86,7.16-28.69,10.38-44.18,10.73a132.32,132.32,0,0,1-24.66-1.42,158,158,0,0,1-28.38-7.1,177.09,177.09,0,0,1-28.19-13.07,175.34,175.34,0,0,1-26.73-18.76,183.53,183.53,0,0,1-39.34-47,148.49,148.49,0,0,1-10.23-21.31c-2.55-6.56-5.13-13.18-6.47-20.05a163.62,163.62,0,0,1-2.47-18.58,110.06,110.06,0,0,1,2.22-30.9C36,81.12,38,76.71,39.25,72.09ZM230.53,245.7a1.36,1.36,0,0,0,1.81.2,85.59,85.59,0,0,0,30.94-22.57c12.68-14.77,18.58-32.14,19.93-51.17,1-13.48-1.14-26.67-4.9-39.68-4.11-14.23-10.93-27.09-18.95-39.34C251.69,81.43,242.17,71.29,231.71,62a166.43,166.43,0,0,0-41.83-27,139.71,139.71,0,0,0-52-12.38A98.48,98.48,0,0,0,110,25.32c-13.4,3.26-25.73,8.89-36.46,17.87a81.58,81.58,0,0,0-24.38,34.9,90.06,90.06,0,0,0-5.07,21.22A78.32,78.32,0,0,0,44,108c.72-.24.87-.46.9-.7a89,89,0,0,1,10.5-33.36,79.81,79.81,0,0,1,34.39-33c10.21-5.18,20.87-8.76,32.47-9.3,4.52-.22,9.09-.91,13.58-.75,4.16.15,8.37.28,12.55.81a134.52,134.52,0,0,1,24.75,5.55,146.18,146.18,0,0,1,32.11,15c3.63,2.26,7.29,4.52,10.68,7.12a159.17,159.17,0,0,1,24.81,23.17A185.76,185.76,0,0,1,255,101.37c3.57,5.49,6.26,11.41,9.21,17.2,4.25,8.35,6.9,17.27,9,26.4,2.66,11.35,2.93,22.73,1.95,34.25a84.44,84.44,0,0,1-12,36.45,78.51,78.51,0,0,1-28.94,27.91Zm-65.38-74.61c-1.76-.49-3.13-.93-4.53-1.23-5.79-1.24-11.57-2.5-17.39-3.6-2.08-.39-2.87-1.28-2.66-3.44s0-4.48.13-6.71c.11-1.8-.16-2.89-2.32-3.05a39.63,39.63,0,0,1-5.26-1.23c-.74-.17-1.31-.38-1.3-1.28.05-3.1,0-6.2.16-9.29.06-1.33.56-2.25,2.32-1.63a32.33,32.33,0,0,0,5,1.13c.75.14,1.5.24,1.79-.88.71-2.79-.09-4.16-2.85-4.72-1.35-.27-2.66-.75-4-.91-1.55-.19-2-1-2-2.43.07-4.73.08-9.47.07-14.2,0-.79.39-1.72-.64-2.54a19.58,19.58,0,0,1-6.35,6.23c-.63.36-.65,1.14-.81,1.82-.94,4.17-.2,8.4-.45,12.59a6.64,6.64,0,0,0,.83,3.72,5.09,5.09,0,0,1-.44,6,5.73,5.73,0,0,0-.94,2.88c-.86,6,2,10.6,5.63,14.88a7.66,7.66,0,0,1,2,3.28c.66,3.55,3.2,5.44,6,6.91,5.25,2.72,11.11,3.17,16.81,4.32,3.68.73,6.15-.29,8.07-3.21A32.48,32.48,0,0,1,165.15,171.09Zm-.2-57.74H165c0,1,0,2.07,0,3.1,0,5.11,0,5.14,4.92,6.27,3.41.79,6.71,2.17,10.31,2.1s5.81-2.27,5.91-5.76a10.52,10.52,0,0,0-7.75-10.91c-3.82-1.26-7.82-2-11.75-3-1.19-.28-1.76.12-1.72,1.43C165,108.87,165,111.11,165,113.35Zm-23.08-33.3a3,3,0,0,0-2,1.46c-1.26,1.93-2.33,3.93-4.95,4.5a2.35,2.35,0,0,0-1.51,2.48c.22,7.57-.21,15.13-.52,22.69-.08,2.1,1.08,3.17,2.89,3.71,1.07.32,2.24.32,3.26.73,2.32.93,2.57-.17,2.56-2.13,0-8.53.06-17.07,0-25.6C141.65,85.33,142.58,82.81,141.87,80.05Zm23.59,84.42c0,1,.06,2.07,0,3.1-.12,1.75.27,2.66,2.36,3,3.79.68,7.59,1.33,11.4,1.71,2.85.28,5.92,1.19,8.53-1.24,1.38-1.28,1.74-3.16,3.05-4.4,1.77-1.7.71-2.15-1-2.51q-9.44-2-18.85-4.09C165.31,158.82,165.31,158.79,165.46,164.47ZM191,151.75c4.1.54,11.59-5.19,12.57-10.19.1-.51.26-1.1-.2-1.44-.62-.45-1.09,0-1.57.42-8.48,6.52-18,4.64-27.36,3.11a76.09,76.09,0,0,1-7.87-2.05c-.48-.13-1-.34-1.4.17-1,1.24.07,4.54,1.69,4.95s3.5.88,5.26,1.24C178.43,149.25,184.6,151.1,191,151.75Z"/><path class="cls-3" d="M39.25,72.09c-1.27,4.62-3.23,9-4.2,13.75a110.06,110.06,0,0,0-2.22,30.9,163.62,163.62,0,0,0,2.47,18.58c1.34,6.87,3.92,13.49,6.47,20.05A148.49,148.49,0,0,0,52,176.68a183.53,183.53,0,0,0,39.34,47,175.34,175.34,0,0,0,26.73,18.76,177.09,177.09,0,0,0,28.19,13.07,158,158,0,0,0,28.38,7.1A132.32,132.32,0,0,0,199.3,264c15.49-.35,30.32-3.57,44.18-10.73.8-.42,1.55-1.46,2.71-.72-15.15,12.23-32.25,20-51.59,22.74A130.55,130.55,0,0,1,133.24,269C97.36,256.55,69,234.3,47.79,202.87c-12.94-19.23-21.21-40.32-23.63-63.51-2.19-21,1.1-41,11-59.81C36.52,77.05,37.9,74.57,39.25,72.09Z"/><path class="cls-4" d="M230.53,245.7l3.64-2.12a78.51,78.51,0,0,0,28.94-27.91,84.44,84.44,0,0,0,12-36.45c1-11.52.71-22.9-1.95-34.25-2.14-9.13-4.79-18-9-26.4-3-5.79-5.64-11.71-9.21-17.2a185.76,185.76,0,0,0-14.19-18.91A159.17,159.17,0,0,0,216,59.29c-3.39-2.6-7-4.86-10.68-7.12a146.18,146.18,0,0,0-32.11-15,134.52,134.52,0,0,0-24.75-5.55c-4.18-.53-8.39-.66-12.55-.81-4.49-.16-9.06.53-13.58.75-11.6.54-22.26,4.12-32.47,9.3a79.81,79.81,0,0,0-34.39,33,89,89,0,0,0-10.5,33.36c0,.24-.18.46-.9.7a78.32,78.32,0,0,1,0-8.67,90.06,90.06,0,0,1,5.07-21.22,81.58,81.58,0,0,1,24.38-34.9c10.73-9,23.06-14.61,36.46-17.87a98.48,98.48,0,0,1,27.85-2.76,139.71,139.71,0,0,1,52,12.38,166.43,166.43,0,0,1,41.83,27c10.46,9.32,20,19.46,27.65,31.17,8,12.25,14.84,25.11,18.95,39.34,3.76,13,5.86,26.2,4.9,39.68-1.35,19-7.25,36.4-19.93,51.17a85.59,85.59,0,0,1-30.94,22.57A1.36,1.36,0,0,1,230.53,245.7Z"/><path class="cls-4" d="M165.15,171.09a32.48,32.48,0,0,0-3.09,3.43c-1.92,2.92-4.39,3.94-8.07,3.21-5.7-1.15-11.56-1.6-16.81-4.32-2.83-1.47-5.37-3.36-6-6.91a7.66,7.66,0,0,0-2-3.28c-3.62-4.28-6.49-8.87-5.63-14.88a5.73,5.73,0,0,1,.94-2.88,5.09,5.09,0,0,0,.44-6,6.64,6.64,0,0,1-.83-3.72c.25-4.19-.49-8.42.45-12.59.16-.68.18-1.46.81-1.82a19.58,19.58,0,0,0,6.35-6.23c1,.82.63,1.75.64,2.54,0,4.73,0,9.47-.07,14.2,0,1.45.4,2.24,2,2.43,1.36.16,2.67.64,4,.91,2.76.56,3.56,1.93,2.85,4.72-.29,1.12-1,1-1.79.88a32.33,32.33,0,0,1-5-1.13c-1.76-.62-2.26.3-2.32,1.63-.13,3.09-.11,6.19-.16,9.29,0,.9.56,1.11,1.3,1.28a39.63,39.63,0,0,0,5.26,1.23c2.16.16,2.43,1.25,2.32,3.05-.15,2.23.1,4.49-.13,6.71s.58,3.05,2.66,3.44c5.82,1.1,11.6,2.36,17.39,3.6C162,170.16,163.39,170.6,165.15,171.09Z"/><path class="cls-4" d="M165,113.35c0-2.24.05-4.48,0-6.72,0-1.31.53-1.71,1.72-1.43,3.93,1,7.93,1.69,11.75,3a10.52,10.52,0,0,1,7.75,10.91c-.1,3.49-2.36,5.68-5.91,5.76s-6.9-1.31-10.31-2.1c-4.89-1.13-4.88-1.16-4.92-6.27,0-1,0-2.06,0-3.1Z"/><path class="cls-4" d="M141.87,80.05c.71,2.76-.22,5.28-.21,7.84,0,8.53-.08,17.07,0,25.6,0,2-.24,3.06-2.56,2.13-1-.41-2.19-.41-3.26-.73-1.81-.54-3-1.61-2.89-3.71.31-7.56.74-15.12.52-22.69A2.35,2.35,0,0,1,134.94,86c2.62-.57,3.69-2.57,4.95-4.5A3,3,0,0,1,141.87,80.05Z"/><path class="cls-4" d="M165.46,164.47c-.15-5.68-.15-5.65,5.5-4.4q9.4,2.09,18.85,4.09c1.68.36,2.74.81,1,2.51-1.31,1.24-1.67,3.12-3.05,4.4-2.61,2.43-5.68,1.52-8.53,1.24-3.81-.38-7.61-1-11.4-1.71-2.09-.37-2.48-1.28-2.36-3C165.52,166.54,165.46,165.5,165.46,164.47Z"/><path class="cls-4" d="M191,151.75c-6.42-.65-12.59-2.5-18.88-3.79-1.76-.36-3.51-.8-5.26-1.24s-2.72-3.71-1.69-4.95c.42-.51.92-.3,1.4-.17a76.09,76.09,0,0,0,7.87,2.05c9.33,1.53,18.88,3.41,27.36-3.11.48-.37,1-.87,1.57-.42.46.34.3.93.2,1.44C202.61,146.56,195.12,152.29,191,151.75Z"/></g></g></svg>