<svg xmlns="http://www.w3.org/2000/svg" viewBox="0 0 180.88 187.09"><defs><style>.cls-1{fill:#fff;}.cls-2{fill:#fcce0e;}.cls-3{fill:#1d1a05;}</style></defs><g id="Слой_2" data-name="Слой 2"><g id="Layer_1" data-name="Layer 1"><path class="cls-1" d="M179.12,74a85.39,85.39,0,0,0-17.57-38.21c-.42-.51-.74-1.22-1.61-1.09-.9-2.21-2.72-3.73-4.23-5.47A81.71,81.71,0,0,0,129.5,8.63c-23-11.13-46.43-11.34-69.85-1.5C38.93,15.83,23.41,30.54,12.71,50.2.2,73.19-3.27,97.57,3.17,123,8,142.3,18.23,158.32,34.12,170.52a71,71,0,0,0,22,11.85,60.64,60.64,0,0,0,10.66,3c8.66,1.9,17.41,1.91,26.2,1.34a88.42,88.42,0,0,0,20.84-3.39c28.7-9,48.32-27.84,59.79-55.32A92.57,92.57,0,0,0,179.12,74Z"/><path class="cls-2" d="M60.14,170.11a61.2,61.2,0,0,1-19-10.21A72.62,72.62,0,0,1,14.47,119C8.92,97,11.92,76,22.7,56.18c9.22-16.94,22.6-29.62,40.46-37.13,20.19-8.48,40.36-8.3,60.21,1.3A70.32,70.32,0,0,1,146,38.14c1.3,1.5,2.87,2.81,3.65,4.72.24.42.46.85.73,1.25a78.78,78.78,0,0,1,13.15,40.07A85.42,85.42,0,0,1,155.74,125a84.85,84.85,0,0,1-28.44,34.52,76.38,76.38,0,0,1-33.75,13.6,71.16,71.16,0,0,1-22.28-.26C67.48,172.21,63.83,171.11,60.14,170.11ZM138.23,39.67l.26.26s.1-.09.09-.1-.16-.18-.24-.27c0-.53-.4-.78-.7-1.08a60.58,60.58,0,0,0-17.46-12.9C98.13,15,76.56,16.68,55.63,28.69A73.27,73.27,0,0,0,28.14,56.61C16.42,77.28,13.52,99,21.05,121.82a3.42,3.42,0,0,0,.37,1,1.71,1.71,0,0,0,1.83.66c.71-.22.06-.86-.06-1.23a75.85,75.85,0,0,1-2-40.22c5.59-24.85,19.35-43.75,42.54-54.57,24.15-11.27,47.43-8.87,68.88,7.45C134.57,36.37,136.36,38.07,138.23,39.67ZM103.78,70.78a.69.69,0,0,0,0,.75,19.25,19.25,0,0,1,2.08,11.76,19.07,19.07,0,0,1-17.62,17.62,49.91,49.91,0,0,1-9.47-.45c-1.6-.16-2.16.27-2.07,1.8,0,.66-.46,1.57.87,1.53,1,0,2.23.49,2.1-1.28-.07-1,.4-1.16,1.26-1.07,1.72.2,3.45.28,5.17.48,10.51,1.21,19.22-4.54,21.66-14.42,1.23-5,1.13-9.81-1.43-14.4C105.79,72.05,105.17,71,103.78,70.78Zm-40.2,47.89c4.33.43,8.66.83,13,1.32.93.1,1.07-.22,1.14-1,.1-1.28.32-2.56.49-3.83.34-2.66.33-2.6,3-2.32,3.93.41,7.88.75,11.82,1.11.53,0,1.11.21,1.2-.64.23-2.27.59-4.52.71-6.79.07-1.36-1.34-1.1-2.1-1.34s-.52.65-.58,1c-.24,1.92-.47,3.83-.64,5.75-.08.93-.39,1.24-1.39,1.13-4.43-.47-8.87-.82-13.3-1.28-1-.1-1.4.12-1.49,1.17-.14,1.77-.48,3.53-.63,5.3-.07.89-.45,1-1.22.94-1.43-.18-2.85-.37-4.28-.45C67.39,118.67,65.51,118.2,63.58,118.67ZM90.44,77.9a4.8,4.8,0,0,0-3.06-1.4c-2-.16-4-.2-6.07-.37-1-.09-1.42.32-1.53,1.29-.31,2.9-.63,5.79-1,8.68-.13,1,.2,1.41,1.15,1.41.76,0,1.65.48,1.77-1,.22-2.61.67-5.19.94-7.8.11-1,.57-1.3,1.55-1.22C86.13,77.7,88.11,77.77,90.44,77.9Zm-31.09,21a8.55,8.55,0,0,0,3,1c.38,0,1,.3,1.12-.28s-.6-.48-1-.51C61.56,99,60.6,99,59.35,98.94ZM58,110.11c1.52.59,2.74,1.13,4.12.41Z"/><path class="cls-3" d="M60.14,170.11c3.69,1,7.34,2.1,11.13,2.75a71.16,71.16,0,0,0,22.28.26,76.38,76.38,0,0,0,33.75-13.6A84.85,84.85,0,0,0,155.74,125a85.42,85.42,0,0,0,7.75-40.82,78.78,78.78,0,0,0-13.15-40.07c-.27-.4-.49-.83-.73-1.25.75-.12,1,.49,1.39.94a73.58,73.58,0,0,1,15.15,32.93,79.82,79.82,0,0,1-4.73,46.56c-9.88,23.68-26.8,40-51.54,47.69a76.3,76.3,0,0,1-18,2.92c-7.58.48-15.12.48-22.59-1.16A51.56,51.56,0,0,1,60.14,170.11Z"/><path class="cls-3" d="M138.23,39.67c-1.87-1.6-3.66-3.3-5.62-4.79-21.45-16.32-44.73-18.72-68.88-7.45C40.54,38.25,26.78,57.15,21.19,82a75.85,75.85,0,0,0,2,40.22c.12.37.77,1,.06,1.23a1.71,1.71,0,0,1-1.83-.66,3.42,3.42,0,0,1-.37-1C13.52,99,16.42,77.28,28.14,56.61A73.27,73.27,0,0,1,55.63,28.69c20.93-12,42.5-13.68,64.55-3.11a60.58,60.58,0,0,1,17.46,12.9c.3.3.72.55.7,1.08Z"/><path class="cls-3" d="M103.78,70.78c1.39.18,2,1.27,2.6,2.32,2.56,4.59,2.66,9.45,1.43,14.4-2.44,9.88-11.15,15.63-21.66,14.42-1.72-.2-3.45-.28-5.17-.48-.86-.09-1.33.11-1.26,1.07.13,1.77-1.13,1.26-2.1,1.28-1.33,0-.82-.87-.87-1.53-.09-1.53.47-2,2.07-1.8a49.91,49.91,0,0,0,9.47.45,19.07,19.07,0,0,0,17.62-17.62,19.25,19.25,0,0,0-2.08-11.76A.69.69,0,0,1,103.78,70.78Z"/><path class="cls-3" d="M63.58,118.67c1.93-.47,3.81,0,5.71.12,1.43.08,2.85.27,4.28.45.77.11,1.15,0,1.22-.94.15-1.77.49-3.53.63-5.3.09-1,.51-1.27,1.49-1.17,4.43.46,8.87.81,13.3,1.28,1,.11,1.31-.2,1.39-1.13.17-1.92.4-3.83.64-5.75.06-.4-.16-1.28.58-1s2.17,0,2.1,1.34c-.12,2.27-.48,4.52-.71,6.79-.09.85-.67.69-1.2.64-3.94-.36-7.89-.7-11.82-1.11-2.66-.28-2.65-.34-3,2.32-.17,1.27-.39,2.55-.49,3.83-.07.78-.21,1.1-1.14,1C72.24,119.5,67.91,119.1,63.58,118.67Z"/><path class="cls-3" d="M90.44,77.9c-2.33-.13-4.31-.2-6.27-.38-1-.08-1.44.17-1.55,1.22-.27,2.61-.72,5.19-.94,7.8-.12,1.45-1,1-1.77,1-1,0-1.28-.42-1.15-1.41.39-2.89.71-5.78,1-8.68.11-1,.5-1.38,1.53-1.29,2,.17,4,.21,6.07.37A4.8,4.8,0,0,1,90.44,77.9Z"/><path class="cls-3" d="M59.35,98.94c1.25.07,2.21.1,3.16.19.38,0,1.07-.1,1,.51s-.74.31-1.12.28A8.55,8.55,0,0,1,59.35,98.94Z"/><path class="cls-3" d="M58,110.11l4.12.41C60.76,111.24,59.54,110.7,58,110.11Z"/><path class="cls-3" d="M138.34,39.56c.08.09.17.18.24.27s-.06.07-.09.1l-.26-.26Z"/></g></g></svg>