<svg xmlns="http://www.w3.org/2000/svg" viewBox="0 0 58.16 57.44"><defs><style>.cls-1{fill:#fff;}.cls-2{fill:#191604;}</style></defs><g id="Слой_2" data-name="Слой 2"><g id="Layer_1" data-name="Layer 1"><path class="cls-1" d="M50.07,49.9a26.08,26.08,0,0,1-2.89,2.15L46,52.72a1.75,1.75,0,0,0-.69.29,25.85,25.85,0,0,1-12.12,2.9,29.76,29.76,0,0,1-13.52-3.2A32.71,32.71,0,0,1,2.61,33.17,27.41,27.41,0,0,1,1.43,21.1a32.67,32.67,0,0,1,1.32-5.61,20.57,20.57,0,0,1,4-6.81A24.07,24.07,0,0,1,23.1.17,30.31,30.31,0,0,1,43.6,5.51,32.78,32.78,0,0,1,56.51,22a33.78,33.78,0,0,1,1.3,5.54A21.91,21.91,0,0,1,58.1,33,25.07,25.07,0,0,1,56,41.89a31.51,31.51,0,0,1-3.27,5.29,6.32,6.32,0,0,1-.56.6l0,0-.1.08L52,48l0,0-.12.12h0l-.12.12h0l-.12.12h0l-.12.12h0l-.78.78v0l-.23.24,0,0-.13.13,0,0-.13.13,0,0-.12.13v0ZM4.51,31.53c0-.08,0-.18,0-.26a24,24,0,0,1-.91-6.13A20.84,20.84,0,0,1,6,14.43,21.25,21.25,0,0,1,14.8,5.67a23.73,23.73,0,0,1,17-2.16C41.94,5.88,49.12,12,53.23,21.59A24.69,24.69,0,0,1,55,35a21.82,21.82,0,0,1-5.9,12.29c-.1.1-.28.18-.17.43.19-.16.36-.3.52-.45a21,21,0,0,0,5-7.19,24.23,24.23,0,0,0,.35-17.65A30.93,30.93,0,0,0,29.45,2a24.74,24.74,0,0,0-11.6,1.35A21.25,21.25,0,0,0,5.32,15.13,23.62,23.62,0,0,0,4.51,31.53ZM22.74,29.9a1.61,1.61,0,0,0-.84,1.58,7.37,7.37,0,0,1,0,1.41c0,.52.07.84.69.77.27,0,.54.07.81.06s.48.1.47.46c0,.64.05,1.27.05,1.91,0,.27.07.37.36.39,1.42.08,2.84.16,4.25.32.75.09,1.1-.33,1.52-.86-1.66-.12-3.25-.25-4.85-.34-.38,0-.49-.14-.48-.51,0-.6,0-1.2,0-1.8,0-.38-.14-.52-.5-.52s-.69-.05-1-.06-.48-.13-.47-.49C22.76,31.45,22.74,30.67,22.74,29.9Zm10.65-5.11a1.51,1.51,0,0,0,.91-1.12,2.22,2.22,0,0,0-1.86-2.62c-.72-.1-1.45-.16-2.17-.22s-.72,0-.7.67c0,.33.11.45.43.45s.69.07,1,.1a2.55,2.55,0,0,1,1.93.87A2.5,2.5,0,0,1,33.39,24.79Zm-9-9-.23,0c-.22.42-.66.71-.65,1.27.05,2.26.11,4.52.13,6.78,0,.49.35.37.6.4s.23-.25.23-.42c0-1.26-.07-2.51-.08-3.77S24.4,17.17,24.4,15.75ZM22.66,24.2c-.81.62-.87.76-.85,1.57,0,1.13.06,2.25.07,3.38,0,.3.06.43.41.47a6.17,6.17,0,0,1,1.75.25c.42.18.63,0,.61-.52s-.14-.7-.65-.66c-.25,0-.51-.08-.75-.06-.54.05-.61-.23-.6-.67C22.67,26.7,22.66,25.45,22.66,24.2Zm14.21,4.5c-.11,0-.17,0-.21,0a7.08,7.08,0,0,1-4.29.69c-.69-.08-1.38-.11-2.07-.16-.21,0-.49-.1-.41.28s-.26.7.33.74,1.45.15,2.18.16a6.45,6.45,0,0,0,3.75-1C36.43,29.26,36.76,29.11,36.87,28.7Zm-.88,5-5.66-.41c-.12,0-.24-.06-.31.12a.61.61,0,0,0,.58.88c1.22.09,2.45.09,3.65.28C35.08,34.68,35.47,34.26,36,33.67Zm12.7,14-.6.51A.63.63,0,0,0,48.69,47.7Z"/><path class="cls-2" d="M2.75,15.49A32.67,32.67,0,0,0,1.43,21.1,27.41,27.41,0,0,0,2.61,33.17a32.71,32.71,0,0,0,17.1,19.54,29.76,29.76,0,0,0,13.52,3.2A25.85,25.85,0,0,0,45.35,53a1.75,1.75,0,0,1,.69-.29.41.41,0,0,1-.11.12A32.1,32.1,0,0,1,36,57a27.09,27.09,0,0,1-12.44-.5C12.82,53.38,5.43,46.63,1.62,36.17a25.74,25.74,0,0,1,.67-19.59Z"/><path class="cls-2" d="M50.77,49.16l.78-.78A1.64,1.64,0,0,1,50.77,49.16Z"/><path class="cls-2" d="M50.07,49.9l.16-.21Z"/><path class="cls-2" d="M52.18,47.75l0,0Z"/><path class="cls-2" d="M50.55,49.38l.23-.24A.21.21,0,0,1,50.55,49.38Z"/><path class="cls-2" d="M52,48l.11-.13C52.09,47.91,52.06,48,52,48Z"/><path class="cls-2" d="M51.87,48.06l.12-.12C52,48,52,48.07,51.87,48.06Z"/><path class="cls-2" d="M51.76,48.17l.12-.12Q51.88,48.19,51.76,48.17Z"/><path class="cls-2" d="M51.65,48.28l.12-.12C51.77,48.24,51.74,48.29,51.65,48.28Z"/><path class="cls-2" d="M51.54,48.39l.12-.12Q51.68,48.41,51.54,48.39Z"/><path class="cls-2" d="M50.44,49.49l.13-.13C50.58,49.46,50.53,49.49,50.44,49.49Z"/><path class="cls-2" d="M50.33,49.6l.13-.13C50.46,49.56,50.42,49.6,50.33,49.6Z"/><path class="cls-2" d="M50.23,49.71l.12-.13C50.35,49.67,50.3,49.7,50.23,49.71Z"/><path class="cls-2" d="M4.51,31.53a23.62,23.62,0,0,1,.81-16.4A21.25,21.25,0,0,1,17.85,3.34,24.74,24.74,0,0,1,29.45,2a30.93,30.93,0,0,1,25.29,20.4A24.23,24.23,0,0,1,54.39,40a21,21,0,0,1-5,7.19c-.16.15-.33.29-.52.45-.11-.25.07-.33.17-.43A21.82,21.82,0,0,0,55,35a24.69,24.69,0,0,0-1.76-13.37C49.12,12,41.94,5.88,31.76,3.51a23.73,23.73,0,0,0-17,2.16A21.25,21.25,0,0,0,6,14.43,20.84,20.84,0,0,0,3.56,25.14a24,24,0,0,0,.91,6.13C4.49,31.35,4.49,31.45,4.51,31.53Z"/><path class="cls-2" d="M22.74,29.9c0,.77,0,1.55,0,2.32,0,.36.13.49.47.49s.69.06,1,.06.52.14.5.52c0,.6,0,1.2,0,1.8,0,.37.1.49.48.51,1.6.09,3.19.22,4.85.34-.42.53-.77,1-1.52.86-1.41-.16-2.83-.24-4.25-.32-.29,0-.36-.12-.36-.39,0-.64-.06-1.27-.05-1.91,0-.36-.12-.47-.47-.46s-.54-.09-.81-.06c-.62.07-.72-.25-.69-.77a7.37,7.37,0,0,0,0-1.41A1.61,1.61,0,0,1,22.74,29.9Z"/><path class="cls-2" d="M33.39,24.79A2.5,2.5,0,0,0,33,22.92,2.55,2.55,0,0,0,31,22.05c-.34,0-.68-.09-1-.1s-.43-.12-.43-.45c0-.72,0-.73.7-.67s1.45.12,2.17.22a2.22,2.22,0,0,1,1.86,2.62A1.51,1.51,0,0,1,33.39,24.79Z"/><path class="cls-2" d="M24.4,15.75c0,1.42,0,2.83,0,4.24s.06,2.51.08,3.77c0,.17.12.46-.23.42s-.59.09-.6-.4c0-2.26-.08-4.52-.13-6.78,0-.56.43-.85.65-1.27Z"/><path class="cls-2" d="M22.66,24.2c0,1.25,0,2.5,0,3.76,0,.44.06.72.6.67.24,0,.5.08.75.06.51,0,.63.17.65.66s-.19.7-.61.52a6.17,6.17,0,0,0-1.75-.25c-.35,0-.41-.17-.41-.47,0-1.13-.05-2.25-.07-3.38C21.79,25,21.85,24.82,22.66,24.2Z"/><path class="cls-2" d="M36.87,28.7c-.11.41-.44.56-.72.74a6.45,6.45,0,0,1-3.75,1c-.73,0-1.45-.11-2.18-.16s-.27-.48-.33-.74.2-.29.41-.28c.69.05,1.38.08,2.07.16a7.08,7.08,0,0,0,4.29-.69S36.76,28.7,36.87,28.7Z"/><path class="cls-2" d="M36,33.67c-.52.59-.91,1-1.74.87-1.2-.19-2.43-.19-3.65-.28a.61.61,0,0,1-.58-.88c.07-.18.19-.13.31-.12Z"/><path class="cls-2" d="M48.69,47.7a.63.63,0,0,1-.6.51Z"/></g></g></svg>