<svg xmlns="http://www.w3.org/2000/svg" viewBox="0 0 1101.86 982.75"><defs><style>.cls-1{fill:#f8c31b;}.cls-2{fill:#5858a6;stroke:#231f20;stroke-miterlimit:10;stroke-width:0.5px;}</style></defs><g id="Слой_2" data-name="Слой 2"><g id="Layer_1" data-name="Layer 1"><polygon class="cls-1" points="1077.29 0.25 1077.29 982.5 67.74 982.5 67.74 863.25 203.82 863.25 203.82 735.42 67.74 735.42 67.74 611.98 0 611.98 0 493.31 107.58 493.31 107.58 366.08 262.4 366.08 262.4 238.25 171.89 238.25 171.89 122.68 356.9 122.68 356.9 0.25 1077.29 0.25"/><polygon class="cls-2" points="1101.61 0.25 1101.61 982.5 92.05 982.5 92.05 863.25 228.13 863.25 228.13 735.42 92.05 735.42 92.05 611.98 24.31 611.98 24.31 493.31 131.89 493.31 131.89 366.08 286.71 366.08 286.71 238.25 196.2 238.25 196.2 122.68 381.21 122.68 381.21 0.25 1101.61 0.25"/></g></g></svg>