<svg xmlns="http://www.w3.org/2000/svg" viewBox="0 0 1101.61 982.25"><defs><style>.cls-1{fill:#f8c31b;}.cls-2{fill:#5858a6;}</style></defs><g id="Слой_2" data-name="Слой 2"><g id="Layer_1" data-name="Layer 1"><polygon class="cls-1" points="1077.29 0 1077.29 982.25 67.74 982.25 67.74 863 203.82 863 203.82 735.17 67.74 735.17 67.74 611.73 0 611.73 0 493.06 107.58 493.06 107.58 365.83 262.4 365.83 262.4 238 171.89 238 171.89 122.43 356.9 122.43 356.9 0 1077.29 0"/><polygon class="cls-2" points="1101.61 0 1101.61 982.25 92.05 982.25 92.05 863 228.13 863 228.13 735.17 92.05 735.17 92.05 611.73 24.31 611.73 24.31 493.06 131.89 493.06 131.89 365.83 286.71 365.83 286.71 238 196.2 238 196.2 122.43 381.21 122.43 381.21 0 1101.61 0"/></g></g></svg>