<svg xmlns="http://www.w3.org/2000/svg" viewBox="0 0 472.6 987.66"><defs><style>.cls-1{fill:#090806;}.cls-2{fill:#f4c239;}</style></defs><g id="Слой_2" data-name="Слой 2"><g id="Layer_1" data-name="Layer 1"><polygon class="cls-1" points="287.59 127.83 287.59 243.4 378.1 243.4 378.1 371.23 223.28 371.23 223.28 498.47 115.7 498.47 115.7 617.14 183.44 617.14 183.44 740.57 319.52 740.57 319.52 868.4 183.44 868.4 183.44 987.65 26.33 987.65 26.33 0 472.6 0 472.6 127.83 287.59 127.83"/><polygon class="cls-2" points="261.26 127.83 261.26 243.4 351.77 243.4 351.77 371.23 196.95 371.23 196.95 498.47 89.37 498.47 89.37 617.14 157.11 617.14 157.11 740.57 293.19 740.57 293.19 868.4 157.11 868.4 157.11 987.65 0 987.65 0 0 446.27 0 446.27 127.83 261.26 127.83"/></g></g></svg>