<svg xmlns="http://www.w3.org/2000/svg" viewBox="0 0 492.95 502.94"><defs><style>.cls-1{fill:#f8c31b;}.cls-2{fill:#090806;}.cls-3{fill:#fff;}</style></defs><g id="Слой_2" data-name="Слой 2"><g id="Layer_1" data-name="Layer 1"><path class="cls-1" d="M226.46,439.18c5.07-2,4.7-6.81,4.95-10.85,1-15.55.7-31.14.71-46.72q0-121.33.06-242.67c0-6.53.31-13,.48-19.58,5.91,2.7,12,3.83,18.47,2.3,1.08-.26,1.59.09,1.55,1.23,0,.93,0,1.87,0,2.8q0,98.67,0,197.34c0,29.86-.1,59.71.19,89.57.08,8.86-.84,18,4.28,26.48-10.16.94-19.95.49-29.73.47A3.23,3.23,0,0,1,226.46,439.18Z"/><path class="cls-1" d="M1.45,277.68c-1.57-1.66-2.17-3.11-.23-5.18C15.53,257.28,29.72,242,44,226.66q15.25-16.38,30.54-32.72c1.07-1.14,1.46-1.95.68-3.58A9,9,0,0,1,88,179a3,3,0,0,0,3.5-.06q64-35.37,128.05-70.68c.74-.4,1.42-.89,2.13-1.33,1.81,2.16,1.32,3.38-1.22,4.77q-38.73,21.17-77.32,42.59Q118.32,168,93.51,181.73c-.65.36-2.38.35-1.41,2A12,12,0,0,1,91,192.14c-.36.76.32.89.73,1.17l-.07-.07.63.63-.07-.07.63.63-.07-.07.63.63-.07-.07.63.63-.07-.07.63.63-.07-.07.63.63L95,196.6l.63.63-.07-.07.63.63-.07-.07a.64.64,0,0,0,.63.63l-.07-.07a.63.63,0,0,0,.63.63l-.07-.07a.62.62,0,0,0,.63.63l-.07-.07a.6.6,0,0,0,.63.63l-.07-.07a.59.59,0,0,0,.63.63l-.07-.07a.57.57,0,0,0,.63.63l-.07-.07a.56.56,0,0,0,.63.63l-.07-.07.58.84,1.47,1.48,19.3,19.59-.08-.08.64.63-.08-.07.63.63-.07-.07.63.63-.07-.07.63.63-.07-.07.63.63-.07-.07.63.63-.07-.07.63.63-.07-.07.63.63-.07-.06.63.62-.07-.06.63.62-.07-.06.63.62-.06-.06a.62.62,0,0,0,.62.62l-.07-.06a.62.62,0,0,0,.63.62l-.07-.06c1.09,2,3.19,3,4.62,4.64,6.14,7.06,12.94,13.45,19.53,20.06l-.07-.08.63.64-.07-.08.63.64-.07-.07.63.63-.07-.07.63.63-.07-.07.63.63-.07-.07.63.63-.07-.07.63.63-.07-.07.62.63-.06-.07.62.62-.06-.06.62.62-.06-.06.62.63-.06-.07a.62.62,0,0,0,.62.62l-.06-.06a.61.61,0,0,0,.62.62l-.06-.06c1.81,2.7,4.52,4.52,6.77,6.79l-.06-.07a.55.55,0,0,0,.62.63l-.06-.07a.55.55,0,0,0,.62.63l-.06-.07a.55.55,0,0,0,.62.63l-.07-.06c1.15,3.73-1.45,1.53-2.59,1.64-3.44-3.52-6.86-7.07-10.33-10.56q-10.59-10.68-21.22-21.3l.05,0-.64-.6.05.05c-.79-1.52-2.18-2.51-3.34-3.69q-19.94-20.34-39.94-40.6c-.7-.71-1.23-2.1-2.69-1.36-3.19,1.62-6.3,1.11-9.39-.3-1.44-1.31-1.74.44-2.25,1Q45.36,228.15,14.79,261q-5.47,5.86-10.92,11.77c1.74-.18,3.22-.5,4.74,0,8.16.94,16.35.2,24.53.42,1.43,0,1.34-.95,1.34-1.9,0-3.44.1-6.9-.12-10.33-.13-2.14.6-2.76,2.65-2.71,4.51.11,9,0,13.52,0v-.89c-4.59-.27-9.21.05-13.77-.67-1-.17-2.16-.22-2.14-1.67,0-3.61-.51-7.23,0-10.84a7.37,7.37,0,0,0,3.23.69c10,1.05,20.11.09,30.15.46.34,0,1,.27.92-.54-1.3,0-2.59,0-3.87,0-1.48-.07-3.76,1.06-3.32-2.13.09-.67-.7-.71-1.26-.81-.9-.17-1.86.19-2.71-.37,8.43-.69,16.87-1.2,25.34-1.11-2.88.87-5.84.07-8.74.46-.86.11-2.43-.62-2.33,1,.08,1.26,1.48.82,2.3.79,5.56-.2,11.12-.42,16.67-.78,1.44-.1,2.37-.13,2.19,1.67-.11,1.08.63,1.16,1.45,1.11l12.44-.66a26.81,26.81,0,0,0-4.17-.37c-1.72-.17-4.31,1.16-4.25-2.44,0-.83-1.35-.79-2.16-.82-2.5-.1-5-.14-7.51-.2,9.76-.66,19.54-.41,29.31-.38,3.72,0,7.46-.27,11.15.42.22.63.8,1.11-.42,1.63-2.7,1.14-5.58.91-8.34,1.14s-5.8.15-8.57.83c-3.21.79-4.13,1-3.45,4.72.24,1.27,0,2.62.21,3.9.31,2.05,0,3.47-1.6,3.32,2.21-.82,2.17,1.17,2.12,3.3s0,4.11.14,6.15c.11,1.48-.32,2.26-1.87,2.35-1.2.07-2.4.32-3.61.36-2.88.1-5.77.09-8.66.2-.62,0-1.73-.34-1.64.87s1.09.83,1.78.8a25.92,25.92,0,0,0,3.79-.39c2.64-.5,5.46-.9,8,.58l2.49,0c-1.29,2.87-1.06,3.29,1.82,3.32h19.75c-5.83,1-11.64,1.7-17.38,2.92-11.51,2.45-21.32,7.53-28.16,17.56a86.87,86.87,0,0,1-8.71,10.88c-5,5.29-11.61,7-18.68,7.62-11.41,1-21.87-.91-30.76-8.75-4.77-4.2-9.19-8.72-13.62-13.26C10,286,6.12,281.43,1.45,277.68Z"/><path class="cls-1" d="M323.34,97.46c-.77-1.65-.95-2.77,1-4.11,2.34-1.59,4.1-4,6.1-6.12q33.31-34.73,66.59-69.48c.67-.69,2.21-1.17,1.33-2.7l0,.12c.91.86,1.08-.07,1.42-.59-.06-2.44-1.24-1.22-2.22-.68Q334.36,48.78,271.14,83.73c-2.54,1.4-3.73,1.27-4.44-1.51L374,23,396.54,10.6c1.07-.59,2-1.1,2.19-2.59A8.52,8.52,0,0,1,405.47.32a8.53,8.53,0,0,1,9.09,2.87c2.69,3.21,2.91,6.74,1,10.44a7.69,7.69,0,0,0-.37,1c.24,1.38,1.4,2,2.3,2.84l-.07-.07.63.63L418,18l.63.63-.07-.07.63.63-.07-.07.63.63-.07-.07a.61.61,0,0,0,.63.63l-.07-.07c0,.39.21.62.62.63l-.06-.07a.57.57,0,0,0,.58.64l0-.06a69.65,69.65,0,0,0,7.93,8.45l-.07-.08.63.63-.07-.07.62.63-.06-.06.62.63-.06-.07a112,112,0,0,0,9.58,10.14l-.07-.07.63.63-.07-.07.63.63-.07-.07.63.63-.07-.07a108.26,108.26,0,0,0,9.59,10.15l-.07-.07.63.63-.07-.07.63.63-.07-.07.63.63-.07-.07a110.79,110.79,0,0,0,9.59,10.15l-.07-.08.63.64-.07-.08.63.63-.07-.06.63.63-.07-.07.63.63-.07-.07a94,94,0,0,0,9,9.58l-.07-.07.63.63-.07-.07.62.63-.06-.07.62.63-.06-.07.62.63-.06-.07a102.32,102.32,0,0,0,9,9.59l-.08-.07.64.63-.08-.07.63.63-.07-.07.63.63-.07-.07.63.63-.07-.07c.18,1.18,1.82,1.42,1.88,2.75a5.72,5.72,0,0,1-3.33,0q-15.19-16-30.4-32-20.7-21.73-41.44-43.44c-.69-.73-1.24-1.58-2.56-.92-3.1,1.56-6.14,1-9.1-.53-1.59-1.28-1.91.59-2.48,1.18q-35.6,36.94-71.07,74c-.52.54-1.34,1-1.3,2.21,1.79-1,3.55-.78,5.28-.79,9.32,0,18.64,0,28,0,2.5,0,5-.24,7.49.36,2.23.58,3-.55,2.64-2.51-.52-3,.94-3.46,3.57-3.51,7.8-.16,15.58.21,23.4-.49s15.78,0,23.65.76c-.28-.07-.27-.2,0-.21s.33.12.07.21a7.91,7.91,0,0,1,3.25,0,2.25,2.25,0,0,0-.47,1.56c-.24,4.56-.23,4.38,4.23,4.63,8,.44,15.89-1.08,23.86-.75,1,0,2.28-.43,3.17,1.12-3.67.52-7.21,1-10.76,1.5-9.3,1.19-18.26,3.38-26.21,8.68-5.62,3.75-9.77,9-13.46,14.43-5.44,8-12.48,12.84-22.21,13.59-9.49.72-18.85.77-27.33-4.52a64.67,64.67,0,0,1-11.37-9.44Q333.88,108.06,323.34,97.46Z"/><path class="cls-2" d="M266.7,82.22c.71,2.78,1.9,2.91,4.44,1.51q63.18-35,126.47-69.83c1-.54,2.16-1.76,2.22.68-.82-.63-1.15-.09-1.42.59l0-.12c-4.86,1.9-9.22,4.78-13.77,7.29Q327.95,53.53,271.3,84.77c-1.84,1-2.41,1.8-1.67,4a25.38,25.38,0,0,1-9.87,29.08,3.5,3.5,0,0,0-1.9,3.29c1.14,97.31.14,194.63.63,292,0,7.14-.1,14.33,1.51,21.42a5.47,5.47,0,0,0,5.3,4.72c5.18.59,10.39,1,15.58,1.55a51.41,51.41,0,0,1,7.43,1.23,11.29,11.29,0,0,1,8.25,8c1.31,4.08,2.74,8.11,4.12,12.16,3.33,9.81,9.79,15.5,20.48,16.06,4.7.24,5,.82,5,5.45s0,9,0,13.44c0,3.74-.67,4.64-4.46,5-4.18.39-8.38.58-12.58.61-44.13.28-88.27.44-132.4-.11a55.61,55.61,0,0,1-8.37-.56c-1.62-.26-4-.16-3.89-3a23.43,23.43,0,0,0,8.7,1.69c25.92.5,51.84.09,77.76-.12,11.74-.1,23.49-.42,35.18-1.68,4.26-.46,5.62-1.95,5.66-6.27,0-2.42.12-4.84.17-7.26.05-2.62,1.46-4,3.92-4.64,1.47-.35,3.07-.42,4.31-1.83-3.63-.16-7.05-.43-10.48-.44-38.23-.17-76.46-.7-114.69-.19-1.32,0-2.78.55-4-.49,2.3.06,4.42-.93,6.66-1.2,1,1.43,2.52,1,3.86,1,26.76.59,53.52.23,80.29,0,7.54-.06,15.09-.55,22.63-.81,1.75-.06,4-.57,4.48-1.67s-1.06-2.92-2.07-4.26c-5.26-6.92-8.5-14.56-8.14-23.45.09-2.19-.66-3.48-3.14-4-8.63-2-17.37-2-26.13-2.08-15-.19-30-.4-45,.18a1.12,1.12,0,0,0-.24-.13c-.06,0-.17,0-.19,0-.32.56.26.32.34.3,7.26-1.67,14.73-1.51,22.06-2.52a3.23,3.23,0,0,0,1,.37c9.78,0,19.57.47,29.73-.47-5.12-8.43-4.2-17.62-4.28-26.48-.29-29.86-.18-59.71-.19-89.57q0-98.67,0-197.34c0-.93-.05-1.87,0-2.8,0-1.14-.47-1.49-1.55-1.23-6.44,1.53-12.56.4-18.47-2.3-1.35-1.47-3.71-1.75-4.48-3.88.7.43,1.4.86,2.09,1.31,8.44,5.47,17.26,6.32,26.18,1.53s13.17-12.38,13.2-22.36c0-12.42-8.82-22.09-22.31-24.61,7.34-.07,12.85,3.55,17.59,8.72C265.55,80.76,266.11,81.5,266.7,82.22Z"/><path class="cls-2" d="M323.34,97.46q10.55,10.59,21.1,21.19a64.67,64.67,0,0,0,11.37,9.44c8.48,5.29,17.84,5.24,27.33,4.52,9.73-.75,16.77-5.56,22.21-13.59,3.69-5.44,7.84-10.68,13.46-14.43,7.95-5.3,16.91-7.49,26.21-8.68,3.55-.46,7.09-1,10.76-1.5-.89-1.55-2.13-1.07-3.17-1.12-8-.33-15.88,1.19-23.86.75-4.46-.25-4.47-.07-4.23-4.63a2.25,2.25,0,0,1,.47-1.56c4.55-.4,9.12-.23,13.68-.19,3.91,0,4,0,3.88,3.87-.1,2.31.61,3.06,2.95,3,12.29-.42,24.57-1.11,36.87-.79,1.21,0,2.42-.11,3.62-.17a5.72,5.72,0,0,0,3.33,0c-.06-1.33-1.7-1.57-1.88-2.75,1.81.75,2.46,3,4.79,3.33,1.3.19.51,2,.15,2.93-1.58,4.32-4.17,8.1-6.77,11.84a212,212,0,0,1-20.14,25,15.44,15.44,0,0,1-12.22,5.27c-31.21-.27-62.44-.16-93.66-.08a8.59,8.59,0,0,1-6.36-2.24,162.38,162.38,0,0,1-29.48-38A6.43,6.43,0,0,1,323.34,97.46Z"/><path class="cls-2" d="M1.45,277.68C6.12,281.43,10,286,14.16,290.23c4.43,4.54,8.85,9.06,13.62,13.26,8.89,7.84,19.35,9.76,30.76,8.75,7.07-.62,13.68-2.33,18.68-7.62a86.87,86.87,0,0,0,8.71-10.88c6.84-10,16.65-15.11,28.16-17.56,5.74-1.22,11.55-1.89,17.38-2.92H111.72c-2.88,0-3.11-.45-1.83-3.32,7.43-.42,14.87-.23,22.31-.11,1.31,0,2.48,0,2.25,1.86-.15,1.22.42,1.47,1.66,1.45,7.27-.12,14.54-.06,21.82-.14,2.59,0,5.2.37,7.78-.27,1.14-.11,3.74,2.09,2.59-1.64,2.06,2.72,1.59,5.36,0,8.12A171.86,171.86,0,0,1,140,315.48a9.4,9.4,0,0,1-7,2.71q-48-.13-96,0a9.75,9.75,0,0,1-7-2.67c-7.42-6.77-13.47-14.7-19.44-22.7a100.21,100.21,0,0,1-8.82-13.58C1.41,278.84.39,278.3,1.45,277.68Z"/><path class="cls-1" d="M204.49,441.5c15-.58,30-.37,45-.18,8.76.1,17.5.1,26.13,2.08,2.48.56,3.23,1.85,3.14,4-.36,8.89,2.88,16.53,8.14,23.45,1,1.34,2.62,3.06,2.07,4.26s-2.73,1.61-4.48,1.67c-7.54.26-15.09.75-22.63.81-26.77.21-53.53.57-80.29,0-1.34,0-2.86.43-3.86-1,6.33-2.55,9.47-7.89,11.82-13.81a106.48,106.48,0,0,0,3.88-11.37C194.94,445.59,198.66,442.43,204.49,441.5Z"/><path class="cls-1" d="M171,477.81c1.21,1,2.67.51,4,.49,38.23-.51,76.46,0,114.69.19,3.43,0,6.85.28,10.48.44-1.24,1.41-2.84,1.48-4.31,1.83-2.46.6-3.87,2-3.92,4.64-.05,2.42-.15,4.84-.17,7.26,0,4.32-1.4,5.81-5.66,6.27-11.69,1.26-23.44,1.58-35.18,1.68-25.92.21-51.84.62-77.76.12a23.43,23.43,0,0,1-8.7-1.69c0-5.74-.05-11.48-.13-17.21a3.13,3.13,0,0,1,2.89-3.45C168.48,478.14,169.75,478,171,477.81Z"/><path class="cls-1" d="M247.34,71.35c13.49,2.52,22.34,12.19,22.31,24.61,0,10-4.39,17.64-13.2,22.36s-17.74,3.94-26.18-1.53c-.69-.45-1.39-.88-2.09-1.31l.07.06-2.86-2.88.06.07c-.06-.48-.31-.7-.8-.59l-.78-1.15c-.11-1.73-2.63-2.23-2.16-4.26C216.8,97.77,220,84,228.66,77A23.76,23.76,0,0,1,247.34,71.35Zm8.88,15.87A8.93,8.93,0,0,0,251,82.47c-5.72-2.43-11.19-1.78-16,2.19a14.46,14.46,0,0,0-5.17,15c1.33,6.15,5.4,9.76,11.23,11.63.48.16.9.39,1.06-.26s-.42-.72-.83-.93a13.9,13.9,0,0,1-5.56-5.13,13.46,13.46,0,0,1,8.42-20.16C248.63,83.8,252.45,84.88,256.22,87.22Z"/><path class="cls-2" d="M221.71,106.73c-.47,2,2,2.53,2.16,4.26Q158,147.37,92.1,183.73c-1-1.65.76-1.64,1.41-2q24.8-13.77,49.64-27.43,38.64-21.33,77.32-42.59c2.54-1.39,3-2.61,1.22-4.77Z"/><path class="cls-2" d="M152.71,255.46c-6.59-6.61-13.39-13-19.53-20.06-1.43-1.63-3.53-2.64-4.62-4.64,5,4.93,10,9.79,14.9,14.82C146.59,248.82,150.18,251.65,152.71,255.46Z"/><path class="cls-2" d="M121.36,223.55,102.06,204c.86-.23,1.09.57,1.51,1q8.33,8.42,16.61,16.88C120.66,222.32,121.51,222.61,121.36,223.55Z"/><path class="cls-2" d="M440.48,41.59a112,112,0,0,1-9.58-10.14A63,63,0,0,1,440.48,41.59Z"/><path class="cls-2" d="M451.68,53.35a108.26,108.26,0,0,1-9.59-10.15A60.25,60.25,0,0,1,451.68,53.35Z"/><path class="cls-2" d="M462.88,65.11A110.79,110.79,0,0,1,453.29,55,59.48,59.48,0,0,1,462.88,65.11Z"/><path class="cls-2" d="M485.28,88.62a102.32,102.32,0,0,1-9-9.59C479.49,82,482.77,85,485.28,88.62Z"/><path class="cls-2" d="M474.08,76.86a94,94,0,0,1-9-9.58A56.13,56.13,0,0,1,474.08,76.86Z"/><path class="cls-2" d="M429.29,29.84a69.65,69.65,0,0,1-7.93-8.45C424.23,24,427.15,26.55,429.29,29.84Z"/><path class="cls-2" d="M166.69,269.46c-2.25-2.27-5-4.09-6.77-6.79C162.69,264.42,164.31,267.32,166.69,269.46Z"/><path class="cls-2" d="M417.53,17.52c-.9-.84-2.06-1.46-2.3-2.84C416,15.6,417.31,16.13,417.53,17.52Z"/><path class="cls-2" d="M225.39,112.66l2.86,2.88A4.13,4.13,0,0,1,225.39,112.66Z"/><path class="cls-2" d="M224.65,112.14c.49-.11.74.11.8.59C224.87,113,224.94,112.3,224.65,112.14Z"/><path class="cls-2" d="M91.68,193.31c-.41-.28-1.09-.41-.73-1.17C91.28,192.47,91.85,192.66,91.68,193.31Z"/><path class="cls-2" d="M420.33,20.32a.61.61,0,0,1-.63-.63C420.15,19.66,420.34,19.88,420.33,20.32Z"/><path class="cls-2" d="M420.88,20.88c-.41,0-.59-.24-.62-.63C420.69,20.23,420.9,20.44,420.88,20.88Z"/><path class="cls-2" d="M421.4,21.45a.57.57,0,0,1-.58-.64C421.26,20.8,421.43,21,421.4,21.45Z"/><path class="cls-2" d="M429.85,30.39l-.63-.63C429.73,29.67,429.93,29.89,429.85,30.39Z"/><path class="cls-2" d="M430.4,31l-.62-.63C430.3,30.22,430.45,30.49,430.4,31Z"/><path class="cls-2" d="M431,31.52l-.62-.63C430.81,30.83,431,31.09,431,31.52Z"/><path class="cls-2" d="M441,42.15l-.63-.63Q441.18,41.39,441,42.15Z"/><path class="cls-2" d="M441.6,42.71l-.63-.63C441.5,42,441.64,42.25,441.6,42.71Z"/><path class="cls-2" d="M442.16,43.27l-.63-.63C442,42.59,442.18,42.84,442.16,43.27Z"/><path class="cls-2" d="M452.24,53.91l-.63-.63C452.15,53.16,452.32,53.41,452.24,53.91Z"/><path class="cls-2" d="M452.8,54.47l-.63-.63C452.69,53.74,452.84,54,452.8,54.47Z"/><path class="cls-2" d="M453.36,55l-.63-.63C453.21,54.34,453.38,54.59,453.36,55Z"/><path class="cls-2" d="M463.44,65.67l-.63-.64C463.33,64.93,463.54,65.14,463.44,65.67Z"/><path class="cls-2" d="M464,66.22l-.63-.63C463.9,65.48,464.06,65.74,464,66.22Z"/><path class="cls-2" d="M464.56,66.79l-.63-.63C464.44,66.06,464.58,66.35,464.56,66.79Z"/><path class="cls-2" d="M465.12,67.35l-.63-.63C464.94,66.68,465.14,66.9,465.12,67.35Z"/><path class="cls-2" d="M474.64,77.42l-.63-.63Q474.79,76.64,474.64,77.42Z"/><path class="cls-2" d="M475.19,78l-.62-.63C475.1,77.24,475.26,77.5,475.19,78Z"/><path class="cls-2" d="M475.75,78.54l-.62-.63C475.64,77.82,475.78,78.1,475.75,78.54Z"/><path class="cls-2" d="M476.31,79.1l-.62-.63C476.14,78.44,476.34,78.66,476.31,79.1Z"/><path class="cls-2" d="M93.92,195.55l-.63-.63C93.81,194.82,94,195.08,93.92,195.55Z"/><path class="cls-2" d="M94.48,196.11l-.63-.63C94.34,195.41,94.52,195.65,94.48,196.11Z"/><path class="cls-2" d="M95,196.67l-.63-.63Q95.1,196,95,196.67Z"/><path class="cls-2" d="M95.6,197.23,95,196.6C95.43,196.56,95.63,196.78,95.6,197.23Z"/><path class="cls-2" d="M96.16,197.79l-.63-.63C96,197.13,96.18,197.35,96.16,197.79Z"/><path class="cls-2" d="M96.72,198.35a.64.64,0,0,1-.63-.63Q96.77,197.69,96.72,198.35Z"/><path class="cls-2" d="M97.28,198.91a.63.63,0,0,1-.63-.63C97.1,198.26,97.3,198.47,97.28,198.91Z"/><path class="cls-2" d="M97.84,199.47a.62.62,0,0,1-.63-.63C97.66,198.82,97.85,199,97.84,199.47Z"/><path class="cls-2" d="M98.4,200a.6.6,0,0,1-.63-.63C98.21,199.38,98.41,199.6,98.4,200Z"/><path class="cls-2" d="M99,200.59a.59.59,0,0,1-.63-.63A.54.54,0,0,1,99,200.59Z"/><path class="cls-2" d="M99.52,201.15a.57.57,0,0,1-.63-.63A.55.55,0,0,1,99.52,201.15Z"/><path class="cls-2" d="M100.08,201.71a.56.56,0,0,1-.63-.63A.54.54,0,0,1,100.08,201.71Z"/><path class="cls-2" d="M100.59,202.48l-.58-.84C100.55,201.68,100.67,202,100.59,202.48Z"/><path class="cls-2" d="M92.8,194.43l-.63-.63C92.69,193.71,92.88,193.93,92.8,194.43Z"/><path class="cls-2" d="M121.92,224.1l-.64-.63C121.82,223.36,122,223.58,121.92,224.1Z"/><path class="cls-2" d="M122.47,224.66l-.63-.63C122.38,223.92,122.56,224.16,122.47,224.66Z"/><path class="cls-2" d="M123,225.22l-.63-.63Q123.18,224.46,123,225.22Z"/><path class="cls-2" d="M123.59,225.78l-.63-.63C123.48,225.06,123.68,225.27,123.59,225.78Z"/><path class="cls-2" d="M124.15,226.34l-.63-.63C124,225.62,124.24,225.84,124.15,226.34Z"/><path class="cls-2" d="M124.71,226.9l-.63-.63Q124.85,226.15,124.71,226.9Z"/><path class="cls-2" d="M125.27,227.46l-.63-.63C125.16,226.74,125.33,227,125.27,227.46Z"/><path class="cls-2" d="M125.83,228l-.63-.63C125.7,227.32,125.87,227.56,125.83,228Z"/><path class="cls-2" d="M126.39,228.58l-.63-.62C126.22,227.91,126.43,228.12,126.39,228.58Z"/><path class="cls-2" d="M127,229.14l-.63-.62C126.78,228.47,127,228.69,127,229.14Z"/><path class="cls-2" d="M127.51,229.7l-.63-.62C127.34,229,127.53,229.26,127.51,229.7Z"/><path class="cls-2" d="M128.07,230.26a.62.62,0,0,1-.62-.62C127.89,229.61,128.1,229.82,128.07,230.26Z"/><path class="cls-2" d="M128.63,230.82a.62.62,0,0,1-.63-.62C128.45,230.17,128.66,230.38,128.63,230.82Z"/><path class="cls-2" d="M92.24,193.87l-.63-.63C92.13,193.15,92.33,193.36,92.24,193.87Z"/><path class="cls-2" d="M418.09,18.08l-.63-.63Q418.24,17.3,418.09,18.08Z"/><path class="cls-2" d="M418.65,18.64,418,18C418.55,17.9,418.71,18.15,418.65,18.64Z"/><path class="cls-2" d="M419.21,19.2l-.63-.63C419.09,18.47,419.23,18.76,419.21,19.2Z"/><path class="cls-2" d="M487.51,90.86l-.63-.63C487.34,90.2,487.54,90.42,487.51,90.86Z"/><path class="cls-2" d="M487,90.3l-.63-.63C486.84,89.58,487,89.86,487,90.3Z"/><path class="cls-2" d="M153.27,256l-.63-.64C153.17,255.27,153.37,255.49,153.27,256Z"/><path class="cls-2" d="M153.83,256.58l-.63-.64C153.73,255.83,153.92,256.07,153.83,256.58Z"/><path class="cls-2" d="M154.39,257.14l-.63-.63Q154.53,256.36,154.39,257.14Z"/><path class="cls-2" d="M155,257.7l-.63-.63C154.83,257,155,257.19,155,257.7Z"/><path class="cls-2" d="M155.51,258.26l-.63-.63C155.39,257.53,155.59,257.75,155.51,258.26Z"/><path class="cls-2" d="M156.07,258.82l-.63-.63Q156.19,258.06,156.07,258.82Z"/><path class="cls-2" d="M93.36,195l-.63-.63Q93.49,194.24,93.36,195Z"/><path class="cls-2" d="M157.18,259.94l-.62-.63C157.05,259.23,157.23,259.48,157.18,259.94Z"/><path class="cls-2" d="M157.74,260.49l-.62-.62C157.58,259.83,157.79,260,157.74,260.49Z"/><path class="cls-2" d="M158.3,261.05l-.62-.62C158.14,260.38,158.33,260.61,158.3,261.05Z"/><path class="cls-2" d="M158.86,261.62l-.62-.63C158.69,261,158.89,261.17,158.86,261.62Z"/><path class="cls-2" d="M159.42,262.17a.62.62,0,0,1-.62-.62C159.24,261.52,159.45,261.73,159.42,262.17Z"/><path class="cls-2" d="M160,262.73a.61.61,0,0,1-.62-.62C159.8,262.08,160,262.29,160,262.73Z"/><path class="cls-2" d="M419.77,19.76l-.63-.63C419.59,19.1,419.79,19.32,419.77,19.76Z"/><path class="cls-2" d="M167.25,270a.55.55,0,0,1-.62-.63Z"/><path class="cls-2" d="M167.81,270.58a.55.55,0,0,1-.62-.63Z"/><path class="cls-2" d="M168.37,271.14a.55.55,0,0,1-.62-.63Z"/><path class="cls-2" d="M486.39,89.74l-.63-.63C486.3,89,486.46,89.26,486.39,89.74Z"/><path class="cls-2" d="M485.84,89.18l-.64-.63C485.73,88.45,485.94,88.66,485.84,89.18Z"/><path class="cls-2" d="M156.63,259.38l-.63-.63C156.51,258.65,156.68,258.9,156.63,259.38Z"/><path class="cls-2" d="M129.49,240.2l4.13.16-.05-.05c-.12.56.34.49.64.6l-.05,0c.14,3.35.19,6.7.46,10,.16,1.93-.62,2.64-2.42,2.92-4.11.64-8.22,1.11-11.84,1.34,3.45.53,7.45.23,11.42.06,2-.09,2.59.53,2.51,2.47a34.74,34.74,0,0,0,.32,6.69c.41,2.59-.68,3.29-3,3.23-2-.05-4.09.1-6.14.16-7.82.2-15.64.39-23.46.63-.94,0-2.6-.34-2.58.89,0,1.52,1.73,1,2.73,1a16.06,16.06,0,0,0,5.26-.31c-2.58-1.48-5.4-1.08-8-.58a25.92,25.92,0,0,1-3.79.39c-.69,0-1.7.27-1.78-.8s1-.84,1.64-.87c2.89-.11,5.78-.1,8.66-.2,1.21,0,2.41-.29,3.61-.36,1.55-.09,2-.87,1.87-2.35-.16-2-.18-4.1-.14-6.15s.09-4.12-2.12-3.3c1.55.15,1.91-1.27,1.6-3.32-.19-1.28,0-2.63-.21-3.9-.68-3.72.24-3.93,3.45-4.72,2.77-.68,5.71-.59,8.57-.83s5.64,0,8.34-1.14C130.29,241.31,129.71,240.83,129.49,240.2Z"/><path class="cls-2" d="M78.26,194.41,19.72,257.28C15.46,261.85,11.19,266.42,7,271c-.52.57-2,1.14-.94,2.13a2.84,2.84,0,0,0,3.55,0c.35-.25-.64-.18-.95-.43-1.54-.51-3-.19-4.76,0Q9.33,266.86,14.79,261,45.38,228.16,76,195.39C76.52,194.85,76.82,193.1,78.26,194.41Z"/><path class="cls-2" d="M34.66,244.19c3.82-1.93,8.05-1.54,12.1-2.05,3.65-.46,7.36-.46,11-.67.85.56,1.81.2,2.71.37.56.1,1.35.14,1.26.81-.44,3.19,1.84,2.06,3.32,2.13,1.28.07,2.57,0,3.87,0,0,.81-.58.56-.92.54-10-.37-20.11.59-30.15-.46A7.37,7.37,0,0,1,34.66,244.19Z"/><path class="cls-2" d="M83.14,240.36l5.89-.2c2.5.06,5,.1,7.51.2.81,0,2.17,0,2.16.82-.06,3.6,2.53,2.27,4.25,2.44a26.81,26.81,0,0,1,4.17.37l-12.44.66c-.82,0-1.56,0-1.45-1.11.18-1.8-.75-1.77-2.19-1.67-5.55.36-11.11.58-16.67.78-.82,0-2.22.47-2.3-.79-.1-1.66,1.47-.93,2.33-1C77.3,240.43,80.26,241.23,83.14,240.36Z"/><path class="cls-3" d="M134.21,240.91c-.3-.11-.76,0-.64-.6Z"/><path class="cls-2" d="M402.49,16.69,330.7,91.59c-.32.33-.67.65-1,1s-1,.77-.67,1.38,1,.46,1.52.49c.28,0,.56,0,.84,0h35a20.8,20.8,0,0,0,2.22-.2c.07,0,.15-.09.18-.16.2-.4-.16-.38-.39-.47-2.49-.61-5-.36-7.51-.37-9.32,0-18.64,0-28,0-1.73,0-3.49-.17-5.28.79,0-1.26.78-1.67,1.3-2.21q35.51-37,71.07-74C400.58,17.28,400.9,15.41,402.49,16.69Z"/><path class="cls-2" d="M421.63,87.89h.11c.26-.09.24-.21-.07-.21S421.35,87.82,421.63,87.89Z"/><path class="cls-3" d="M398.41,15.17c.27-.68.6-1.22,1.42-.59C399.49,15.1,399.32,16,398.41,15.17Z"/><path class="cls-2" d="M256.22,87.22c-3.77-2.34-7.59-3.42-12-2.39A13.46,13.46,0,0,0,235.76,105a13.9,13.9,0,0,0,5.56,5.13c.41.21,1,.33.83.93s-.58.42-1.06.26c-5.83-1.87-9.9-5.48-11.23-11.63a14.46,14.46,0,0,1,5.17-15c4.78-4,10.25-4.62,16-2.19A8.93,8.93,0,0,1,256.22,87.22Z"/></g></g></svg>