<svg width="69" height="69" viewBox="0 0 69 69" fill="none" xmlns="http://www.w3.org/2000/svg">
<path d="M0.101031 34.2462C0.101031 28.9551 0.101031 23.6823 0.101031 18.4094C0.0623674 17.9637 0.168701 17.5173 0.404661 17.1372C0.64062 16.757 0.993927 16.4634 1.41055 16.3003L33.084 0.463505C33.4863 0.226895 33.9445 0.102112 34.4112 0.102112C34.878 0.102112 35.3362 0.226895 35.7385 0.463505C46.2115 5.72425 56.6963 10.9668 67.1935 16.1912C67.6754 16.3785 68.0834 16.7175 68.3557 17.157C68.6279 17.5966 68.7497 18.1127 68.7028 18.6276C68.7028 29.0885 68.7028 39.5433 68.7028 49.992C68.7445 50.4757 68.6289 50.9599 68.3734 51.3727C68.1179 51.7855 67.7365 52.1047 67.285 52.283C56.7271 57.5317 46.175 62.8045 35.6293 68.1016C35.2556 68.3153 34.8329 68.4277 34.4024 68.4277C33.9718 68.4277 33.5483 68.3153 33.1745 68.1016C22.6045 62.7924 12.029 57.5074 1.44695 52.2466C1.01945 52.0738 0.658239 51.7689 0.416202 51.3764C0.174166 50.9839 0.0635353 50.5244 0.101031 50.0648C0.119213 44.7919 0.101031 39.519 0.101031 34.2462ZM3.31933 20.4822C3.3081 20.6214 3.3081 20.7612 3.31933 20.9004C3.31933 30.3067 3.31933 39.713 3.31933 49.1193C3.31933 49.6284 3.61043 49.7739 3.95589 49.9557L32.102 64.0106L32.8292 64.3379C32.8292 64.0833 32.8292 63.9197 32.8292 63.7561C32.8292 54.4467 32.8292 45.1313 32.8292 35.8099C32.8395 35.6116 32.7845 35.4154 32.6729 35.2513C32.5613 35.0871 32.3994 34.964 32.2112 34.9008C24.7201 31.1916 17.2471 27.4642 9.79233 23.7186L3.31933 20.4822ZM51.9028 38.4099L49.7934 41.4464C48.4842 43.2646 47.1753 45.2465 45.848 47.1374C45.6668 47.4394 45.3865 47.6696 45.0551 47.7888C44.7238 47.9081 44.3618 47.9092 44.0297 47.792C43.7152 47.6929 43.4416 47.4934 43.2511 47.2241C43.0607 46.9549 42.9637 46.6307 42.975 46.301V31.7552C40.7568 32.8643 38.7022 33.9189 36.6112 34.9189C36.4041 34.9989 36.2299 35.1468 36.1176 35.3383C36.0053 35.5298 35.9619 35.7537 35.9933 35.9735C35.9933 45.1919 35.9933 54.4103 35.9933 63.6106C35.9933 63.8469 35.9933 64.0833 35.9933 64.3742L36.5935 64.1015C46.024 59.3741 55.4725 54.6589 64.9394 49.9557C65.1335 49.8694 65.2932 49.7201 65.3922 49.5321C65.4911 49.3441 65.5232 49.1282 65.4845 48.9193C65.4845 39.7433 65.4845 30.5552 65.4845 21.3549C65.4845 21.1004 65.4845 20.8458 65.4845 20.5004C63.3753 21.5549 61.3755 22.5913 59.3391 23.555C59.084 23.6436 58.8663 23.8157 58.7212 24.0433C58.576 24.271 58.5119 24.541 58.5392 24.8096C58.5392 29.7006 58.5392 34.5916 58.5392 39.4827C58.5573 39.7733 58.5573 40.0648 58.5392 40.3555C58.5071 40.6331 58.396 40.8957 58.2187 41.1117C58.0413 41.3277 57.8047 41.4881 57.5386 41.5736C57.278 41.6758 56.9949 41.7045 56.7192 41.6564C56.4434 41.6083 56.1858 41.4853 55.9752 41.3009L51.9028 38.4099ZM15.8108 12.6093L16.0105 12.7729C25.5138 17.5124 35.023 22.258 44.5384 27.0096C44.8069 27.1169 45.1063 27.1169 45.3748 27.0096C48.0112 25.7187 50.6482 24.3914 53.2665 23.0823L53.7752 22.8095C53.6729 22.7323 53.563 22.6653 53.4476 22.6095C44.0049 17.8821 34.563 13.1669 25.1203 8.4637C24.9623 8.39618 24.7915 8.36138 24.6196 8.36138C24.4477 8.36138 24.2778 8.39618 24.1198 8.4637C21.5015 9.7607 18.8957 11.0638 16.3017 12.3729L15.8108 12.6093ZM5.26452 17.8458L5.55572 18.0458C15.0469 22.7974 24.5383 27.5369 34.0295 32.2643C34.3044 32.3709 34.6087 32.3709 34.8835 32.2643L40.7386 29.337L41.3388 29.0097L37.9385 27.3006L12.7922 14.7366C12.5559 14.6093 12.1923 14.4639 11.9923 14.5548C9.77408 15.6094 7.57367 16.7366 5.26452 17.8821V17.8458ZM63.4479 17.8458L63.0483 17.5912L34.793 3.51812C34.6581 3.45956 34.513 3.42934 34.366 3.42934C34.2189 3.42934 34.0729 3.45956 33.938 3.51812C32.1198 4.3545 30.4108 5.24544 28.6653 6.13637L28.2472 6.42729L56.9935 20.7731C57.1001 20.8176 57.2145 20.8405 57.33 20.8405C57.4455 20.8405 57.5599 20.8176 57.6665 20.7731C59.5756 19.8822 61.4842 18.9549 63.5207 17.9367L63.4479 17.8458ZM55.2845 25.5187H55.0847C52.1755 26.9733 49.2477 28.4097 46.3567 29.8824C46.2453 29.9726 46.1549 30.0861 46.0921 30.2149C46.0293 30.3436 45.9961 30.4847 45.9936 30.6279C45.9936 33.628 45.9936 36.6099 45.9936 39.61V41.1373L46.4845 40.4827L50.0118 35.3917C50.1261 35.1661 50.2912 34.9705 50.4947 34.8205C50.6983 34.6705 50.9344 34.5703 51.1837 34.5278C51.4329 34.4854 51.6886 34.502 51.9303 34.5762C52.172 34.6505 52.3924 34.7803 52.5749 34.9553L55.3022 36.8826L55.2845 25.5187Z" fill="#484848"/>
</svg>
