<svg xmlns="http://www.w3.org/2000/svg" viewBox="0 0 372.88 372.85"><defs><style>.cls-1{fill:#e8e8e8;}</style></defs><g id="Слой_2" data-name="Слой 2"><g id="Layer_1" data-name="Layer 1"><path class="cls-1" d="M372.87,186.61q0,77.91,0,155.82c0,15.4-9.31,26.95-24,29.95a35.52,35.52,0,0,1-7,.45q-155.43,0-310.86,0c-18.61,0-31-12.27-31-30.78Q0,186.44,0,30.81C0,12.28,12.4,0,31,0H341.86c18.78,0,31,12.28,31,31.17Q372.91,108.89,372.87,186.61ZM12,288.76c1.87-1.28,3-2,4-2.74l95.39-69c4.79-3.46,6.58-3.43,11,.38,13.44,11.59,26.9,23.15,40.21,34.89,2.57,2.26,4.17,2.66,7.12.34,17-13.38,34.26-26.49,51.43-39.68,6-4.58,6.74-4.57,13-.26l122.73,84.5c1.1.76,2.25,1.42,3.95,2.48v-5.08q0-130.76,0-261.5a43.93,43.93,0,0,0-.31-5.85c-.93-7-4.79-11.83-11.43-14a30,30,0,0,0-9.23-1.13Q206.54,12,73.25,12c-13.83,0-27.67-.22-41.49.14a26.67,26.67,0,0,0-11.85,3C13.59,18.68,12,25,12,32Q12.09,158,12,284.06Zm164.57,72.09c-.16-1.78-.19-3-.39-4.09-5.1-29-10.17-57.95-15.43-86.9a11.89,11.89,0,0,0-3.44-6.08c-5.73-5.33-11.76-10.34-17.68-15.46l-22.91-19.79a5.86,5.86,0,0,0-1.08.39Q64.82,265.73,14,302.62a5.41,5.41,0,0,0-1.89,3.83c-.14,12.13-.11,24.27-.06,36.4a17.59,17.59,0,0,0,4.76,12.48c4.07,4.3,9.23,5.53,14.93,5.53q70.47,0,140.94,0Zm-1-97.55,8.12,7.06q50.88,44.07,101.81,88.07a9.37,9.37,0,0,0,5.45,2.31q25.44.27,50.88.08c11.92-.08,18.84-7.14,18.94-19.12.07-7.7-.14-15.4.09-23.09.1-3-1-4.68-3.42-6.32q-44.06-30.17-88-60.52l-41.68-28.69Zm94,97.55L175.5,279.36a23.62,23.62,0,0,0,0,3.35c4.29,24.46,8.76,48.89,12.79,73.4.69,4.19,2.32,4.83,6,4.81,23.46-.14,46.92-.07,70.39-.07Z"/><path class="cls-1" d="M95.62,338.51a6.06,6.06,0,0,1-6.2-5.75,6.1,6.1,0,0,1,12.19-.24A6.08,6.08,0,0,1,95.62,338.51Z"/><path class="cls-1" d="M58.8,332.89a5.94,5.94,0,1,1-5.47-6.28A5.79,5.79,0,0,1,58.8,332.89Z"/><path class="cls-1" d="M144.12,332.48a6,6,0,1,1-5.94-5.87A5.82,5.82,0,0,1,144.12,332.48Z"/></g></g></svg>