<svg width="97" height="100" viewBox="0 0 97 100" fill="none" xmlns="http://www.w3.org/2000/svg">
<path d="M80.9606 83.6726C82.8793 87.6085 84.7977 91.4465 86.7164 95.284L87.1584 96.1692C87.4074 96.6209 87.5085 97.1394 87.4467 97.6514C87.3849 98.1635 87.1618 98.6436 86.8125 99.0231C86.5097 99.4052 86.0996 99.6886 85.6354 99.8375C85.1711 99.9864 84.6722 99.9938 84.2036 99.8591C76.9715 98.1372 69.4456 96.4644 62.4103 94.9393C61.7959 94.791 61.1557 94.791 60.5413 94.9393C51.3028 97.3697 41.5516 97.004 32.5212 93.8883C23.4908 90.7725 15.5892 85.0465 9.81498 77.4363C4.0408 69.8261 0.654709 60.6734 0.0857946 51.1375C-0.48312 41.6017 1.78678 32.1121 6.61516 23.8694C11.4435 15.6266 18.6115 9.00233 27.2074 4.83498C35.8033 0.667637 45.4437 -0.855466 54.9056 0.45925C64.3675 1.77397 73.2259 5.86655 80.36 12.2196C87.4941 18.5726 92.582 26.9005 94.9802 36.1473C97.2515 44.2749 97.2794 52.8661 95.0619 61.0084C92.8444 69.1508 88.4663 76.54 82.3875 82.3934L80.9606 83.6726ZM80.1726 93.5123L76.1368 85.3458C74.7593 82.5907 74.8106 82.1969 77.0737 80.1797C85.1208 72.9746 90.163 63.0081 91.2038 52.257C92.2447 41.5059 89.2057 30.7559 82.6902 22.1409C76.1748 13.5259 66.6581 7.67484 56.0298 5.74905C45.4015 3.82325 34.4384 5.96389 25.3144 11.7451C18.3244 15.9623 12.7333 22.144 9.23363 29.5195C5.734 36.895 4.48074 45.1374 5.63504 53.2191C6.13908 58.7124 7.77183 64.0421 10.43 68.8759C13.0881 73.7096 16.7175 77.9432 21.0864 81.3112C26.4552 85.8294 32.8622 88.9421 39.7328 90.3677C46.6035 91.7934 53.722 91.4869 60.4452 89.4777C61.0929 89.3301 61.7626 89.3301 62.4103 89.4777C65.2638 90.0681 68.1665 90.7576 71.02 91.4464L80.1726 93.5123Z" fill="black"/>
</svg>
