<svg width="68" height="68" viewBox="0 0 68 68" fill="none" xmlns="http://www.w3.org/2000/svg">
<path d="M29.9316 67.4522C29.3736 67.232 28.8324 66.9706 28.3131 66.6702C27.798 66.324 27.3671 65.8666 27.0524 65.3316C26.7378 64.7966 26.5473 64.1978 26.4949 63.5793C26.3131 62.0884 26.1134 60.5793 25.9498 59.0883C25.9441 58.9042 25.8789 58.7269 25.7642 58.5827C25.6496 58.4386 25.4914 58.3352 25.3132 58.2882C24.3496 57.9427 23.404 57.5429 22.4767 57.1065C22.3402 57.0238 22.1796 56.9895 22.0212 57.0093C21.8629 57.0291 21.7159 57.1018 21.604 57.2155C20.4585 58.1428 19.2945 59.0337 18.1309 59.9247C17.7066 60.3205 17.2062 60.6255 16.6598 60.8207C16.1134 61.0159 15.5324 61.0972 14.9534 61.0597C14.3744 61.0223 13.8099 60.8667 13.2932 60.6027C12.7765 60.3387 12.3188 59.9719 11.9491 59.5247C10.6218 58.1974 9.27638 56.8702 7.96726 55.5247C7.14772 54.803 6.64563 53.7871 6.57074 52.6977C6.49584 51.6083 6.85379 50.5332 7.56686 49.7062C8.51233 48.4698 9.38565 47.2334 10.422 46.0698C10.5194 45.9451 10.5721 45.7915 10.5721 45.6334C10.5721 45.4753 10.5194 45.3217 10.422 45.197C9.98567 44.2516 9.58584 43.3789 9.24037 42.3425C9.20095 42.177 9.10795 42.0287 8.97669 41.9204C8.84544 41.8121 8.68238 41.7496 8.51237 41.7424C7.00324 41.5605 5.51279 41.3243 4.02184 41.1788C2.9511 41.1048 1.94871 40.6253 1.21903 39.8382C0.48936 39.0511 0.087002 38.0155 0.0941821 36.9422C0.0941821 34.8694 0.0941821 32.8148 0.0941821 30.7602C0.0717581 29.6844 0.459814 28.6405 1.17908 27.8402C1.89835 27.0399 2.89472 26.5431 3.9668 26.451C5.47593 26.2874 6.96684 26.0875 8.47597 25.9057C8.65537 25.9002 8.8288 25.837 8.96959 25.7257C9.11038 25.6143 9.21139 25.4608 9.25813 25.2875C9.62177 24.3057 10.0034 23.3601 10.4398 22.4328C10.5371 22.3081 10.5898 22.1546 10.5898 21.9964C10.5898 21.8383 10.5371 21.6847 10.4398 21.5601C9.53069 20.4328 8.62207 19.2873 7.7675 18.1418C7.36116 17.7206 7.04646 17.2197 6.84329 16.6709C6.64012 16.1221 6.55255 15.5372 6.58672 14.953C6.62088 14.3688 6.77552 13.7978 7.04127 13.2764C7.30703 12.755 7.67795 12.2943 8.13061 11.9234L12.0769 7.95975C12.4414 7.53928 12.8857 7.19573 13.3847 6.94932C13.8836 6.7029 14.4264 6.55859 14.9818 6.52472C15.5372 6.49085 16.0938 6.56814 16.6189 6.75211C17.1441 6.93608 17.6275 7.22301 18.0403 7.59608C19.2585 8.52338 20.4586 9.41427 21.6768 10.3961C21.7917 10.4451 21.9158 10.4705 22.0408 10.4705C22.1658 10.4705 22.2889 10.4451 22.4039 10.3961C23.4039 10.0143 24.386 9.55965 25.386 9.17782C25.54 9.1381 25.6764 9.04914 25.7749 8.92435C25.8734 8.79957 25.9282 8.64584 25.9311 8.48689C26.113 6.97776 26.3317 5.48695 26.4771 3.97782C26.5517 2.89435 27.0408 1.88139 27.8435 1.14983C28.6462 0.418265 29.6999 0.0244167 30.7857 0.0503872H36.9133C37.9855 0.0235664 39.0275 0.407915 39.8253 1.12463C40.6232 1.84135 41.1162 2.83613 41.2041 3.90502C41.3677 5.41415 41.5683 6.90518 41.7501 8.41431C41.7537 8.59697 41.8185 8.77312 41.9339 8.91481C42.0492 9.0565 42.2085 9.15546 42.3867 9.19602C43.3503 9.54149 44.205 9.94154 45.2232 10.3779C45.3465 10.4783 45.5001 10.5333 45.6591 10.5333C45.8181 10.5333 45.9726 10.4783 46.0959 10.3779C47.2778 9.43244 48.4778 8.55974 49.7324 7.59608C50.1463 7.2253 50.6297 6.94035 51.1546 6.75777C51.6795 6.57519 52.2353 6.49855 52.79 6.53238C53.3447 6.5662 53.8874 6.70975 54.3863 6.95475C54.8851 7.19976 55.3299 7.54142 55.6958 7.95975L59.7868 12.0508C60.6114 12.7819 61.1145 13.8089 61.186 14.9086C61.2575 16.0084 60.8916 17.0919 60.1685 17.9236C59.2231 19.1782 58.2415 20.3782 57.3142 21.5601C57.2607 21.6738 57.2326 21.7979 57.2326 21.9236C57.2326 22.0493 57.2607 22.1736 57.3142 22.2874C57.6779 23.2874 58.15 24.2511 58.5137 25.2693C58.5615 25.434 58.6624 25.5783 58.8004 25.6802C58.9384 25.782 59.1066 25.8357 59.2781 25.8329C60.7145 26.0147 62.1502 26.2148 63.5866 26.3602C64.5147 26.3958 65.406 26.7355 66.1222 27.3268C66.8384 27.9182 67.3401 28.7283 67.5507 29.6329C67.5806 29.6915 67.6173 29.7465 67.6599 29.7967V37.6878C67.6173 37.7379 67.5806 37.7928 67.5507 37.8513C67.3386 38.7569 66.8334 39.567 66.1133 40.1556C65.3932 40.7442 64.4985 41.0784 63.5689 41.106L59.2781 41.6516C59.0979 41.6541 58.9232 41.716 58.7818 41.8278C58.6404 41.9396 58.54 42.095 58.4959 42.2697C58.1323 43.2698 57.6774 44.2152 57.2956 45.197C57.2466 45.312 57.2219 45.4356 57.2219 45.5606C57.2219 45.6856 57.2466 45.8094 57.2956 45.9244C58.2411 47.1971 59.2417 48.4152 60.1872 49.6698C60.8805 50.496 61.2288 51.5571 61.1611 52.6335C61.0934 53.7099 60.6146 54.7191 59.8232 55.4519C58.4232 56.8519 57.0417 58.2518 55.6416 59.6337C54.908 60.4557 53.879 60.9552 52.7793 61.0233C51.6796 61.0914 50.5982 60.7227 49.7688 59.9975L46.1323 57.1791C46.009 57.0787 45.8545 57.024 45.6955 57.024C45.5365 57.024 45.3829 57.0787 45.2596 57.1791C44.3323 57.5973 43.4413 57.9973 42.4231 58.3428C42.2463 58.3923 42.089 58.4964 41.9747 58.64C41.8605 58.7836 41.795 58.9596 41.7865 59.1429C41.6229 60.6339 41.4223 62.143 41.2405 63.6339C41.1907 64.2531 41.0014 64.8529 40.6865 65.3882C40.3716 65.9236 39.9392 66.3805 39.4223 66.7248C38.903 67.0252 38.3627 67.2867 37.8047 67.5068L29.9316 67.4522ZM15.2224 9.26882C14.8402 9.45846 14.4798 9.69021 14.1491 9.95976C12.7672 11.2871 11.4399 12.6507 10.0944 13.9962C9.90259 14.121 9.74289 14.2894 9.62834 14.4876C9.5138 14.6857 9.44809 14.908 9.43569 15.1366C9.42329 15.3651 9.46489 15.5935 9.55732 15.8029C9.64975 16.0123 9.79026 16.1969 9.96749 16.3418L13.4406 20.8145C13.6461 21.0663 13.7723 21.373 13.8046 21.6963C13.8369 22.0197 13.7733 22.3453 13.6217 22.6328C12.9308 24.1783 12.2765 25.7239 11.6765 27.2875C11.5801 27.6257 11.3816 27.9259 11.1083 28.1472C10.835 28.3684 10.5003 28.4999 10.1495 28.5238C8.22216 28.742 6.29452 28.9966 4.3672 29.2693C4.17823 29.2679 3.99125 29.3067 3.81853 29.3834C3.64582 29.4601 3.49141 29.573 3.36575 29.7141C3.2401 29.8553 3.14583 30.0216 3.08964 30.202C3.03346 30.3824 3.01662 30.5727 3.03993 30.7602C3.03993 32.7724 3.03993 34.7907 3.03993 36.815C3.01979 36.9967 3.03722 37.1805 3.09142 37.355C3.14562 37.5296 3.23562 37.6909 3.3551 37.8291C3.47458 37.9674 3.62087 38.0796 3.78568 38.1585C3.9505 38.2374 4.13042 38.2813 4.31304 38.2877C6.24037 38.5604 8.18576 38.815 10.1131 39.0332C10.4726 39.051 10.8169 39.1819 11.0977 39.4072C11.3785 39.6325 11.5812 39.9408 11.6765 40.2879C12.2583 41.8152 12.8765 43.3425 13.4947 44.8153C13.6761 45.1359 13.7554 45.504 13.7229 45.8709C13.6904 46.2378 13.5476 46.5862 13.3127 46.8699C12.1127 48.3608 10.9496 49.8699 9.80413 51.3791C9.65184 51.5179 9.53195 51.6889 9.45433 51.8798C9.37671 52.0707 9.3427 52.2765 9.3549 52.4822C9.3671 52.6879 9.42572 52.8882 9.52536 53.0686C9.625 53.2489 9.76346 53.4046 9.93109 53.5245C11.2766 54.8881 12.622 56.2336 13.9857 57.5791C14.1089 57.7632 14.2726 57.917 14.4642 58.0283C14.6558 58.1396 14.87 58.2056 15.091 58.2214C15.312 58.2372 15.5337 58.2022 15.7391 58.1193C15.9446 58.0364 16.1281 57.9077 16.2762 57.7429L20.7854 54.2336C21.0329 54.0207 21.3398 53.8878 21.6643 53.8521C21.9888 53.8164 22.3158 53.8797 22.6036 54.0336C24.1491 54.7245 25.7316 55.379 27.3135 55.9972C27.6481 56.091 27.9448 56.2868 28.1631 56.5572C28.3814 56.8277 28.5104 57.1596 28.5315 57.5065C28.7679 59.452 29.0046 61.3792 29.2773 63.3065C29.2812 63.4955 29.3237 63.6816 29.4034 63.853C29.483 64.0243 29.5979 64.1772 29.7398 64.302C29.8817 64.4268 30.048 64.5208 30.2281 64.5779C30.4083 64.635 30.5978 64.654 30.7857 64.6338H36.8405C37.0222 64.6514 37.2059 64.6313 37.3794 64.5748C37.553 64.5183 37.7126 64.4267 37.8491 64.3055C37.9856 64.1844 38.0964 64.0364 38.1731 63.8707C38.2498 63.7051 38.2915 63.5254 38.2956 63.3429C38.5623 61.4156 38.8167 59.4884 39.0592 57.5611C39.072 57.2007 39.1984 56.8535 39.4205 56.5694C39.6426 56.2853 39.9484 56.0788 40.295 55.9792C41.8405 55.4156 43.3496 54.7974 44.8406 54.161C45.1611 53.9797 45.5293 53.8997 45.8962 53.9322C46.2631 53.9647 46.6121 54.1079 46.8958 54.3428C48.3686 55.5428 49.8959 56.6882 51.405 57.8519C51.5467 58.0002 51.7189 58.1157 51.9102 58.1899C52.1014 58.2641 52.3065 58.2952 52.5112 58.2813C52.7159 58.2675 52.915 58.2089 53.0945 58.1095C53.274 58.0102 53.4295 57.8726 53.5499 57.7065L57.641 53.6155C57.8137 53.4936 57.9575 53.3348 58.0609 53.1505C58.1643 52.9661 58.2254 52.761 58.2393 52.5501C58.2533 52.3392 58.2199 52.1278 58.1417 51.9315C58.0634 51.7352 57.9417 51.559 57.7866 51.4155C56.6229 49.8882 55.441 48.3608 54.1501 46.8517C53.9349 46.6054 53.8006 46.299 53.7648 45.9739C53.729 45.6488 53.7939 45.3207 53.9503 45.0335C54.6413 43.4698 55.3142 41.9059 55.9142 40.3059C56.0169 39.9627 56.2243 39.6604 56.5081 39.4418C56.792 39.2232 57.1382 39.0995 57.4962 39.0878C59.4236 38.8696 61.3325 38.615 63.2235 38.3423C63.4116 38.3409 63.5973 38.3001 63.7686 38.2224C63.9399 38.1448 64.0928 38.032 64.2178 37.8915C64.3429 37.751 64.4375 37.5859 64.4948 37.4068C64.5521 37.2276 64.5711 37.0384 64.5508 36.8514C64.5508 34.8393 64.5508 32.8209 64.5508 30.7966C64.571 30.6135 64.5528 30.4283 64.4975 30.2526C64.4422 30.0769 64.3508 29.9146 64.2294 29.7761C64.1079 29.6375 63.9587 29.5256 63.7917 29.4478C63.6247 29.37 63.4441 29.3279 63.2599 29.3239C61.3326 29.0512 59.4049 28.7966 57.4776 28.5784C57.1195 28.549 56.7781 28.4142 56.4966 28.1909C56.215 27.9676 56.0057 27.666 55.8955 27.3239C55.3319 25.7784 54.6773 24.2329 54.0773 22.7238C53.9041 22.4233 53.829 22.0765 53.8616 21.7312C53.8941 21.3859 54.0329 21.0591 54.2593 20.7963C55.4715 19.2811 56.6537 17.7538 57.8052 16.2144C57.9545 16.0739 58.0713 15.9024 58.147 15.7119C58.2227 15.5214 58.255 15.3166 58.2429 15.1119C58.2308 14.9073 58.1737 14.7078 58.076 14.5275C57.9783 14.3473 57.8422 14.1908 57.6774 14.069L53.6227 10.0326C53.4996 9.84838 53.3358 9.69463 53.1442 9.58333C52.9526 9.47202 52.7384 9.40602 52.5174 9.39023C52.2964 9.37444 52.0748 9.40938 51.8693 9.49233C51.6639 9.57527 51.4803 9.70396 51.3322 9.86876L46.823 13.378C46.5736 13.588 46.2659 13.7176 45.9414 13.75C45.617 13.7825 45.2909 13.7162 45.0048 13.5598C43.4775 12.8689 41.9137 12.2144 40.35 11.6144C40.0126 11.5256 39.7124 11.3312 39.4933 11.0598C39.2741 10.7883 39.1476 10.4537 39.132 10.1051C38.8956 8.15963 38.6589 6.23242 38.3862 4.30509C38.385 4.11528 38.3442 3.92781 38.2655 3.7551C38.1867 3.58238 38.0715 3.42834 37.929 3.30298C37.7864 3.17762 37.6194 3.0838 37.438 3.02776C37.2567 2.97172 37.0653 2.95462 36.8769 2.97771H30.8221C30.6404 2.96016 30.4576 2.98035 30.2841 3.03686C30.1105 3.09337 29.95 3.18504 29.8135 3.3062C29.677 3.42735 29.5671 3.57539 29.4904 3.741C29.4136 3.90661 29.372 4.08622 29.3678 4.26869C29.0891 6.19601 28.8346 8.12344 28.6043 10.0508C28.5915 10.4111 28.4651 10.7581 28.243 11.0422C28.0209 11.3263 27.7142 11.5331 27.3676 11.6326C25.7858 12.2144 24.2402 12.8689 22.7128 13.5598C22.4243 13.7113 22.0975 13.7732 21.7735 13.7376C21.4496 13.702 21.1433 13.5704 20.8946 13.3598L16.3313 9.81438C15.9826 9.57773 15.6113 9.37658 15.2224 9.21422V9.26882Z" fill="#484848"/>
<path d="M19.8223 33.7602C19.8223 30.9753 20.6483 28.2531 22.1963 25.938C23.7442 23.6229 25.9447 21.819 28.5183 20.755C31.092 19.6909 33.9233 19.4144 36.6542 19.9604C39.3851 20.5063 41.8929 21.8503 43.8596 23.8221C45.8263 25.7939 47.1632 28.3048 47.7021 31.0371C48.241 33.7694 47.9578 36.6001 46.8871 39.171C45.8163 41.7418 44.0063 43.9373 41.6872 45.4793C39.3681 47.0213 36.6443 47.8405 33.8594 47.8333C30.1377 47.8094 26.5753 46.3179 23.947 43.6828C21.3187 41.0477 19.8366 37.482 19.8223 33.7602ZM33.9135 22.5781C31.6976 22.5709 29.5292 23.2214 27.6829 24.4469C25.8367 25.6724 24.3951 27.4179 23.5413 29.4628C22.6875 31.5077 22.4595 33.7599 22.8861 35.9345C23.3127 38.109 24.3753 40.108 25.9384 41.6788C27.5015 43.2495 29.495 44.3214 31.6674 44.7586C33.8398 45.1958 36.0931 44.9788 38.1422 44.1349C40.1912 43.2911 41.9442 41.8582 43.1787 40.0179C44.4132 38.1777 45.0741 36.0126 45.0777 33.7966C45.0873 32.3253 44.8055 30.8666 44.2485 29.5047C43.6915 28.1429 42.8706 26.9048 41.8328 25.8618C40.7949 24.8189 39.5608 23.9917 38.2017 23.4281C36.8425 22.8645 35.3849 22.5756 33.9135 22.5781Z" fill="#484848"/>
</svg>
