<svg width="128" height="106" viewBox="0 0 128 106" fill="none" xmlns="http://www.w3.org/2000/svg">
<path d="M3 37.196V34.5403C3.02774 34.1144 3.02774 33.6871 3 33.2611C3.34753 30.7944 3.82396 28.3476 4.42695 25.9306C6.48457 19.3237 10.5671 13.5282 16.0924 9.36215C21.6177 5.19612 28.3108 2.86856 35.2288 2.70787C40.7155 2.45063 46.1751 3.59447 51.0982 6.03021C56.0213 8.46594 60.2447 12.1138 63.369 16.6314L64.1569 17.6151L65.089 16.3852C68.2195 12.1217 72.3205 8.66532 77.0523 6.30166C81.7841 3.93801 87.0129 2.73545 92.3019 2.79315C97.5909 2.85085 102.791 4.16686 107.47 6.63318C112.149 9.0995 116.171 12.6454 119.207 16.9761C123.178 22.5623 125.282 29.2609 125.213 36.1138C125.092 41.7477 123.603 47.2683 120.879 52.2018C116.798 59.7341 111.532 66.5619 105.284 72.4229C93.1501 84.0322 79.6169 94.08 64.9929 102.335C64.6767 102.559 64.2998 102.681 63.9119 102.681C63.5241 102.681 63.1423 102.559 62.8261 102.335C52.467 96.3307 42.5968 89.5208 33.307 81.9671C25.5703 75.8211 18.6011 68.7679 12.5466 60.9593C8.24224 55.5891 5.12183 49.3687 3.39397 42.7068C3.54157 40.8865 3.34439 39.0164 3 37.196Z" stroke="black" stroke-width="4.91985" stroke-miterlimit="10"/>
</svg>
