<svg width="123" height="101" viewBox="0 0 123 101" fill="none" xmlns="http://www.w3.org/2000/svg">
<path d="M0 35.4925V32.8356C0.0233074 32.4096 0.0233074 31.9837 0 31.5576C0.347522 29.0747 0.82394 26.6114 1.42695 24.1779C3.49758 17.5787 7.5795 11.7901 13.102 7.62624C18.6244 3.46232 25.3147 1.13047 32.2288 0.955137C37.7207 0.698605 43.1836 1.84697 48.1078 4.29189C53.0321 6.73681 57.2537 10.3967 60.369 14.9267L61.157 15.9117L62.089 14.6313C65.2168 10.361 69.3222 6.90052 74.0571 4.53452C78.7921 2.16851 84.0235 0.967055 89.3163 1.02961C94.6092 1.09216 99.8065 2.41521 104.484 4.89245C109.162 7.3697 113.181 10.9297 116.207 15.2727C120.171 20.8436 122.275 27.5244 122.213 34.3611C122.093 40.0106 120.603 45.546 117.879 50.4971C113.798 58.0294 108.532 64.8584 102.284 70.7194C90.1386 82.315 76.6072 92.3603 61.9929 100.63C61.6829 100.869 61.3036 101 60.9119 101C60.5202 101 60.1361 100.869 59.8261 100.63C49.4561 94.6432 39.5846 87.8336 30.307 80.2636C22.5597 74.148 15.5889 67.1085 9.54662 59.3038C5.26084 53.9218 2.14249 47.7055 0.393972 41.0514C0.541567 38.9851 0.344389 37.3129 0 35.4925Z" fill="black"/>
</svg>
