<svg width="41" height="49" viewBox="0 0 41 49" fill="none" xmlns="http://www.w3.org/2000/svg">
<path d="M8.27824 48.1911L8.02464 48.0081C7.86908 47.9024 7.75113 47.75 7.68787 47.5729C7.62462 47.3958 7.61935 47.2032 7.67275 47.0229C7.72087 46.8326 7.82926 46.6626 7.98134 46.5384C8.13342 46.4142 8.32127 46.3424 8.51741 46.3332H37.372C38.4981 46.3332 38.7796 46.0517 38.7796 44.9257V9.25845C38.7655 9.07574 38.7655 8.89219 38.7796 8.70948C38.8107 8.48321 38.9238 8.27639 39.0978 8.12839C39.2718 7.9804 39.4942 7.90168 39.7225 7.90726C39.9533 7.91037 40.1747 8.00061 40.3418 8.15983C40.5088 8.31906 40.6094 8.53549 40.6236 8.76584C40.6236 8.94882 40.6236 9.13182 40.6236 9.3148C40.6236 21.0678 40.6236 32.8067 40.6236 44.5034C40.7525 45.2808 40.5933 46.0786 40.1761 46.7472C39.7589 47.4157 39.1126 47.909 38.3576 48.1348L8.27824 48.1911Z" fill="#73C17B"/>
<path d="M33.1768 20.5887C33.1768 26.2189 33.1768 31.8491 33.1768 37.4792C33.2011 37.904 33.1354 38.3291 32.9844 38.7268C32.8333 39.1245 32.6 39.4859 32.2998 39.7874C31.9997 40.0889 31.6399 40.3238 31.2428 40.4766C30.8457 40.6294 30.4202 40.6968 29.9954 40.6744C21.0293 40.6744 12.0635 40.6744 3.09745 40.6744C2.43252 40.7104 1.77679 40.5096 1.24592 40.1075C0.715057 39.7055 0.343347 39.1283 0.197825 38.4785C0.169328 38.2307 0.169328 37.9805 0.197825 37.7327V20.8421C0.197825 20.0117 0.733186 19.5331 1.40881 19.7583C1.58212 19.8095 1.73546 19.9123 1.84866 20.0532C1.96186 20.194 2.02911 20.3662 2.04179 20.5464C2.05582 20.7151 2.05582 20.8845 2.04179 21.0531V37.5636C2.04179 38.5629 2.36577 38.8868 3.35105 38.8868H30.0098C30.9951 38.8868 31.3328 38.5489 31.3328 37.5636V3.62776C31.3328 2.64248 30.9951 2.31884 30.0098 2.31884H3.33662C2.36541 2.31884 2.04179 2.64262 2.04179 3.59975V12.4672C2.06272 12.6495 2.06272 12.8337 2.04179 13.0161C1.98577 13.2281 1.85562 13.4129 1.67478 13.5369C1.49394 13.6609 1.27486 13.7159 1.05692 13.6917C0.846173 13.6707 0.648514 13.5783 0.497478 13.4299C0.346442 13.2814 0.250629 13.0858 0.226004 12.8754C0.226004 12.7347 0.226004 12.5938 0.226004 12.4531C0.226004 9.48316 0.226004 6.51331 0.226004 3.54339C0.209918 3.13003 0.28047 2.71778 0.432187 2.33293C0.583904 1.94808 0.813944 1.59904 1.10778 1.30786C1.40162 1.01667 1.75248 0.789769 2.13869 0.641541C2.5249 0.493313 2.93785 0.426872 3.35105 0.446698C12.2749 0.446698 21.1893 0.446698 30.0944 0.446698C30.5113 0.426421 30.9278 0.493877 31.317 0.644634C31.7063 0.795391 32.0596 1.02613 32.3541 1.32194C32.6486 1.61776 32.8773 1.97206 33.0263 2.36197C33.1753 2.75188 33.2409 3.16884 33.2187 3.58566C33.1483 9.24398 33.1768 14.9163 33.1768 20.5887Z" fill="#73C17B"/>
<path d="M36.9066 23.5731C36.9066 29.4989 36.9066 35.4246 36.9066 41.3363C36.9264 41.7532 36.8597 42.1697 36.71 42.5593C36.5604 42.9489 36.331 43.3032 36.0372 43.5997C35.7434 43.8961 35.3911 44.1281 35.0028 44.2813C34.6146 44.4344 34.1993 44.5053 33.7822 44.4892C25.4918 44.4892 17.1871 44.4892 8.89664 44.4892H8.47466C8.24976 44.4613 8.04261 44.3523 7.89253 44.1825C7.74246 44.0127 7.65955 43.7938 7.65955 43.5672C7.65955 43.3406 7.74246 43.1219 7.89253 42.9521C8.04261 42.7823 8.24976 42.6732 8.47466 42.6454C8.64327 42.6314 8.81257 42.6314 8.98118 42.6454H33.6833C34.7812 42.6454 35.0908 42.3498 35.0908 41.2379V5.5285C35.0908 4.65583 35.4144 4.20532 36.0338 4.20532C36.6531 4.20532 36.9492 4.66989 36.9492 5.51441L36.9066 23.5731Z" fill="#73C17B"/>
<path d="M5.35035 12.7621C5.35035 11.3546 5.35035 9.94702 5.35035 8.53947C5.35035 7.75125 5.68825 7.41354 6.49055 7.41354H15.0059C15.8364 7.41354 16.1605 7.75129 16.1605 8.58174V17.027C16.1605 17.8856 15.8367 18.2093 14.964 18.2093H6.51872C5.64605 18.2093 5.33661 17.8856 5.33661 16.9988L5.35035 12.7621ZM7.23624 9.22933V16.267H14.274V9.22933H7.23624Z" fill="#73C17B"/>
<path d="M22.0859 23.6717H27.3497C28.0535 23.6717 28.504 24.0518 28.4899 24.6148C28.4758 25.1779 28.0394 25.5298 27.3497 25.5298H16.864C16.1461 25.5298 15.7379 25.1778 15.7519 24.5726C15.766 23.9673 16.1602 23.6717 16.864 23.6717H22.0859Z" fill="#73C17B"/>
<path d="M22.0857 32.6229H16.8212C16.5938 32.6531 16.3629 32.6017 16.1696 32.4781C15.9764 32.3544 15.8333 32.1663 15.7655 31.9471C15.7272 31.8046 15.7235 31.655 15.7545 31.5107C15.7856 31.3664 15.8506 31.2315 15.9442 31.1172C16.0378 31.003 16.1572 30.9129 16.2927 30.854C16.4281 30.7952 16.5756 30.7694 16.7229 30.7789H27.3496C27.5679 30.7471 27.7904 30.7893 27.9819 30.899C28.1733 31.0088 28.3224 31.1797 28.4052 31.3843C28.4629 31.5282 28.483 31.6845 28.4636 31.8384C28.4443 31.9923 28.386 32.1387 28.2946 32.264C28.2031 32.3892 28.0813 32.4891 27.9406 32.5543C27.7999 32.6196 27.6452 32.6479 27.4905 32.6368H22.0857V32.6229Z" fill="#73C17B"/>
<path d="M8.44695 24.9095C9.30555 24.0369 10.0652 23.2487 10.8675 22.4745C10.9767 22.3313 11.1256 22.2236 11.2957 22.1647C11.4659 22.1058 11.6499 22.0985 11.8242 22.1436C11.9985 22.1887 12.1555 22.2842 12.2758 22.4182C12.396 22.5521 12.4744 22.7187 12.5005 22.8968C12.5122 23.0547 12.4922 23.2133 12.4414 23.3632C12.3906 23.5131 12.3101 23.6512 12.205 23.7695C11.2197 24.8111 10.2064 25.8105 9.1789 26.8099C9.09304 26.9132 8.98507 26.9964 8.86344 27.0535C8.7418 27.1106 8.60949 27.1401 8.47513 27.1401C8.34076 27.1401 8.20776 27.1106 8.08613 27.0535C7.96449 26.9964 7.85721 26.9132 7.77136 26.8099C7.18019 26.2609 6.61687 25.6837 6.05385 25.1066C5.94805 25.0246 5.86086 24.9211 5.79818 24.8028C5.73551 24.6846 5.69872 24.5543 5.69028 24.4207C5.68185 24.2871 5.70209 24.1532 5.74939 24.0279C5.79669 23.9027 5.86985 23.7891 5.9645 23.6944C6.05916 23.5998 6.1733 23.5263 6.29852 23.479C6.42374 23.4317 6.55736 23.4116 6.69096 23.42C6.82455 23.4285 6.9548 23.4653 7.07308 23.5279C7.19136 23.5906 7.29486 23.6778 7.37686 23.7836C7.74282 24.1214 8.05284 24.5013 8.44695 24.9095Z" fill="#73C17B"/>
<path d="M8.4465 32.0316L10.8671 29.5966C10.9785 29.4451 11.1376 29.3351 11.3186 29.2841C11.4997 29.2331 11.6923 29.244 11.8664 29.315C12.0131 29.3862 12.1441 29.4866 12.2506 29.61C12.3571 29.7335 12.4368 29.8773 12.4856 30.0329C12.5066 30.1814 12.495 30.3327 12.4513 30.4762C12.4075 30.6196 12.333 30.7519 12.2327 30.8634C11.2193 31.9191 10.1915 32.9465 9.13584 33.96C9.05145 34.0656 8.94427 34.1509 8.82244 34.2095C8.70061 34.2681 8.56726 34.2985 8.43207 34.2985C8.29688 34.2985 8.16353 34.2681 8.0417 34.2095C7.91987 34.1509 7.81269 34.0656 7.7283 33.96C7.13713 33.397 6.5604 32.8199 5.9833 32.2146C5.89521 32.127 5.82482 32.0228 5.77712 31.9081C5.72942 31.7934 5.70496 31.6703 5.70496 31.5461C5.70496 31.4218 5.72942 31.2988 5.77712 31.1841C5.82482 31.0693 5.89521 30.965 5.9833 30.8774C6.06995 30.7875 6.17358 30.7162 6.28845 30.6674C6.40332 30.6186 6.52653 30.5935 6.65134 30.5935C6.77614 30.5935 6.90003 30.6186 7.01491 30.6674C7.12978 30.7162 7.23341 30.7875 7.32006 30.8774C7.70009 31.2152 8.03831 31.6657 8.4465 32.0316Z" fill="#73C17B"/>
<path d="M23.7322 9.21542H20.6635C19.9738 9.21542 19.5659 8.86349 19.5659 8.2864C19.5659 7.70931 19.9738 7.35737 20.6635 7.35737H26.8565C26.9908 7.33962 27.1273 7.35017 27.2572 7.3883C27.3872 7.42643 27.5078 7.49136 27.6112 7.57885C27.7146 7.66633 27.7988 7.77452 27.8579 7.89637C27.917 8.01822 27.9501 8.15104 27.9548 8.2864C27.9548 8.84941 27.5184 9.21542 26.8428 9.21542H23.7322Z" fill="#73C17B"/>
<path d="M23.7181 13.692H20.6357C19.9601 13.692 19.5522 13.3262 19.5663 12.7491C19.5803 12.172 19.9882 11.8482 20.6357 11.8341H26.8713C27.5329 11.8341 27.9692 12.2282 27.9552 12.7912C27.9411 13.3542 27.5188 13.692 26.8713 13.692H23.7181Z" fill="#73C17B"/>
<path d="M23.7608 16.2961H26.8851C27.0177 16.2798 27.1528 16.2919 27.2803 16.3315C27.4078 16.3711 27.5253 16.4373 27.6253 16.5258C27.7253 16.6143 27.8055 16.7231 27.8604 16.8449C27.9152 16.9666 27.9435 17.0986 27.9435 17.2321C27.9435 17.3657 27.9152 17.4976 27.8604 17.6194C27.8055 17.7412 27.7253 17.85 27.6253 17.9385C27.5253 18.027 27.4078 18.0932 27.2803 18.1328C27.1528 18.1724 27.0177 18.1845 26.8851 18.1682H20.6501C19.9886 18.1682 19.5941 17.8163 19.5801 17.2674C19.566 16.7184 19.9883 16.3242 20.6639 16.3102L23.7608 16.2961Z" fill="#73C17B"/>
<path d="M4.83011 42.6021C5.01444 42.6021 5.19457 42.6569 5.34763 42.7596C5.50069 42.8624 5.62001 43.0083 5.68989 43.1789C5.75977 43.3494 5.77706 43.537 5.74006 43.7175C5.70306 43.8981 5.61366 44.0636 5.48233 44.193C5.351 44.3223 5.18374 44.4096 5.00261 44.4438C4.82149 44.4781 4.63465 44.4577 4.46516 44.3852C4.29568 44.3127 4.1511 44.1914 4.05074 44.0368C3.95037 43.8822 3.8988 43.7013 3.9016 43.517C3.90882 43.2742 4.00895 43.0435 4.18201 42.873C4.35506 42.7026 4.58724 42.6056 4.83011 42.6021Z" fill="#73C17B"/>
<path d="M1.1271 16.0143C1.36876 16.0103 1.60256 16.1007 1.77864 16.2663C1.95471 16.4319 2.05909 16.6596 2.07004 16.901C2.07015 17.1538 1.97191 17.3966 1.79582 17.578C1.61973 17.7593 1.37977 17.8648 1.1271 17.8721C0.883056 17.8614 0.652528 17.7578 0.482433 17.5824C0.312338 17.4071 0.215689 17.1734 0.212333 16.9292C0.210432 16.8085 0.232319 16.6886 0.277624 16.5768C0.32293 16.4649 0.390909 16.3633 0.476247 16.278C0.561585 16.1927 0.662666 16.1254 0.774525 16.0801C0.886385 16.0348 1.00643 16.0124 1.1271 16.0143Z" fill="#73C17B"/>
</svg>
