<svg width="72" height="73" viewBox="0 0 72 73" fill="none" xmlns="http://www.w3.org/2000/svg">
<path d="M5.58176 72.1314C3.64687 71.2831 2.00306 69.8861 0.85419 68.1131C0.330357 67.4131 0.0629085 66.5546 0.0960022 65.6809C0.129096 64.8072 0.460905 63.9714 1.03619 63.313C1.25438 63.0403 1.50829 62.7857 1.74466 62.5311L16.2905 47.9853C16.5535 47.5953 16.9086 47.2759 17.3239 47.055C17.7392 46.8341 18.2021 46.7186 18.6725 46.7186C19.1429 46.7186 19.6066 46.8341 20.0219 47.055C20.4373 47.2759 20.7915 47.5953 21.0545 47.9853L21.8002 48.7853L23.7454 46.5853C23.1636 45.8398 22.4002 44.9489 21.7274 44.0034C19.0543 40.2586 17.3608 35.9042 16.8019 31.3373C16.2429 26.7704 16.8367 22.1362 18.5278 17.8573C21.0527 11.3028 26.0089 5.97512 32.3642 2.98414C36.5241 0.950069 41.1444 0.0411272 45.7648 0.347738C47.4374 0.499687 49.1001 0.742465 50.7463 1.07502C50.9381 1.12952 51.14 1.13817 51.3358 1.10027C51.5316 1.06237 51.7161 0.978992 51.8738 0.85684C52.3017 0.539117 52.8144 0.355584 53.3467 0.329538C55.2558 0.329538 57.1825 0.329538 59.0917 0.329538C59.3743 0.309648 59.658 0.347934 59.9253 0.442012C60.1926 0.53609 60.4383 0.683988 60.6462 0.876538C60.8541 1.06909 61.0203 1.30217 61.1345 1.56148C61.2488 1.82079 61.3085 2.10079 61.3103 2.38415C61.3103 3.49327 61.3103 4.58422 61.3103 5.69334C61.3376 5.99715 61.473 6.28106 61.6921 6.49336C66.7584 10.5925 70.2 16.3611 71.4011 22.7665C71.6011 23.8392 71.7289 24.9302 71.9107 26.0029V29.6394C71.7107 30.9121 71.5829 32.1849 71.3283 33.4395C70.0941 39.8373 66.5955 45.5759 61.4737 49.6036C57.6969 52.6625 53.1594 54.6361 48.3465 55.3128C48.0466 55.3789 47.743 55.4275 47.4374 55.4583C47.1562 55.4895 46.8739 55.4103 46.6499 55.2372C46.426 55.0642 46.2778 54.811 46.2371 54.5309C46.2103 54.2602 46.2874 53.9893 46.4529 53.7733C46.6183 53.5572 46.8601 53.4121 47.1285 53.3673C48.474 53.0764 49.8553 52.8946 51.1644 52.5127C55.729 51.2448 59.8489 48.7282 63.0611 45.2462C66.2733 41.7642 68.4503 37.4549 69.3467 32.8031C70.4072 27.3883 69.6661 21.7752 67.2373 16.8209C65.9327 14.0937 64.14 11.6287 61.9469 9.54797L61.5465 9.16616C61.5465 9.16616 61.4558 9.16616 61.3467 9.16616C61.3467 10.2753 61.3467 11.3662 61.3467 12.4572C61.3935 12.6843 61.5151 12.8891 61.6921 13.0389C64.781 16.5382 66.6895 20.9214 67.1468 25.5666C67.5411 28.9147 67.1776 32.3086 66.0823 35.4969C64.987 38.6853 63.188 41.5863 60.8194 43.9852C57.3235 47.7207 52.6377 50.1246 47.5644 50.7854C41.7106 51.6632 35.7469 50.2 30.9642 46.7126C26.2187 43.4313 22.9535 38.4159 21.873 32.7486C21.2119 29.6134 21.211 26.3749 21.8704 23.2394C22.5297 20.1039 23.8343 17.14 25.7021 14.5367C27.57 11.9333 29.9603 9.74754 32.7194 8.11855C35.4785 6.48956 38.5462 5.45309 41.7279 5.07514C44.6185 4.74959 47.545 4.98413 50.3468 5.76603L51.0739 5.94786C51.0739 5.12966 51.0739 4.3842 51.0739 3.63873C51.0739 3.47509 50.7461 3.23872 50.5279 3.18417C47.1058 2.31359 43.5399 2.16452 40.0571 2.74643C36.5743 3.32833 33.2507 4.62846 30.2974 6.56422C27.3442 8.49998 24.8259 11.029 22.9029 13.9905C20.9798 16.952 19.694 20.2812 19.127 23.7665C18.4648 27.4284 18.6374 31.1924 19.6322 34.7782C20.627 38.364 22.4187 41.679 24.8729 44.4761C28.7784 49.1189 34.2267 52.1981 40.2187 53.1491C40.9641 53.2763 41.7096 53.3128 42.4551 53.4218C42.7044 53.4199 42.9457 53.5095 43.1333 53.6737C43.321 53.8379 43.4422 54.0653 43.4734 54.3128C43.6007 55.0582 43.0011 55.6037 42.1647 55.531C36.1335 55.0525 30.4238 52.6131 25.909 48.5854L25.5095 48.2762L23.4729 50.4581C23.8365 50.8036 24.3273 51.1672 24.7273 51.6218C25.1901 52.1141 25.4482 52.7643 25.4482 53.44C25.4482 54.1157 25.1901 54.7659 24.7273 55.2582C24.5455 55.4764 24.3458 55.6583 24.1458 55.8583L10.1087 69.9131C9.28882 70.872 8.24633 71.6149 7.07239 72.0768L5.58176 72.1314ZM61.3645 39.7669C63.798 36.3064 65.1039 32.179 65.1039 27.9484C65.1039 23.7179 63.798 19.5905 61.3645 16.13V24.7665C61.4295 25.0415 61.4295 25.3279 61.3645 25.6029C61.1463 25.9302 60.7826 26.3666 60.4554 26.3848C60.1281 26.403 59.6925 26.0756 59.4379 25.7665C59.3121 25.4683 59.2676 25.142 59.3101 24.8211C59.3101 17.5482 59.3101 10.4026 59.3101 3.20237V2.40235H53.4008V46.7489C55.4045 45.787 57.2451 44.517 58.8555 42.9852C59.0126 42.8517 59.1367 42.6839 59.2186 42.4948C59.3006 42.3056 59.3388 42.1002 59.3287 41.8943C59.3287 38.2578 59.3287 34.5849 59.3287 30.8758C59.3102 30.6458 59.3102 30.4148 59.3287 30.1849C59.3519 29.9227 59.4768 29.6801 59.6776 29.5099C59.8785 29.3397 60.1387 29.2556 60.4012 29.2758C60.6634 29.2708 60.9166 29.369 61.107 29.5493C61.2974 29.7295 61.41 29.9774 61.4195 30.2394C61.4195 30.494 61.4195 30.7667 61.4195 31.0213V39.7669H61.3645ZM45.201 10.3298V48.9126C47.0193 48.549 48.6918 48.1672 50.4009 47.8399C50.9828 47.7308 51.1103 47.4581 51.1103 46.8944C51.1103 34.9668 51.1103 23.0392 51.1103 11.1116V10.3298H45.201ZM26.7453 39.0215V26.8575C26.7453 24.8756 27.5276 24.1301 29.5277 24.1301H34.0733H34.8732V23.2756C34.8732 21.7665 34.8732 20.2391 34.8732 18.73C34.8213 18.3902 34.8501 18.0429 34.9566 17.7161C35.0632 17.3893 35.2445 17.092 35.4867 16.8481C35.7288 16.6041 36.0254 16.4203 36.3514 16.3114C36.6774 16.2025 37.0242 16.1715 37.3644 16.2208H42.9824V15.3845C42.9824 13.8753 42.9824 12.348 42.9824 10.8207C42.9253 10.4695 42.9534 10.1098 43.0632 9.77137C43.1731 9.43295 43.3621 9.12561 43.6145 8.8749C43.867 8.6242 44.1756 8.43737 44.5148 8.3299C44.854 8.22244 45.2134 8.19747 45.5642 8.25705H50.8191C46.7373 6.86013 42.3216 6.77046 38.1865 8.00052C34.0514 9.23059 30.4022 11.7192 27.7476 15.12C25.093 18.5207 23.5646 22.6644 23.3752 26.9745C23.1858 31.2845 24.3451 35.5464 26.6912 39.1669L26.7453 39.0215ZM42.9283 18.33H37.0004V39.4397C37.0004 41.9125 37.0004 44.3852 37.0004 46.8762C37.0004 47.0944 37.1457 47.4581 37.3093 47.5126C39.1 48.2036 40.9919 48.5966 42.9096 48.6762L42.9283 18.33ZM28.8734 26.312V38.876C28.8734 39.8942 28.564 41.1124 29.0003 41.9124C29.6998 42.9013 30.5828 43.7469 31.6007 44.4034C32.5826 45.167 33.6554 45.7853 34.819 46.5489V26.3848L28.8734 26.312ZM15.7276 61.2948L10.8181 56.4947C8.14525 59.1493 5.36301 61.8403 2.72657 64.5676C2.54491 64.7377 2.40032 64.9432 2.30132 65.1715C2.20231 65.3998 2.15128 65.646 2.15128 65.8949C2.15128 66.1437 2.20231 66.39 2.30132 66.6183C2.40032 66.8466 2.54491 67.0521 2.72657 67.2222C3.36296 67.8949 4.0363 68.5495 4.70905 69.2041C4.87303 69.4632 5.10006 69.6766 5.36869 69.8245C5.63731 69.9724 5.93831 70.05 6.24496 70.05C6.5516 70.05 6.85348 69.9724 7.12211 69.8245C7.39073 69.6766 7.61776 69.4632 7.78175 69.2041C9.30906 67.6949 10.8178 66.1676 12.3451 64.6403C13.5633 63.5494 14.6912 62.4221 15.7276 61.3675V61.2948ZM20.4179 56.6583L23.0547 53.9673C23.138 53.9009 23.2055 53.8166 23.2518 53.7205C23.298 53.6245 23.3219 53.5193 23.3219 53.4127C23.3219 53.3062 23.298 53.201 23.2518 53.105C23.2055 53.0089 23.138 52.9246 23.0547 52.8582L19.2362 49.0399C19.1739 48.9535 19.0922 48.8832 18.9974 48.8347C18.9026 48.7862 18.7976 48.7609 18.6911 48.7609C18.5846 48.7609 18.4797 48.7862 18.3848 48.8347C18.29 48.8832 18.2075 48.9535 18.1451 49.0399L15.4542 51.7127L20.4179 56.6583ZM12.5271 54.7491L17.3452 59.5856L18.6361 58.2765L13.818 53.44L12.5271 54.7491Z" fill="#484848"/>
</svg>
