<svg width="37" height="68" viewBox="0 0 37 68" fill="none" xmlns="http://www.w3.org/2000/svg">
<path d="M17.5096 46.5986C16.1177 46.5986 14.9439 46.097 13.9881 45.0938C13.03 44.0906 12.609 42.9103 12.725 41.553C12.8989 39.0745 13.4789 36.9206 14.4648 35.0912C15.4507 33.2618 17.0166 31.3734 19.1624 29.4259C21.5402 27.3015 23.352 25.4567 24.5978 23.8917C25.8458 22.3291 26.4698 20.5445 26.4698 18.5381C26.4698 16.1186 25.673 14.1121 24.0793 12.5188C22.4832 10.9255 20.2643 10.1288 17.4226 10.1288C15.5667 10.1288 13.9869 10.5265 12.6832 11.322C11.3771 12.1199 10.3182 13.1089 9.50622 14.2892C8.69429 15.4694 7.69445 16.2661 6.5067 16.6792C5.31664 17.0923 4.17065 17.0628 3.06874 16.5907C1.73485 16.0005 0.822002 15.0268 0.330202 13.6695C-0.163918 12.3123 -0.063005 11.0435 0.632939 9.86323C2.3148 7.20765 4.57662 4.99468 7.41839 3.2243C10.2602 1.45392 13.5949 0.568726 17.4226 0.568726C23.5121 0.568726 28.1958 2.29544 31.4737 5.74886C34.7493 9.19992 36.387 13.345 36.387 18.184C36.387 21.1347 35.7642 23.658 34.5184 25.7542C33.2704 27.8479 31.3125 30.2226 28.6447 32.8782C26.6728 34.7666 25.2809 36.3009 24.469 37.4812C23.6571 38.6614 23.1061 40.0187 22.8161 41.553C22.5842 43.0284 21.9752 44.2381 20.9893 45.1823C20.0034 46.1265 18.8435 46.5986 17.5096 46.5986ZM17.4226 67.8432C15.5087 67.8432 13.8709 67.1504 12.5092 65.7648C11.1452 64.3768 10.4631 62.7091 10.4631 60.7617C10.4631 58.8143 11.1452 57.1466 12.5092 55.7586C13.8709 54.373 15.5087 53.6802 17.4226 53.6802C19.3364 53.6802 20.9754 54.373 22.3394 55.7586C23.7011 57.1466 24.382 58.8143 24.382 60.7617C24.382 62.7091 23.7011 64.3768 22.3394 65.7648C20.9754 67.1504 19.3364 67.8432 17.4226 67.8432Z" fill="#B7C55E"/>
</svg>
