<svg width="63" height="80" viewBox="0 0 63 80" fill="none" xmlns="http://www.w3.org/2000/svg">
<path d="M31.8563 13.9893C37.0479 13.9893 42.123 15.5288 46.4397 18.4131C50.7564 21.2974 54.1202 25.397 56.107 30.1934C58.0938 34.9899 58.6138 40.2678 57.601 45.3596C56.5882 50.4515 54.0881 55.1287 50.417 58.7997C46.746 62.4708 42.0686 64.9708 36.9767 65.9836C31.8848 66.9964 26.6074 66.4767 21.8109 64.4899C17.0145 62.5032 12.9147 59.1386 10.0304 54.8219C7.14611 50.5053 5.60693 45.4303 5.60693 40.2386C5.60693 33.2769 8.37206 26.6002 13.2948 21.6775C18.2175 16.7548 24.8945 13.9893 31.8563 13.9893ZM54.8245 40.2386C54.8245 35.6959 53.4775 31.2553 50.9537 27.4782C48.43 23.7011 44.8425 20.7572 40.6456 19.0188C36.4487 17.2803 31.8305 16.8255 27.3751 17.7118C22.9197 18.598 18.8276 20.7855 15.6155 23.9976C12.4033 27.2098 10.2157 31.3024 9.32949 35.7578C8.44326 40.2131 8.89762 44.8312 10.636 49.0281C12.3744 53.225 15.3182 56.8122 19.0953 59.336C22.8724 61.8597 27.3136 63.2068 31.8563 63.2068C37.9342 63.181 43.7562 60.7573 48.0571 56.4626C52.3579 52.1679 54.79 46.3493 54.8245 40.2714V40.2386Z" fill="#484848"/>
<path d="M56.6613 65.9801H54.9222C54.4871 65.9801 54.0691 65.8073 53.7614 65.4996C53.4538 65.1919 53.2816 64.7747 53.2816 64.3396C53.2816 63.9044 53.4538 63.4872 53.7614 63.1795C54.0691 62.8718 54.4871 62.699 54.9222 62.699C56.9729 62.699 59.0397 62.699 61.0904 62.699C61.5255 62.699 61.9427 62.8718 62.2503 63.1795C62.558 63.4872 62.731 63.9044 62.731 64.3396C62.731 66.3247 62.731 68.3262 62.731 70.3277C62.7315 70.749 62.5701 71.1543 62.28 71.4597C61.9898 71.7652 61.5936 71.9473 61.1729 71.9683C60.948 71.9841 60.7221 71.9534 60.5096 71.878C60.2971 71.8026 60.1024 71.6843 59.9377 71.5303C59.7729 71.3764 59.6419 71.1901 59.5523 70.9832C59.4628 70.7763 59.4164 70.5532 59.417 70.3277C59.417 69.9832 59.417 69.6387 59.417 69.2777C59.417 68.9168 59.417 68.5887 59.417 68.1293C59.2188 68.2547 59.0324 68.3975 58.8594 68.5559C52.8752 74.3456 45.1593 78.0162 36.8918 79.0064C30.968 79.8358 24.9326 79.2807 19.2595 77.3849C13.5863 75.4891 8.42963 72.3043 4.19461 68.0801C3.99854 67.9472 3.83409 67.7734 3.71157 67.5707C3.58905 67.3679 3.51137 67.1411 3.48487 66.9057C3.45837 66.6703 3.48339 66.4319 3.55777 66.207C3.63214 65.9821 3.75423 65.776 3.91584 65.6028C4.06979 65.4171 4.26304 65.2675 4.4814 65.1649C4.69975 65.0622 4.93785 65.009 5.17913 65.009C5.4204 65.009 5.6593 65.0622 5.87766 65.1649C6.09601 65.2675 6.28847 65.4171 6.44241 65.6028C13.0348 72.089 21.8661 75.797 31.1129 75.9618C40.3596 76.1267 49.3164 72.7357 56.1358 66.4887L56.7919 65.9146L56.6613 65.9801Z" fill="#484848"/>
<path d="M6.85506 14.515H8.69271C9.10863 14.514 9.50963 14.671 9.8142 14.9543C10.1188 15.2375 10.3042 15.6259 10.3333 16.0408C10.3466 16.2487 10.3178 16.4571 10.2484 16.6535C10.1789 16.85 10.0706 17.0303 9.92956 17.1836C9.7885 17.3369 9.61725 17.4601 9.42729 17.5456C9.23732 17.6312 9.03238 17.6773 8.82408 17.6813C6.69132 17.6813 4.55872 17.6813 2.42596 17.6813C2.21694 17.6797 2.00983 17.6351 1.81875 17.5504C1.62768 17.4656 1.45641 17.3425 1.31488 17.1887C1.17336 17.0349 1.06462 16.8536 0.996057 16.6561C0.927495 16.4587 0.900211 16.2492 0.91595 16.0408C0.91595 14.0228 0.91595 11.9885 0.91595 9.97058C0.91595 9.53547 1.08892 9.1182 1.39659 8.81053C1.70426 8.50286 2.12143 8.32999 2.55654 8.32999C2.77204 8.31895 2.9877 8.35057 3.19098 8.42297C3.39426 8.49536 3.5813 8.60713 3.74131 8.7519C3.90133 8.89668 4.03111 9.07159 4.12342 9.26664C4.21573 9.46169 4.26912 9.67303 4.27963 9.88857C4.27963 10.2331 4.27963 10.5776 4.27963 10.9221V12.0049C4.4778 11.8795 4.6642 11.7367 4.83717 11.5784C10.265 6.3837 17.1201 2.92765 24.5242 1.65285C30.7486 0.431182 37.178 0.758824 43.2459 2.60697C49.3139 4.45511 54.8343 7.76704 59.3209 12.251C59.5195 12.3899 59.6846 12.5711 59.8048 12.7815C59.925 12.9919 59.9974 13.2262 60.0163 13.4678C60.0351 13.7093 59.9999 13.9521 59.9137 14.1785C59.8276 14.405 59.6926 14.6096 59.518 14.7775C58.7962 15.4994 57.8777 15.4502 56.9754 14.5807C52.9608 10.5344 47.9973 7.5566 42.5378 5.91838C36.7642 4.05911 30.6109 3.70865 24.6636 4.90042C18.7162 6.09219 13.1728 8.78651 8.56133 12.7268C7.93791 13.219 7.36396 13.7768 6.77335 14.3674L6.85506 14.515Z" fill="#484848"/>
<path d="M26.0485 41.5516H23.5708C23.2314 41.5516 22.9064 41.4168 22.6664 41.1768C22.4264 40.9368 22.2915 40.6113 22.2915 40.2719C22.2915 39.9325 22.4264 39.6071 22.6664 39.3671C22.9064 39.1271 23.2314 38.9923 23.5708 38.9923H26.0645V27.6559C26.0367 27.4583 26.056 27.257 26.1198 27.068C26.1836 26.879 26.2904 26.7075 26.4322 26.5672C26.5741 26.427 26.7464 26.3218 26.9361 26.2601C27.1258 26.1985 27.3277 26.1821 27.5249 26.2122H33.7428C35.6909 26.2036 37.5691 26.9375 38.9954 28.2646C40.4216 29.5916 41.2885 31.4121 41.4202 33.3558C41.5518 35.2994 40.9385 37.2203 39.7043 38.7275C38.4701 40.2348 36.7076 41.2153 34.7761 41.4696C34.3955 41.522 34.0124 41.5494 33.6282 41.5516H28.7064V45.3742H32.3978C32.5769 45.3538 32.7579 45.3715 32.9297 45.4261C33.1015 45.4806 33.2598 45.571 33.3943 45.691C33.5288 45.811 33.6362 45.9582 33.7099 46.1227C33.7836 46.2872 33.8221 46.4654 33.8221 46.6457C33.8221 46.8259 33.7836 47.0041 33.7099 47.1686C33.6362 47.3331 33.5288 47.4802 33.3943 47.6002C33.2598 47.7203 33.1015 47.8106 32.9297 47.8652C32.7579 47.9198 32.5769 47.9374 32.3978 47.9171H28.6568V52.9865C28.6568 53.3259 28.5219 53.6513 28.2819 53.8913C28.0419 54.1313 27.7169 54.2661 27.3775 54.2661C27.0381 54.2661 26.7123 54.1313 26.4723 53.8913C26.2323 53.6513 26.0974 53.3259 26.0974 52.9865V47.9335H23.4563C23.1439 47.898 22.8557 47.7487 22.6464 47.5142C22.437 47.2797 22.3211 46.9763 22.3211 46.662C22.3211 46.3477 22.437 46.0444 22.6464 45.8099C22.8557 45.5754 23.1439 45.4261 23.4563 45.3906H26.0317L26.0485 41.5516ZM28.6239 38.9267C30.5598 38.9267 32.4962 38.9267 34.4157 38.8446C35.6873 38.6765 36.8466 38.0295 37.6576 37.0356C38.4685 36.0417 38.8695 34.7759 38.7791 33.4964C38.6866 32.1779 38.0899 30.9459 37.112 30.0566C36.1342 29.1674 34.851 28.6895 33.5297 28.7223H28.6079L28.6239 38.9267Z" fill="#484848"/>
</svg>
