<svg width="24" height="24" viewBox="0 0 24 24" fill="none" xmlns="http://www.w3.org/2000/svg">
<path d="M18.32 22.73C18.18 22.68 18.02 22.6401 17.89 22.5701C15.96 21.5601 14.03 20.55 12.1 19.53C11.95 19.45 11.83 19.44 11.67 19.52C9.74997 20.54 7.82995 21.5401 5.89995 22.5601C5.66995 22.6801 5.43996 22.7499 5.18996 22.6799C4.78996 22.5699 4.55996 22.17 4.62996 21.76C4.99996 19.57 5.37996 17.3799 5.75996 15.1899C5.78996 15.0399 5.74995 14.9501 5.64995 14.8501C4.07995 13.3301 2.51994 11.8 0.959944 10.27C0.839944 10.15 0.719957 9.99008 0.659957 9.83008C0.519957 9.39008 0.789953 8.94011 1.24995 8.86011C1.89995 8.74011 2.54997 8.66006 3.19997 8.56006C4.61997 8.35006 6.04996 8.10995 7.47996 7.94995C7.99996 7.88995 8.22996 7.65997 8.43996 7.21997C9.29996 5.40997 10.2099 3.62006 11.0899 1.81006C11.2599 1.47006 11.49 1.26001 11.89 1.26001C12.29 1.26001 12.5099 1.48007 12.6799 1.82007C13.6299 3.76007 14.59 5.69012 15.54 7.62012C15.62 7.78012 15.71 7.84012 15.89 7.87012C18.05 8.17012 20.2099 8.49005 22.3599 8.80005C22.7099 8.85005 22.99 9.01011 23.1 9.36011C23.21 9.71011 23.0899 10 22.8299 10.25C21.2599 11.77 19.7 13.3001 18.14 14.8201C18.03 14.9201 17.99 15.0099 18.01 15.1799C18.39 17.3599 18.76 19.54 19.13 21.72C19.2 22.26 18.85 22.71 18.32 22.73Z" stroke="black" stroke-miterlimit="10"/>
</svg>
