<svg xmlns="http://www.w3.org/2000/svg" viewBox="0 0 20.67 19.72"><g id="Слой_2" data-name="Слой 2"><g id="Layer_1" data-name="Layer 1"><path d="M16.26,19.72a3.25,3.25,0,0,1-.4-.15l-5.32-2.79a.35.35,0,0,0-.39,0l-5.3,2.79a.88.88,0,0,1-.65.11.74.74,0,0,1-.52-.85c.35-2,.69-4,1-6a.3.3,0,0,0-.11-.31L.31,8.27A1,1,0,0,1,0,7.87.7.7,0,0,1,.57,7c.6-.11,1.2-.18,1.8-.27,1.3-.19,2.61-.41,3.92-.56a1,1,0,0,0,.88-.67C8,3.81,8.8,2.17,9.61.51A.76.76,0,0,1,10.34,0a.79.79,0,0,1,.73.51c.87,1.78,1.75,3.56,2.62,5.33a.35.35,0,0,0,.32.23l6,.86a.75.75,0,0,1,.68.52.77.77,0,0,1-.25.82c-1.44,1.39-2.88,2.8-4.32,4.2a.33.33,0,0,0-.11.33q.52,3,1,6A.76.76,0,0,1,16.26,19.72Z"/></g></g></svg>