<svg xmlns="http://www.w3.org/2000/svg" viewBox="0 0 62.49 54.35"><defs><style>.cls-1{fill:#fff;}.cls-2{fill:#231f20;}</style></defs><g id="Слой_2" data-name="Слой 2"><g id="Layer_1" data-name="Layer 1"><path class="cls-1" d="M0,24a2.57,2.57,0,0,1,1.57-1.33L59.7.24A3,3,0,0,1,61.22,0a1.62,1.62,0,0,1,1.22,2.06Q60.25,12.7,58,23.29l-5,23.83c-.38,1.82-.74,3.65-1.14,5.48s-1.62,2.25-3.09,1.19L35,43.76a2.46,2.46,0,0,0-3.53.08L24,49.92C22.71,51,21.48,50.63,21,49q-2.66-8.5-5.3-17a1.05,1.05,0,0,0-.73-.78c-4.41-1.63-8.82-3.29-13.23-4.91A2.83,2.83,0,0,1,0,25Zm18.85,7.08a5.81,5.81,0,0,0,.11.7q1.48,5.24,3,10.47c.12.41.31.71.79.69s.64-.38.69-.79c.22-1.61.45-3.21.63-4.83a6,6,0,0,1,1.88-4q11.32-10.49,22.62-21c.09-.08.22-.15.26-.25a5.4,5.4,0,0,0,.13-.7,4.17,4.17,0,0,0-.7-.08c-.12,0-.24.14-.36.21l-16.4,10.1q-5.52,3.4-11,6.8A3,3,0,0,0,18.85,31.05Z"/><path class="cls-2" d="M18.85,31.05a3,3,0,0,1,1.58-2.66Q26,25,31.48,21.59l16.4-10.1c.12-.07.24-.2.36-.21a4.17,4.17,0,0,1,.7.08,5.4,5.4,0,0,1-.13.7c0,.1-.17.17-.26.25q-11.31,10.52-22.62,21a6,6,0,0,0-1.88,4c-.18,1.62-.41,3.22-.63,4.83-.05.41-.19.76-.69.79s-.67-.28-.79-.69Q20.45,37,19,31.75A5.81,5.81,0,0,1,18.85,31.05Z"/></g></g></svg>