<svg xmlns="http://www.w3.org/2000/svg" viewBox="0 0 59.86 48.9"><defs><style>.cls-1{fill:#fff;}</style></defs><g id="Слой_2" data-name="Слой 2"><g id="Layer_1" data-name="Layer 1"><path class="cls-1" d="M0,43.38a25.13,25.13,0,0,0,18-5.05c-5.63-.54-9.39-3.39-11.47-8.66a13.1,13.1,0,0,0,5.37-.17c-6-1.86-9.26-5.88-9.7-12.29a13.11,13.11,0,0,0,5.41,1.5C2.16,14.14,1,8.71,3.94,2.22a35.14,35.14,0,0,0,25.35,13c0-1.27-.17-2.47-.09-3.67A11.75,11.75,0,0,1,34.78,2,12.15,12.15,0,0,1,50.09,3.57a.83.83,0,0,0,.87.24A25.36,25.36,0,0,0,58.28.93a12.71,12.71,0,0,1-5.08,6.7A28.6,28.6,0,0,0,59.86,6c-.45.6-.88,1.22-1.35,1.79a25.59,25.59,0,0,1-4.3,4.15,1.13,1.13,0,0,0-.37.76A35.8,35.8,0,0,1,42.56,39.75a32.21,32.21,0,0,1-17,8.54,36.63,36.63,0,0,1-11.91.23,34.18,34.18,0,0,1-13.52-5S.07,43.48,0,43.38Z"/></g></g></svg>