<svg xmlns="http://www.w3.org/2000/svg" viewBox="0 0 99.37 56.7"><defs><style>.cls-1{fill:#fff;}</style></defs><g id="Слой_2" data-name="Слой 2"><g id="Layer_1" data-name="Layer 1"><path class="cls-1" d="M0,3.93A4.25,4.25,0,0,1,3.46,2.59c4.5,0,9-.06,13.48,0a4.46,4.46,0,0,1,4.25,2.92Q25,13.31,29,21a17.1,17.1,0,0,0,4.55,5.73,5.58,5.58,0,0,0,1.5.85,1.8,1.8,0,0,0,2.6-1.05,18.9,18.9,0,0,0,1.08-4,39.75,39.75,0,0,0-.25-14A5.14,5.14,0,0,0,34,4.28c-1.22-.25-1.32-.59-.48-1.53A7.22,7.22,0,0,1,38.31.51a56.27,56.27,0,0,1,16,.13c2.68.47,3.53,1.44,3.79,4.25a75.08,75.08,0,0,1,0,7.94c0,3-.18,6-.14,8.92a13.49,13.49,0,0,0,.6,4c.68,2.09,2.26,2.36,4,.94,2.57-2.17,4.29-5,6.07-7.75A80.08,80.08,0,0,0,75.46,5.49c1-2.48,1.46-2.75,4.09-2.76,5.24,0,10.47-.11,15.71-.15a8.23,8.23,0,0,1,1.92.18c1.82.41,2.59,1.41,2,3.16a26.45,26.45,0,0,1-2.83,6.21c-3,4.53-6.34,8.88-9.52,13.31-1,1.39-2,2.75-2.93,4.22A4,4,0,0,0,84.51,35c2.27,2.34,4.65,4.58,6.95,6.89a39.68,39.68,0,0,1,6.72,8.24,9.37,9.37,0,0,1,1,3.07c.25,1.5-1.15,2.89-2.94,3-1.15.11-2.32.17-3.48.19-3.52.08-7,0-10.56.21a11.76,11.76,0,0,1-9.36-3.84c-2.11-2.13-4.06-4.43-6.13-6.61a16.27,16.27,0,0,0-2.58-2.18c-1.5-1-2.63-.82-3.85.5-1.59,1.72-1.93,3.89-2.15,6.09-.07.74,0,1.49-.1,2.22-.22,2.37-1,3.4-3.32,3.5-5.35.22-10.75.54-15.89-1.47A41.06,41.06,0,0,1,21.68,42.53c-9-11-15.63-23.28-21.29-36.18L0,5.48Z"/></g></g></svg>