<svg xmlns="http://www.w3.org/2000/svg" viewBox="0 0 78.34 54.86"><defs><style>.cls-1{fill:#fff;}.cls-2{fill:#231f20;}</style></defs><g id="Слой_2" data-name="Слой 2"><g id="Layer_1" data-name="Layer 1"><path class="cls-1" d="M78.34,21.74V32.91c-.16.05-.14.19-.15.31,0,1-.09,2.09-.16,3.13a60.69,60.69,0,0,1-1.08,9,9.7,9.7,0,0,1-8.18,8.1,61.08,61.08,0,0,1-8.21.84q-12.91.69-25.84.51a211.44,211.44,0,0,1-24.27-1.25,10.38,10.38,0,0,1-7.09-3.78,12.48,12.48,0,0,1-2.31-6.14,94.66,94.66,0,0,1-1-11.88A113,113,0,0,1,1.21,10.34,10.57,10.57,0,0,1,5.56,3a12.35,12.35,0,0,1,6-1.91C16.65.5,21.8.34,26.94.18Q41.18-.24,55.39.33a115.94,115.94,0,0,1,13,1,9.9,9.9,0,0,1,8.41,7.69,58.62,58.62,0,0,1,1.22,9.23A18.13,18.13,0,0,0,78.34,21.74Zm-46.94-6V39.16L51.75,27.44Z"/><path class="cls-2" d="M31.4,15.71,51.75,27.44,31.4,39.16Z"/></g></g></svg>